<svg width="21" height="22" viewBox="0 0 21 22" fill="none" xmlns="http://www.w3.org/2000/svg">
<circle cx="10.5" cy="11.5" r="10.5" fill="#FFB55A"/>
<path d="M9.30469 13.4492C9.31641 12.7578 9.41016 12.2012 9.58594 11.7793C9.76172 11.3574 10.1396 10.8623 10.7197 10.2939C11.2998 9.71973 11.6719 9.31543 11.8359 9.08105C12.0059 8.84082 12.1348 8.58008 12.2227 8.29883C12.3164 8.01172 12.3633 7.68652 12.3633 7.32324C12.3633 6.59082 12.167 6.0166 11.7744 5.60059C11.3877 5.17871 10.8457 4.96777 10.1484 4.96777C9.44531 4.96777 8.87695 5.16992 8.44336 5.57422C8.01562 5.97266 7.7959 6.51465 7.78418 7.2002H6.73828C6.75 6.23926 7.0752 5.47168 7.71387 4.89746C8.35254 4.31738 9.16406 4.02734 10.1484 4.02734C11.1562 4.02734 11.9502 4.32324 12.5303 4.91504C13.1162 5.50098 13.4092 6.29785 13.4092 7.30566C13.4092 7.93848 13.2656 8.5332 12.9785 9.08984C12.6914 9.64062 12.1465 10.2852 11.3438 11.0234C10.6816 11.5801 10.3506 12.3887 10.3506 13.4492H9.30469ZM9.16406 16.3848C9.16406 16.1855 9.22559 16.0186 9.34863 15.8838C9.47754 15.7432 9.65625 15.6729 9.88477 15.6729C10.1074 15.6729 10.2832 15.7432 10.4121 15.8838C10.5469 16.0186 10.6143 16.1855 10.6143 16.3848C10.6143 16.5781 10.5469 16.7422 10.4121 16.877C10.2832 17.0059 10.1074 17.0703 9.88477 17.0703C9.65625 17.0703 9.47754 17.0059 9.34863 16.877C9.22559 16.7422 9.16406 16.5781 9.16406 16.3848Z" fill="black"/>
</svg>
