<svg width="50" height="50" viewBox="0 0 50 50" fill="none" xmlns="http://www.w3.org/2000/svg">
<path d="M35.3516 0H14.6484C6.57227 0 0 6.57227 0 14.6484V35.3516C0 43.4277 6.57227 50 14.6484 50H35.3516C43.4277 50 50 43.4277 50 35.3516V14.6484C50 6.57227 43.4277 0 35.3516 0ZM48.0469 35.3516C48.0469 42.3535 42.3535 48.0469 35.3516 48.0469H14.6484C7.64648 48.0469 1.95312 42.3535 1.95312 35.3516V14.6484C1.95312 7.64648 7.64648 1.95312 14.6484 1.95312H35.3516C42.3535 1.95312 48.0469 7.64648 48.0469 14.6484V35.3516Z" fill="#252526"/>
<path d="M35.3516 4.29688H14.6484C8.94531 4.29688 4.29688 8.94531 4.29688 14.6484V35.3516C4.29688 41.0547 8.94531 45.7031 14.6484 45.7031H20.6055C21.1426 45.7031 21.582 45.2637 21.582 44.7266C21.582 44.1895 21.1426 43.75 20.6055 43.75H14.6484C10.0195 43.75 6.25 39.9805 6.25 35.3516V14.6484C6.25 10.0195 10.0195 6.25 14.6484 6.25H35.3516C39.9805 6.25 43.75 10.0195 43.75 14.6484V35.3516C43.75 39.9805 39.9805 43.75 35.3516 43.75H29.4629C28.9258 43.75 28.4863 44.1895 28.4863 44.7266C28.4863 45.2637 28.9258 45.7031 29.4629 45.7031H35.3516C41.0547 45.7031 45.7031 41.0547 45.7031 35.3516V14.6484C45.7031 8.94531 41.0547 4.29688 35.3516 4.29688Z" fill="#252526"/>
<path d="M25.6934 44.0332C25.5078 43.8477 25.2637 43.75 25 43.75C24.7363 43.75 24.4922 43.8574 24.3066 44.0332C24.1211 44.209 24.0234 44.4629 24.0234 44.7266C24.0234 44.9902 24.1309 45.2344 24.3066 45.4199C24.4824 45.6055 24.7363 45.7031 25 45.7031C25.2637 45.7031 25.5078 45.5957 25.6934 45.4199C25.8789 45.2344 25.9766 44.9902 25.9766 44.7266C25.9766 44.4629 25.8691 44.2187 25.6934 44.0332Z" fill="#252526"/>
<path d="M17.168 15.2049C16.7969 14.8143 16.1817 14.7948 15.791 15.1561L15.752 15.1952C15.3614 15.5663 15.3418 16.1815 15.7129 16.5721C15.9082 16.7772 16.1621 16.8749 16.4258 16.8749C16.6699 16.8749 16.9043 16.787 17.0996 16.6112L17.1387 16.5721C17.5196 16.2206 17.5391 15.5956 17.168 15.2049Z" fill="#252526"/>
<path d="M25 11.5234C22.8516 11.5234 20.7227 12.041 18.8281 13.0176C18.3496 13.2617 18.1641 13.8574 18.4082 14.3359C18.6523 14.8145 19.248 15 19.7266 14.7559C21.3672 13.9063 23.1445 13.4766 25 13.4766C31.3574 13.4766 36.5234 18.6426 36.5234 25C36.5234 31.3574 31.3574 36.5234 25 36.5234C18.6426 36.5234 13.4766 31.3574 13.4766 25C13.4766 23.0078 13.9941 21.0449 14.9707 19.3164C15.2344 18.8477 15.0684 18.252 14.5996 17.9883C14.1309 17.7246 13.5352 17.8906 13.2715 18.3594C12.1289 20.3711 11.5234 22.666 11.5234 25C11.5234 32.4316 17.5684 38.4766 25 38.4766C32.4316 38.4766 38.4766 32.4316 38.4766 25C38.4766 17.5684 32.4316 11.5234 25 11.5234Z" fill="#252526"/>
<path d="M25 16.2109C20.1563 16.2109 16.2109 20.1563 16.2109 25C16.2109 29.8438 20.1563 33.7891 25 33.7891C29.8438 33.7891 33.7891 29.8438 33.7891 25C33.7891 20.1563 29.8438 16.2109 25 16.2109ZM25 31.8359C21.2305 31.8359 18.1641 28.7695 18.1641 25C18.1641 21.2305 21.2305 18.1641 25 18.1641C28.7695 18.1641 31.8359 21.2305 31.8359 25C31.8359 28.7695 28.7695 31.8359 25 31.8359Z" fill="#252526"/>
<path d="M37.8222 8.47681C35.7714 8.47681 34.1113 10.137 34.1113 12.1877C34.1113 14.2385 35.7714 15.8987 37.8222 15.8987C39.873 15.8987 41.5331 14.2385 41.5331 12.1877C41.5331 10.137 39.8632 8.47681 37.8222 8.47681ZM37.8222 13.9456C36.8554 13.9456 36.0644 13.1545 36.0644 12.1877C36.0644 11.2209 36.8554 10.4299 37.8222 10.4299C38.789 10.4299 39.58 11.2209 39.58 12.1877C39.58 13.1545 38.789 13.9456 37.8222 13.9456Z" fill="#252526"/>
</svg>
