<svg width="70" height="71" viewBox="0 0 70 71" fill="none" xmlns="http://www.w3.org/2000/svg">
<path d="M68.6328 7.48584H43.9988C40.4411 7.48584 37.1565 9.08858 35 11.7761C32.8435 9.08858 29.5589 7.48584 26.0012 7.48584H18.9584C18.2033 7.48584 17.5912 8.09162 17.5912 8.83893C17.5912 9.58625 18.2033 10.192 18.9584 10.192H26.0012C29.1812 10.192 32.0763 11.8704 33.6328 14.5939V56.8905C31.5664 55.0755 28.8723 54.0322 26.0012 54.0322H2.73438V10.192H7.74744C8.50254 10.192 9.11463 9.58625 9.11463 8.83893C9.11463 8.09162 8.50254 7.48584 7.74744 7.48584H1.36719C0.61209 7.48584 0 8.09162 0 8.83893V62.1508C0 62.8981 0.61209 63.5039 1.36719 63.5039H68.6328C69.3879 63.5039 70 62.8981 70 62.1508V8.83893C70 8.09162 69.3879 7.48584 68.6328 7.48584ZM2.73438 60.7977V56.7384H26.0012C29.0454 56.7384 31.8273 58.2773 33.425 60.7977H2.73438ZM67.2656 60.7977H36.575C38.1728 58.2773 40.9548 56.7384 43.9988 56.7384H67.2656V60.7977ZM67.2656 54.0322H43.9988C41.1277 54.0322 38.4334 55.0755 36.3672 56.8906V14.5939C37.9237 11.8704 40.8188 10.192 43.9988 10.192H67.2656V54.0322Z" fill="#FFB55A"/>
<path d="M27.2179 45.2276C26.9636 44.976 26.6109 44.8312 26.2513 44.8312C25.8918 44.8312 25.539 44.976 25.2847 45.2276C25.0304 45.4793 24.8842 45.8284 24.8842 46.1843C24.8842 46.5401 25.0304 46.8892 25.2847 47.1409C25.539 47.3926 25.8918 47.5374 26.2513 47.5374C26.6123 47.5374 26.9636 47.3926 27.2179 47.1409C27.4736 46.8892 27.6185 46.5401 27.6185 46.1843C27.6185 45.8284 27.4736 45.4793 27.2179 45.2276Z" fill="#FFB55A"/>
<path d="M21.0978 44.8312H8.79352C8.03842 44.8312 7.42633 45.437 7.42633 46.1843C7.42633 46.9316 8.03842 47.5374 8.79352 47.5374H21.0978C21.8529 47.5374 22.465 46.9316 22.465 46.1843C22.465 45.437 21.8529 44.8312 21.0978 44.8312Z" fill="#FFB55A"/>
<path d="M26.2517 35.4498H8.79352C8.03842 35.4498 7.42633 36.0556 7.42633 36.8029C7.42633 37.5502 8.03842 38.156 8.79352 38.156H26.2515C27.0066 38.156 27.6187 37.5502 27.6187 36.8029C27.6187 36.0556 27.0068 35.4498 26.2517 35.4498Z" fill="#FFB55A"/>
<path d="M26.2517 26.0682H8.79352C8.03842 26.0682 7.42633 26.674 7.42633 27.4213C7.42633 28.1686 8.03842 28.7744 8.79352 28.7744H26.2515C27.0066 28.7744 27.6187 28.1686 27.6187 27.4213C27.6187 26.674 27.0068 26.0682 26.2517 26.0682Z" fill="#FFB55A"/>
<path d="M26.2517 16.6869H8.79352C8.03842 16.6869 7.42633 17.2927 7.42633 18.04C7.42633 18.7873 8.03842 19.3931 8.79352 19.3931H26.2515C27.0066 19.3931 27.6187 18.7873 27.6187 18.04C27.6187 17.2927 27.0068 16.6869 26.2517 16.6869Z" fill="#FFB55A"/>
<path d="M62.2166 45.2276C61.9623 44.976 61.6096 44.8312 61.25 44.8312C60.8904 44.8312 60.5377 44.976 60.2834 45.2276C60.0291 45.4793 59.8828 45.8284 59.8828 46.1843C59.8828 46.5401 60.0291 46.8892 60.2834 47.1409C60.5377 47.3926 60.8904 47.5374 61.25 47.5374C61.6096 47.5374 61.9623 47.3926 62.2166 47.1409C62.4709 46.8892 62.6172 46.5401 62.6172 46.1843C62.6172 45.8284 62.4709 45.4793 62.2166 45.2276Z" fill="#FFB55A"/>
<path d="M56.0961 44.8312H43.7919C43.0368 44.8312 42.4247 45.437 42.4247 46.1843C42.4247 46.9316 43.0368 47.5374 43.7919 47.5374H56.0961C56.8512 47.5374 57.4633 46.9316 57.4633 46.1843C57.4633 45.437 56.8512 44.8312 56.0961 44.8312Z" fill="#FFB55A"/>
<path d="M61.2499 35.4498H43.7919C43.0368 35.4498 42.4247 36.0556 42.4247 36.8029C42.4247 37.5502 43.0368 38.156 43.7919 38.156H61.2499C62.005 38.156 62.6171 37.5502 62.6171 36.8029C62.6171 36.0556 62.005 35.4498 61.2499 35.4498Z" fill="#FFB55A"/>
<path d="M61.2499 26.0682H43.7919C43.0368 26.0682 42.4247 26.674 42.4247 27.4213C42.4247 28.1686 43.0368 28.7744 43.7919 28.7744H61.2499C62.005 28.7744 62.6171 28.1686 62.6171 27.4213C62.6171 26.674 62.005 26.0682 61.2499 26.0682Z" fill="#FFB55A"/>
<path d="M61.2499 16.6869H43.7919C43.0368 16.6869 42.4247 17.2927 42.4247 18.04C42.4247 18.7873 43.0368 19.3931 43.7919 19.3931H61.2499C62.005 19.3931 62.6171 18.7873 62.6171 18.04C62.6171 17.2927 62.005 16.6869 61.2499 16.6869Z" fill="#FFB55A"/>
<path d="M14.365 7.8823C14.1107 7.63062 13.758 7.48584 13.3984 7.48584C13.0389 7.48584 12.6861 7.63062 12.4318 7.8823C12.1775 8.13397 12.0312 8.48307 12.0312 8.83893C12.0312 9.1948 12.1775 9.54389 12.4318 9.79557C12.6861 10.0472 13.0389 10.192 13.3984 10.192C13.758 10.192 14.1107 10.0472 14.365 9.79557C14.6193 9.54389 14.7656 9.1948 14.7656 8.83893C14.7656 8.48307 14.6193 8.13397 14.365 7.8823Z" fill="#FFB55A"/>
</svg>
