<svg width="70" height="71" viewBox="0 0 70 71" fill="none" xmlns="http://www.w3.org/2000/svg">
<g clip-path="url(#clip0)">
<path d="M66.7732 67.4279H63.7746V24.3367C63.7746 22.331 62.1257 20.6993 60.0993 20.6993H53.3968C51.3702 20.6993 49.7215 22.3312 49.7215 24.3367V67.4279H42.1074V43.8604C42.1074 41.8547 40.4587 40.223 38.4321 40.223H31.7296C29.703 40.223 28.0543 41.8548 28.0543 43.8604V67.4279H20.4402V55.2224C20.4402 53.2167 18.7914 51.585 16.7649 51.585H10.0623C8.03571 51.585 6.38701 53.2169 6.38701 55.2224V67.4279H3.22662C2.47153 67.4279 1.85944 68.0336 1.85944 68.7809C1.85944 69.5283 2.47153 70.134 3.22662 70.134H66.7732C67.5283 70.134 68.1404 69.5283 68.1404 68.7809C68.1404 68.0336 67.5283 67.4279 66.7732 67.4279ZM17.7055 67.4279H9.12125V55.2224C9.12125 54.7089 9.5433 54.2912 10.0622 54.2912H16.7646C17.2835 54.2912 17.7055 54.7089 17.7055 55.2224V67.4279ZM39.3729 67.4279H30.7886V43.8604C30.7886 43.3469 31.2106 42.9292 31.7295 42.9292H38.432C38.9507 42.9292 39.3729 43.3469 39.3729 43.8604V67.4279ZM61.0402 67.4279H52.4559V24.3367C52.4559 23.8232 52.8779 23.4055 53.3968 23.4055H60.0993C60.6181 23.4055 61.0402 23.8232 61.0402 24.3367V67.4279Z" fill="#FFB55A"/>
<path d="M63.7714 2.27863C63.7905 1.90937 63.6593 1.53388 63.3744 1.2519C63.0894 0.969914 62.71 0.839882 62.3369 0.85896C62.3149 0.858013 62.2932 0.855713 62.2708 0.855713H53.9993C53.2442 0.855713 52.6321 1.46149 52.6321 2.20881C52.6321 2.95612 53.2442 3.5619 53.9993 3.5619H59.1067L45.5911 16.9383L40.4942 11.894C40.2379 11.6403 39.89 11.4977 39.5275 11.4977C39.1649 11.4977 38.8171 11.6403 38.5607 11.894L13.9829 36.2185C13.449 36.7469 13.449 37.6037 13.9829 38.1322C14.2499 38.3962 14.5998 38.5283 14.9497 38.5283C15.2995 38.5283 15.6495 38.3962 15.9164 38.1319L39.5275 14.7642L44.6243 19.8085C45.1582 20.3369 46.0239 20.3369 46.5579 19.8085L61.0403 5.47558V10.0504C61.0403 10.7977 61.6524 11.4035 62.4075 11.4035C63.1626 11.4035 63.7747 10.7977 63.7747 10.0504V2.34412C63.7747 2.32206 63.7723 2.30055 63.7714 2.27863Z" fill="#FFB55A"/>
<path d="M10.3414 43.2495C11.0965 43.2495 11.7086 42.6437 11.7086 41.8964C11.7086 41.1491 11.0965 40.5433 10.3414 40.5433C9.58635 40.5433 8.97424 41.1491 8.97424 41.8964C8.97424 42.6437 9.58635 43.2495 10.3414 43.2495Z" fill="#FFB55A"/>
</g>
<defs>
<clipPath id="clip0">
<rect width="70" height="69.2784" fill="white" transform="translate(0 0.855713)"/>
</clipPath>
</defs>
</svg>
