<svg width="55" height="65" viewBox="0 0 55 65" fill="none" xmlns="http://www.w3.org/2000/svg">
<path d="M8.93031 22.5893C8.93031 21.1119 9.06186 19.5536 9.32496 17.9143C9.58805 16.2547 9.99282 14.6256 10.5392 13.0267C11.1059 11.4279 11.8041 9.89993 12.6339 8.44278C13.4839 6.98563 14.4857 5.71062 15.6393 4.61776C16.7929 3.50465 18.0982 2.62429 19.5554 1.97667C21.0328 1.30881 22.6721 0.974878 24.4733 0.974878C26.3149 0.974878 27.9947 1.28857 29.5126 1.91595C31.0304 2.5231 32.3864 3.38323 33.5805 4.49633C34.7745 5.58919 35.8168 6.89456 36.7073 8.41242C37.618 9.93029 38.3668 11.5898 38.9537 13.391C39.5406 15.1922 39.9757 17.1047 40.2591 19.1286C40.5626 21.1321 40.7144 23.1762 40.7144 25.2607C40.7144 27.5679 40.5222 29.8649 40.1376 32.1518C39.7734 34.4388 39.2168 36.6346 38.468 38.7394C37.7394 40.8239 36.8186 42.7668 35.7055 44.568C34.5924 46.3692 33.2971 47.9275 31.8197 49.243C30.3423 50.5585 28.6727 51.5907 26.8108 52.3395C24.9691 53.1085 22.9453 53.493 20.7393 53.493C18.675 53.493 16.7423 53.1692 14.9411 52.5216C13.1399 51.8942 11.4904 51.0037 9.99282 49.8502C8.49519 48.6764 7.15947 47.29 5.98565 45.6912C4.81183 44.0722 3.82016 42.3013 3.01063 40.3787C2.22134 38.4358 1.6142 36.3715 1.18919 34.1858C0.764191 31.9798 0.55169 29.7131 0.55169 27.3857C0.55169 25.0988 0.754072 22.9738 1.15884 21.0107C1.58384 19.0476 2.14039 17.2363 2.82849 15.5768C3.51659 13.9172 4.29576 12.4095 5.166 11.0535C6.05648 9.69755 6.97732 8.48326 7.92852 7.41063C8.87972 6.33801 9.82079 5.40705 10.7518 4.61776C11.6827 3.82847 12.5428 3.17072 13.3321 2.64453L14.6375 3.52489C13.2411 4.65823 11.9762 6.05467 10.8428 7.7142C9.72972 9.37374 8.76841 11.2357 7.95888 13.3C7.16959 15.3642 6.56244 17.5905 6.13744 19.9786C5.71243 22.3464 5.49993 24.8155 5.49993 27.3857C5.49993 31.737 5.92494 35.4608 6.77494 38.5572C7.64518 41.6537 8.78864 44.1936 10.2053 46.1769C11.622 48.1603 13.2411 49.6174 15.0625 50.5484C16.9042 51.4793 18.7964 51.9448 20.7393 51.9448C22.8441 51.9448 24.7971 51.4793 26.5983 50.5484C28.3995 49.6174 29.9578 48.1603 31.2733 46.1769C32.609 44.1936 33.6513 41.6537 34.4001 38.5572C35.1692 35.4608 35.5537 31.737 35.5537 27.3857C35.5537 23.2167 35.2299 19.594 34.5822 16.5178C33.9549 13.4416 33.0846 10.9017 31.9715 8.89814C30.8787 6.87432 29.5935 5.36657 28.1161 4.3749C26.6387 3.38323 25.0703 2.88739 23.4108 2.88739C22.1155 2.88739 20.9518 3.18084 19.9197 3.76775C18.8875 4.35466 17.9768 5.16419 17.1875 6.19634C16.4185 7.20825 15.7506 8.4023 15.1839 9.7785C14.6172 11.1345 14.1518 12.5916 13.7875 14.15C13.4434 15.7083 13.1905 17.3172 13.0285 18.9768C12.8666 20.6161 12.7857 22.2351 12.7857 23.8339C12.7857 25.7363 12.8464 27.3453 12.9678 28.6608C13.0893 29.956 13.2309 31.0084 13.3928 31.8179C13.575 32.7691 13.7875 33.528 14.0303 34.0947L12.2393 34.5501C11.9559 34.2263 11.622 33.7709 11.2375 33.184C10.8732 32.5971 10.519 31.828 10.175 30.8768C9.83091 29.9256 9.53746 28.7721 9.2946 27.4161C9.05174 26.0601 8.93031 24.4512 8.93031 22.5893Z" fill="#FFB55A"/>
<path d="M45.8058 23.2693C46.749 23.2693 47.553 23.5167 48.2179 24.0115C48.8827 24.4908 49.4316 25.1866 49.8645 26.0988C50.2975 26.9956 50.6144 28.0934 50.8154 29.3922C51.0164 30.6755 51.1169 32.1134 51.1169 33.706C51.1169 35.1903 51.0319 36.7442 50.8618 38.3677C50.6917 39.9912 50.4366 41.6379 50.0965 43.3077C49.7718 44.9621 49.362 46.6011 48.8673 48.2246C48.3879 49.848 47.839 51.3942 47.2206 52.8631C46.6021 54.332 45.9141 55.7003 45.1564 56.9682C44.3988 58.2206 43.5793 59.3106 42.698 60.2383C41.8167 61.1506 40.8735 61.8618 39.8685 62.3721C38.879 62.8978 37.8353 63.1606 36.7375 63.1606C35.5779 63.1606 34.5729 62.9519 33.7225 62.5344C32.8875 62.1324 32.1763 61.5835 31.5888 60.8877C31.0167 60.1765 30.5528 59.3647 30.1972 58.4525C29.8416 57.5248 29.5633 56.5507 29.3623 55.5302C29.1767 54.5098 29.053 53.4738 28.9912 52.4224C28.9293 51.3556 28.8984 50.3428 28.8984 49.3842C28.8984 47.5443 28.9757 45.7584 29.1303 44.0267C29.285 42.2795 29.455 40.5942 29.6406 38.9707C29.8416 37.3472 30.0194 35.7933 30.174 34.309C30.3286 32.8247 30.4059 31.4099 30.4059 30.0648C30.4059 28.936 30.3441 28.0006 30.2204 27.2585C30.0967 26.5008 29.9034 25.8978 29.6406 25.4494C29.3932 25.001 29.0762 24.6841 28.6897 24.4985C28.3031 24.313 27.847 24.2202 27.3213 24.2202C26.641 24.2202 25.9684 24.3748 25.3036 24.6841C24.6387 24.9933 23.997 25.4262 23.3786 25.9829C22.7756 26.524 22.2189 27.1734 21.7087 27.931C21.1985 28.6732 20.7578 29.4849 20.3867 30.3663C20.0002 31.2476 19.6987 32.1753 19.4822 33.1494C19.2658 34.108 19.1575 35.0744 19.1575 36.0484C19.1575 37.0535 19.2271 37.8961 19.3663 38.5764C19.5054 39.2568 19.6987 39.8057 19.9461 40.2231C20.178 40.6406 20.464 40.9421 20.8042 41.1276C21.1598 41.3132 21.5464 41.4059 21.9638 41.4059C22.6905 41.4059 23.3477 41.2127 23.9352 40.8261C24.5227 40.4241 25.033 39.8675 25.4659 39.1563C25.8988 38.4296 26.2545 37.5637 26.5328 36.5587C26.8111 35.5382 27.0121 34.4172 27.1358 33.1958L28.2258 33.2421C28.1794 33.7678 28.0944 34.3709 27.9707 35.0512C27.8625 35.716 27.7001 36.3963 27.4837 37.0921C27.2672 37.7724 26.9966 38.445 26.6719 39.1099C26.3472 39.7747 25.9452 40.3623 25.4659 40.8725C24.9866 41.3827 24.43 41.8002 23.796 42.1249C23.1621 42.4341 22.4277 42.5888 21.5927 42.5888C20.9897 42.5888 20.3635 42.4728 19.7141 42.2409C19.0648 42.0089 18.4695 41.6456 17.9283 41.1508C17.3872 40.656 16.9465 40.0144 16.6063 39.2258C16.2507 38.4218 16.0729 37.4555 16.0729 36.3268C16.0729 35.2135 16.2353 34.1157 16.5599 33.0334C16.8692 31.9511 17.3021 30.9152 17.8587 29.9256C18.3999 28.936 19.0493 28.0238 19.8069 27.1889C20.5491 26.3539 21.3608 25.6272 22.2421 25.0088C23.1235 24.3903 24.0512 23.911 25.0253 23.5708C25.9993 23.2152 26.9734 23.0374 27.9475 23.0374C32.0913 23.0374 34.1631 26.0447 34.1631 32.0593C34.1631 33.5282 34.0936 35.0898 33.9544 36.7442C33.8307 38.3986 33.6916 40.0917 33.5369 41.8234C33.3978 43.5397 33.2586 45.2636 33.1195 46.9954C32.9958 48.7116 32.9339 50.366 32.9339 51.9586C32.9339 54.0304 33.0267 55.708 33.2122 56.9914C33.3978 58.2747 33.6684 59.272 34.024 59.9832C34.3796 60.679 34.8125 61.1506 35.3228 61.398C35.833 61.6299 36.4128 61.7459 37.0622 61.7459C38.0363 61.7459 38.9949 61.3902 39.9381 60.679C40.8813 59.9523 41.778 58.9782 42.6284 57.7567C43.4788 56.5198 44.2597 55.0818 44.9709 53.4429C45.6976 51.7885 46.3238 50.0336 46.8495 48.1782C47.3752 46.3073 47.7849 44.3823 48.0787 42.4032C48.3725 40.4087 48.5194 38.4605 48.5194 36.5587C48.5194 34.4095 48.4034 32.6237 48.1715 31.2012C47.9395 29.7633 47.6226 28.6191 47.2206 27.7687C46.8186 26.9028 46.3547 26.2921 45.829 25.9365C45.3033 25.5809 44.739 25.403 44.136 25.403C43.7185 25.403 43.3165 25.4804 42.9299 25.635C42.5589 25.7741 42.211 25.9519 41.8863 26.1684C41.5616 26.3849 41.2678 26.6168 41.005 26.8642C40.7421 27.1116 40.5256 27.3358 40.3556 27.5368L39.4047 26.8178C39.6211 26.5395 39.9381 26.1993 40.3556 25.7973C40.7885 25.3953 41.2833 25.0088 41.8399 24.6377C42.412 24.2666 43.0304 23.9496 43.6953 23.6868C44.3756 23.4085 45.0791 23.2693 45.8058 23.2693Z" fill="black"/>
</svg>
