<svg width="68" height="69" viewBox="0 0 68 69" fill="none" xmlns="http://www.w3.org/2000/svg">
<g clip-path="url(#clip0)">
<path d="M33.8815 9.40741C34.6202 9.40741 35.219 8.81473 35.219 8.08365V2.17948C35.219 1.44839 34.6202 0.855713 33.8815 0.855713C33.1428 0.855713 32.5439 1.44839 32.5439 2.17948V8.08365C32.5441 8.81473 33.1429 9.40741 33.8815 9.40741Z" fill="#FFB55A"/>
<path d="M66.5762 46.3332L64.2133 44.0012C63.3728 43.1704 62.2525 42.7127 61.0588 42.7127C60.2955 42.7127 59.5628 42.9007 58.9135 43.2528L54.4608 38.8513L54.6777 38.6369C56.4841 36.8456 56.4834 33.9348 54.6775 32.1495C54.0322 31.5097 53.227 31.083 52.3492 30.9035C52.4701 30.4906 52.5337 30.0581 52.5337 29.6156C52.5337 28.3859 52.051 27.2329 51.1774 26.3718C50.5319 25.7319 49.7268 25.3053 48.8491 25.1257C48.9699 24.7129 49.0335 24.2806 49.0335 23.8379C49.0335 22.6081 48.5509 21.4552 47.6758 20.5928C47.0149 19.9395 46.2025 19.526 45.3495 19.35C45.8058 17.7928 45.4159 16.0408 44.178 14.8136C43.1477 13.7982 41.7496 13.3618 40.4022 13.5033L31.5788 11.8504C30.2331 11.5977 28.5527 11.4307 27.4919 12.3882C27.4249 12.4487 27.3567 12.5182 27.2895 12.5956C25.6447 12.0023 23.7264 12.3556 22.4093 13.6577C21.5355 14.5214 21.0542 15.6739 21.0542 16.9029C21.0542 17.3456 21.1176 17.7779 21.2383 18.1909C20.3614 18.3703 19.5573 18.7965 18.9141 19.4342C18.0386 20.2972 17.5558 21.4483 17.5549 22.6759C17.5545 23.1196 17.6181 23.5534 17.7395 23.9675C16.8622 24.1465 16.0575 24.5718 15.4123 25.2096C14.5368 26.0751 14.0547 27.2283 14.0547 28.4566C14.0547 29.3975 14.3385 30.2938 14.8645 31.0509C14.2004 31.2737 13.5921 31.6445 13.0828 32.1481C11.2752 33.9348 11.2746 36.8457 13.084 38.6397L13.3001 38.8526L8.84687 43.2519C7.19189 42.4807 5.15282 42.7696 3.78711 44.1195L1.42278 46.4529C0.581815 47.2842 0.118831 48.393 0.118698 49.5751C0.118698 50.7573 0.581815 51.8663 1.42278 52.6977L4.37348 55.6144C4.8961 56.1311 5.74304 56.1306 6.26499 55.6133C6.78708 55.0961 6.78655 54.2579 6.26393 53.7413L3.31324 50.8246C2.97828 50.4935 2.79381 50.0497 2.79381 49.5752C2.79381 49.1008 2.97828 48.6572 3.31244 48.3269L5.6769 45.9934C6.26765 45.4094 7.17184 45.3224 7.85848 45.7287C7.90682 45.8006 7.96274 45.8689 8.02675 45.9324C8.14137 46.0461 8.27219 46.1333 8.41111 46.197L21.9703 59.5967C22.0348 59.7357 22.1232 59.8664 22.2386 59.9808C22.351 60.0921 22.4791 60.1782 22.6151 60.2416C22.9019 60.5624 23.0603 60.9723 23.0603 61.4095C23.0603 61.884 22.8759 62.3276 22.5409 62.6587L20.1788 64.9937C19.4809 65.6814 18.3456 65.6812 17.6498 64.9958L14.6991 62.0752C14.1768 61.5583 13.33 61.5583 12.8076 62.0752C12.2853 62.5922 12.2853 63.4303 12.8076 63.9472L15.7604 66.8699C16.6296 67.7265 17.7709 68.1546 18.9129 68.1546C20.0551 68.1546 21.1978 67.7258 22.068 66.8684L24.4315 64.532C25.2725 63.7006 25.7356 62.5918 25.7356 61.4095C25.7356 60.5657 25.4985 59.76 25.0577 59.0652L30.0695 54.1111C30.0748 54.1057 30.0801 54.1003 30.0856 54.0949C30.6595 53.5077 32.2576 53.6176 33.8031 53.7238C34.9012 53.7994 36.1255 53.8834 37.3216 53.747L42.8099 59.1723C42.4544 59.8139 42.2646 60.5381 42.2646 61.2923C42.2646 62.4734 42.7277 63.5816 43.5687 64.4129L45.9324 66.7493C46.7728 67.5802 47.8931 68.0379 49.0868 68.0379C50.2804 68.0379 51.4007 67.5803 52.2412 66.7493L66.5771 52.5784C67.4181 51.7472 67.8812 50.6383 67.8812 49.4561C67.8811 48.2741 67.418 47.1652 66.5762 46.3332V46.3332ZM31.0807 14.4516L36.8829 15.5385L33.41 18.9743C32.8728 18.7188 32.1365 18.2422 31.3287 17.4774C30.223 16.4306 29.4321 15.222 29.3602 14.4682C29.36 14.4678 29.36 14.4674 29.36 14.467C29.36 14.4669 29.3599 14.4667 29.3599 14.4666C29.3547 14.4125 29.3534 14.3692 29.354 14.3362C29.529 14.2942 29.9935 14.2475 31.0807 14.4516ZM24.2996 15.5309C24.9772 14.8609 26.0299 14.7836 26.7956 15.2968C27.2294 17.0973 28.7814 18.7292 29.4796 19.3903C29.997 19.8804 31.6573 21.3495 33.3331 21.7533C33.5598 22.0749 33.6832 22.4584 33.6832 22.8629C33.6832 23.3841 33.4807 23.8714 33.1116 24.2363C32.7436 24.6011 32.2504 24.802 31.7229 24.802C31.1952 24.802 30.7021 24.6011 30.3323 24.2345L30.3322 24.2344L30.3315 24.2338L24.2995 18.2746C23.9317 17.9112 23.7292 17.4239 23.7292 16.9029C23.7293 16.3817 23.9318 15.8945 24.2996 15.5309V15.5309ZM20.8045 21.3074C21.1725 20.9427 21.6651 20.7417 22.1919 20.7417C22.7193 20.7417 23.2135 20.9431 23.5839 21.3093L28.4411 26.1068C29.206 26.865 29.206 28.0987 28.4438 28.8543C28.0737 29.219 27.5789 29.4199 27.0504 29.4199C26.522 29.4199 26.0271 29.219 25.6587 28.8558L25.6585 28.8557L21.9737 25.2096C21.9679 25.2039 21.9617 25.1987 21.9559 25.1929L20.803 24.0525C20.4332 23.6868 20.2296 23.1986 20.23 22.6779C20.2305 22.1588 20.4334 21.6731 20.8045 21.3074V21.3074ZM17.3028 27.0828C17.6711 26.7188 18.1647 26.5184 18.6931 26.5184C19.217 26.5184 19.7064 26.7159 20.0731 27.0736L23.7693 30.7299C24.1378 31.0933 24.3409 31.58 24.3409 32.1005C24.3409 32.6209 24.1378 33.1076 23.7678 33.4724C23.3997 33.8362 22.9065 34.0367 22.3791 34.0367C21.8509 34.0367 21.3562 33.8357 20.9875 33.4724L19.6476 32.1478C19.6473 32.1474 19.6469 32.1472 19.6467 32.1469L17.3029 29.8301C16.9334 29.4648 16.73 28.9769 16.73 28.4564C16.73 27.936 16.9334 27.4479 17.3028 27.0828V27.0828ZM14.9732 34.0212C15.3431 33.6555 15.8375 33.4541 16.3651 33.4541C16.8927 33.4541 17.3868 33.6553 17.7566 34.0208L19.0984 35.3472C19.4671 35.7105 19.67 36.1972 19.67 36.7177C19.67 37.2382 19.467 37.7248 19.0956 38.091C18.7276 38.4558 18.2345 38.6568 17.7069 38.6568C17.1793 38.6568 16.6861 38.4559 16.3154 38.0884L16.1474 37.9228C16.1452 37.9206 16.1435 37.9182 16.1413 37.9161C16.1388 37.9137 16.1362 37.9116 16.1336 37.9092L14.9746 36.7666C14.2097 36.0081 14.209 34.7766 14.9732 34.0212ZM42.2309 49.0659C41.7088 48.5485 40.8619 48.5481 40.3394 49.0647L39.1494 50.241C38.0186 51.3601 35.9697 51.2192 33.9883 51.0831C31.8366 50.9351 29.6116 50.7824 28.1718 52.2454L23.2451 57.1153L10.925 44.9401L15.285 40.6329C16.0056 41.0701 16.8371 41.3044 17.7072 41.3044C18.9502 41.3044 20.1157 40.8276 20.9863 39.9644C21.8628 39.1005 22.3455 37.9476 22.3455 36.7178C22.3455 36.7064 22.3447 36.6951 22.3447 36.6837C22.3563 36.6838 22.3678 36.6845 22.3794 36.6845C23.6207 36.6845 24.7853 36.209 25.6571 35.3473C26.5335 34.4834 27.0163 33.3304 27.0163 32.1008C27.0163 32.0893 27.0155 32.078 27.0155 32.0666C27.0272 32.0666 27.0389 32.0674 27.0507 32.0674C28.2915 32.0674 29.4568 31.5925 30.3345 30.7275C31.2456 29.8243 31.6962 28.6353 31.6876 27.4487C31.6995 27.4489 31.7115 27.4495 31.7234 27.4495C32.9664 27.4494 34.1318 26.9726 35.0038 26.1081C35.8775 25.2444 36.3588 24.0919 36.3588 22.8629C36.3588 22.0034 36.1227 21.1818 35.6824 20.47L39.5038 16.6896C39.7886 16.4089 40.1398 16.2328 40.5078 16.1601C40.5476 16.1559 40.5869 16.1496 40.6258 16.142C41.2163 16.0614 41.8364 16.2417 42.288 16.6868C43.0529 17.4451 43.0529 18.6788 42.2908 19.4344L41.1269 20.5815C41.1231 20.5853 41.119 20.5887 41.1151 20.5925L39.7747 21.9169C39.2519 22.4335 39.2514 23.2717 39.7735 23.789C40.2957 24.3063 41.1425 24.3067 41.665 23.7901L42.8335 22.6353C42.8337 22.635 42.834 22.6348 42.8343 22.6345L43.0109 22.4603C43.7779 21.7082 45.0205 21.7098 45.7867 22.467C46.1554 22.8303 46.3584 23.3171 46.3584 23.8376C46.3584 24.358 46.1554 24.8447 45.7838 25.2109L44.6133 26.3717C44.6131 26.3718 44.613 26.3719 44.6129 26.3722L43.2725 27.6933C42.7491 28.2093 42.7474 29.0475 43.2687 29.5654C43.79 30.0834 44.6368 30.085 45.1602 29.5692L46.5066 28.242C46.8747 27.8771 47.3678 27.6763 47.8953 27.6763C48.423 27.6763 48.9163 27.8771 49.2869 28.2446C49.6556 28.6081 49.8586 29.0948 49.8586 29.6153C49.8586 30.1357 49.6556 30.6224 49.2848 30.9878L46.9513 33.2982C46.4291 33.8153 46.4292 34.6534 46.9516 35.1702C47.2128 35.4286 47.5549 35.5577 47.8972 35.5577C48.2396 35.5577 48.582 35.4284 48.8431 35.1698L49.9867 34.0376C49.9932 34.0314 50.0003 34.026 50.0068 34.0196C50.3748 33.6547 50.8679 33.4538 51.3955 33.4538C51.9231 33.4538 52.4163 33.6547 52.7856 34.0209C53.5497 34.7763 53.549 36.0079 52.7856 36.7648L51.6229 37.9142C51.6225 37.9146 51.6219 37.915 51.6215 37.9154C51.6211 37.9158 51.6207 37.9163 51.6203 37.9167L49.7748 39.741C49.2521 40.2577 49.2516 41.096 49.7736 41.6132C50.0348 41.872 50.3775 42.0015 50.72 42.0015C51.062 42.0015 51.4041 41.8724 51.6652 41.6144L52.5679 40.722L56.8946 44.999L44.5756 57.1762L40.1617 52.8131C40.4694 52.6172 40.7638 52.3869 41.0402 52.1134L42.2296 50.9378C42.7524 50.4213 42.753 49.5831 42.2309 49.0659V49.0659ZM64.6866 50.7052L50.3506 64.8761C50.0153 65.2076 49.5664 65.3902 49.0867 65.3902C48.6069 65.3902 48.158 65.2076 47.8226 64.876L45.4589 62.5396C45.1239 62.2086 44.9395 61.7657 44.9395 61.2923C44.9395 60.8191 45.1239 60.3762 45.4589 60.0451L59.7948 45.8742C60.1303 45.5426 60.5791 45.36 61.0589 45.36C61.5386 45.36 61.9875 45.5425 62.3238 45.875L64.6867 48.2069C65.0216 48.538 65.2061 48.9815 65.2061 49.456C65.206 49.9307 65.0215 50.3743 64.6866 50.7052V50.7052Z" fill="#FFB55A"/>
<path d="M16.1206 8.29517C16.3817 8.55306 16.7236 8.68187 17.0654 8.68187C17.4081 8.68187 17.7509 8.55227 18.0121 8.29319C18.5339 7.7757 18.5331 6.93762 18.0103 6.42118L13.1363 1.60707C12.6136 1.09063 11.7666 1.09129 11.2448 1.60891C10.723 2.1264 10.7238 2.96448 11.2467 3.48092L16.1206 8.29517Z" fill="#FFB55A"/>
<path d="M50.6974 8.68195C51.0393 8.68195 51.3815 8.55287 51.6426 8.29484L56.5128 3.4806C57.0354 2.96403 57.036 2.12582 56.5139 1.60859C55.9919 1.09136 55.1451 1.09083 54.6224 1.60754L49.7521 6.42178C49.2295 6.93835 49.229 7.77656 49.7511 8.29379C50.0123 8.5526 50.3548 8.68195 50.6974 8.68195Z" fill="#FFB55A"/>
<path d="M8.34311 57.7975C7.82527 58.3188 7.83244 59.157 8.35931 59.6695L8.36316 59.6732C8.62308 59.9261 8.96055 60.052 9.2979 60.052C9.64414 60.052 9.99038 59.9194 10.2527 59.6553C10.7705 59.134 10.7614 58.2939 10.2346 57.7814C9.70802 57.2689 8.86121 57.2762 8.34311 57.7975V57.7975Z" fill="#FFB55A"/>
<path d="M45.5023 47.1588C45.7057 47.1588 45.9121 47.113 46.1059 47.0164C46.7655 46.6871 47.0304 45.8911 46.6979 45.2383C46.3652 44.5856 45.5607 44.3232 44.9013 44.6525L44.8939 44.6562C44.2343 44.9854 43.9731 45.7796 44.3056 46.4324C44.5405 46.8935 45.0127 47.1588 45.5023 47.1588V47.1588Z" fill="#FFB55A"/>
</g>
<defs>
<clipPath id="clip0">
<rect width="68" height="67.299" fill="white" transform="translate(0 0.855713)"/>
</clipPath>
</defs>
</svg>
