<svg width="126" height="25" viewBox="0 0 126 25" fill="none" xmlns="http://www.w3.org/2000/svg">
<g filter="url(#filter0_d)">
<path d="M10.5245 2.46353C10.6741 2.00287 11.3259 2.00287 11.4755 2.46353L13.1329 7.56434C13.1998 7.77035 13.3918 7.90983 13.6084 7.90983H18.9717C19.4561 7.90983 19.6575 8.52964 19.2656 8.81434L14.9266 11.9668C14.7514 12.0941 14.678 12.3198 14.745 12.5258L16.4023 17.6266C16.552 18.0873 16.0248 18.4704 15.6329 18.1857L11.2939 15.0332C11.1186 14.9059 10.8814 14.9059 10.7061 15.0332L6.3671 18.1857C5.97524 18.4704 5.448 18.0873 5.59768 17.6266L7.25503 12.5258C7.32197 12.3198 7.24864 12.0941 7.07339 11.9668L2.73438 8.81434C2.34253 8.52964 2.54392 7.90983 3.02828 7.90983H8.39159C8.6082 7.90983 8.80018 7.77035 8.86712 7.56434L10.5245 2.46353Z" fill="#FFB55A"/>
<path d="M35.5245 2.46353C35.6741 2.00287 36.3259 2.00287 36.4755 2.46353L38.1329 7.56434C38.1998 7.77035 38.3918 7.90983 38.6084 7.90983H43.9717C44.4561 7.90983 44.6575 8.52964 44.2656 8.81434L39.9266 11.9668C39.7514 12.0941 39.678 12.3198 39.745 12.5258L41.4023 17.6266C41.552 18.0873 41.0248 18.4704 40.6329 18.1857L36.2939 15.0332C36.1186 14.9059 35.8814 14.9059 35.7061 15.0332L31.3671 18.1857C30.9752 18.4704 30.448 18.0873 30.5977 17.6266L32.255 12.5258C32.322 12.3198 32.2486 12.0941 32.0734 11.9668L27.7344 8.81434C27.3425 8.52964 27.5439 7.90983 28.0283 7.90983H33.3916C33.6082 7.90983 33.8002 7.77035 33.8671 7.56434L35.5245 2.46353Z" fill="#FFB55A"/>
<path d="M85.5245 2.46353C85.6741 2.00287 86.3259 2.00287 86.4755 2.46353L88.1329 7.56434C88.1998 7.77035 88.3918 7.90983 88.6084 7.90983H93.9717C94.4561 7.90983 94.6575 8.52964 94.2656 8.81434L89.9266 11.9668C89.7514 12.0941 89.678 12.3198 89.745 12.5258L91.4023 17.6266C91.552 18.0873 91.0248 18.4704 90.6329 18.1857L86.2939 15.0332C86.1186 14.9059 85.8814 14.9059 85.7061 15.0332L81.3671 18.1857C80.9752 18.4704 80.448 18.0873 80.5977 17.6266L82.255 12.5258C82.322 12.3198 82.2486 12.0941 82.0734 11.9668L77.7344 8.81434C77.3425 8.52964 77.5439 7.90983 78.0283 7.90983H83.3916C83.6082 7.90983 83.8002 7.77035 83.8671 7.56434L85.5245 2.46353Z" fill="#FFB55A"/>
<path d="M60.5245 2.46353C60.6741 2.00287 61.3259 2.00287 61.4755 2.46353L63.1329 7.56434C63.1998 7.77035 63.3918 7.90983 63.6084 7.90983H68.9717C69.4561 7.90983 69.6575 8.52964 69.2656 8.81434L64.9266 11.9668C64.7514 12.0941 64.678 12.3198 64.745 12.5258L66.4023 17.6266C66.552 18.0873 66.0248 18.4704 65.6329 18.1857L61.2939 15.0332C61.1186 14.9059 60.8814 14.9059 60.7061 15.0332L56.3671 18.1857C55.9752 18.4704 55.448 18.0873 55.5977 17.6266L57.255 12.5258C57.322 12.3198 57.2486 12.0941 57.0734 11.9668L52.7344 8.81434C52.3425 8.52964 52.5439 7.90983 53.0283 7.90983H58.3916C58.6082 7.90983 58.8002 7.77035 58.8671 7.56434L60.5245 2.46353Z" fill="#FFB55A"/>
<path d="M110.524 2.46353C110.674 2.00287 111.326 2.00287 111.476 2.46353L113.133 7.56434C113.2 7.77035 113.392 7.90983 113.608 7.90983H118.972C119.456 7.90983 119.657 8.52964 119.266 8.81434L114.927 11.9668C114.751 12.0941 114.678 12.3198 114.745 12.5258L116.402 17.6266C116.552 18.0873 116.025 18.4704 115.633 18.1857L111.294 15.0332C111.119 14.9059 110.881 14.9059 110.706 15.0332L106.367 18.1857C105.975 18.4704 105.448 18.0873 105.598 17.6266L107.255 12.5258C107.322 12.3198 107.249 12.0941 107.073 11.9668L102.734 8.81434C102.343 8.52964 102.544 7.90983 103.028 7.90983H108.392C108.608 7.90983 108.8 7.77035 108.867 7.56434L110.524 2.46353Z" fill="#FFB55A"/>
</g>
<defs>
<filter id="filter0_d" x="0.527313" y="0.11792" width="124.945" height="24.1654" filterUnits="userSpaceOnUse" color-interpolation-filters="sRGB">
<feFlood flood-opacity="0" result="BackgroundImageFix"/>
<feColorMatrix in="SourceAlpha" type="matrix" values="0 0 0 0 0 0 0 0 0 0 0 0 0 0 0 0 0 0 127 0"/>
<feOffset dx="2" dy="2"/>
<feGaussianBlur stdDeviation="2"/>
<feColorMatrix type="matrix" values="0 0 0 0 0 0 0 0 0 0 0 0 0 0 0 0 0 0 0.2 0"/>
<feBlend mode="normal" in2="BackgroundImageFix" result="effect1_dropShadow"/>
<feBlend mode="normal" in="SourceGraphic" in2="effect1_dropShadow" result="shape"/>
</filter>
</defs>
</svg>
