<svg width="68" height="69" viewBox="0 0 68 69" fill="none" xmlns="http://www.w3.org/2000/svg">
<g clip-path="url(#clip0)">
<path d="M62.7151 27.3335C63.9464 26.1456 64.3811 24.4023 63.8499 22.7838C63.3185 21.1653 61.9314 20.008 60.2298 19.7634L45.3508 17.6236C45.0588 17.5817 44.8063 17.4002 44.6756 17.1381L38.0216 3.79458C37.2607 2.26853 35.7198 1.32056 34.0003 1.32056C32.2808 1.32056 30.7399 2.26853 29.979 3.79458L23.325 17.1382C23.1941 17.4002 22.9418 17.5817 22.6496 17.6237L7.77088 19.7634C6.06929 20.008 4.68233 21.1653 4.15081 22.7838C3.6193 24.4023 4.05413 26.1456 5.28556 27.3335L16.052 37.72C16.2633 37.924 16.3599 38.2178 16.3099 38.5057L13.7683 53.1717C13.4777 54.849 14.1612 56.5122 15.5522 57.5125C16.9433 58.513 18.7533 58.6422 20.275 57.8505L33.583 50.9262C33.8444 50.7902 34.1563 50.7902 34.4178 50.9262L47.7259 57.8505C48.3879 58.1949 49.1041 58.3651 49.8169 58.365C50.7426 58.365 51.6625 58.0779 52.4483 57.5123C53.8394 56.5119 54.523 54.8486 54.2323 53.1715L51.6906 38.5056C51.6408 38.2176 51.7373 37.9238 51.9486 37.7198L62.7151 27.3335ZM48.155 39.106L50.6967 53.7722C50.7817 54.263 50.4755 54.5429 50.3399 54.6403C50.2042 54.7376 49.8406 54.9396 49.3954 54.7077L36.0873 47.7834C35.434 47.4436 34.7173 47.2735 34.0006 47.2735C33.2838 47.2735 32.567 47.4436 31.9138 47.7833L18.6059 54.7075C18.1604 54.9392 17.7969 54.7374 17.6613 54.64C17.5257 54.5426 17.2194 54.2628 17.3046 53.772L19.8462 39.106C20.0957 37.6661 19.6138 36.1976 18.5565 35.1777L7.79001 24.7912C7.42969 24.4434 7.51123 24.039 7.56316 23.8812C7.61483 23.7234 7.78921 23.3486 8.28713 23.2771L23.1657 21.1373C24.6265 20.9273 25.8889 20.0198 26.5423 18.7095L33.1964 5.36586C33.4191 4.91934 33.8329 4.8711 34.0007 4.8711C34.1682 4.8711 34.582 4.91921 34.8049 5.36586V5.36599L41.4589 18.7096C42.1122 20.0199 43.3745 20.9274 44.8353 21.1375L59.7141 23.2772C60.212 23.3488 60.3863 23.7235 60.4381 23.8814C60.4899 24.0392 60.5715 24.4438 60.2111 24.7913L49.4447 35.1779C48.3875 36.1976 47.9055 37.6661 48.155 39.106Z" fill="#FFB55A"/>
<path d="M54.9555 3.78835C54.1538 3.2121 53.0322 3.38797 52.45 4.1811L50.5459 6.77474C49.9636 7.56787 50.1412 8.67817 50.9427 9.25442C51.2613 9.48326 51.6301 9.59354 51.9956 9.59354C52.5504 9.59354 53.0973 9.33972 53.4482 8.8618L55.3523 6.26816C55.9346 5.4749 55.757 4.36459 54.9555 3.78835Z" fill="#FFB55A"/>
<path d="M17.4462 6.7643L15.542 4.17066C14.9599 3.37779 13.8382 3.20192 13.0365 3.7779C12.2351 4.35415 12.0574 5.46445 12.6397 6.25758L14.5438 8.85122C14.8948 9.32954 15.4418 9.58323 15.9967 9.58323C16.3623 9.58323 16.7312 9.47295 17.0495 9.24397C17.8509 8.66786 18.0286 7.55756 17.4462 6.7643Z" fill="#FFB55A"/>
<path d="M6.58122 41.1451C6.27509 40.2127 5.26319 39.7024 4.32088 40.0053L1.24003 40.9961C0.297728 41.2991 -0.217717 42.3009 0.0884156 43.2332C0.33465 43.9836 1.03789 44.4605 1.79399 44.4605C1.97767 44.4605 2.16454 44.4322 2.34875 44.3729L5.4296 43.3821C6.37178 43.0791 6.88735 42.0777 6.58122 41.1451Z" fill="#FFB55A"/>
<path d="M34.0007 60.8558C33.0101 60.8558 32.207 61.6507 32.207 62.6311V65.8373C32.207 66.8177 33.0101 67.6125 34.0007 67.6125C34.9914 67.6125 35.7945 66.8177 35.7945 65.8373V62.6311C35.7945 61.6505 34.9915 60.8558 34.0007 60.8558Z" fill="#FFB55A"/>
<path d="M66.7601 40.9987L63.6793 40.0079C62.7374 39.7052 61.7251 40.2152 61.419 41.1478C61.1128 42.0804 61.6283 43.0818 62.5706 43.3848L65.6514 44.3756C65.8356 44.4348 66.0224 44.4629 66.206 44.4629C66.9623 44.4629 67.6655 43.9859 67.9118 43.2356C68.2179 42.3032 67.7023 41.3017 66.7601 40.9987Z" fill="#FFB55A"/>
</g>
<defs>
<clipPath id="clip0">
<rect width="68" height="67.299" fill="white" transform="translate(0 0.814453)"/>
</clipPath>
</defs>
</svg>
