<svg width="120" height="20" viewBox="0 0 120 20" fill="none" xmlns="http://www.w3.org/2000/svg">
<path d="M9.52447 1.46353C9.67415 1.00287 10.3259 1.00287 10.4755 1.46353L12.1329 6.56434C12.1998 6.77035 12.3918 6.90983 12.6084 6.90983H17.9717C18.4561 6.90983 18.6575 7.52964 18.2656 7.81434L13.9266 10.9668C13.7514 11.0941 13.678 11.3198 13.745 11.5258L15.4023 16.6266C15.552 17.0873 15.0248 17.4704 14.6329 17.1857L10.2939 14.0332C10.1186 13.9059 9.88135 13.9059 9.70611 14.0332L5.3671 17.1857C4.97524 17.4704 4.448 17.0873 4.59768 16.6266L6.25503 11.5258C6.32197 11.3198 6.24864 11.0941 6.07339 10.9668L1.73438 7.81434C1.34253 7.52964 1.54392 6.90983 2.02828 6.90983H7.39159C7.6082 6.90983 7.80018 6.77035 7.86712 6.56434L9.52447 1.46353Z" fill="#FFB55A"/>
<path d="M34.5245 1.46353C34.6741 1.00287 35.3259 1.00287 35.4755 1.46353L37.1329 6.56434C37.1998 6.77035 37.3918 6.90983 37.6084 6.90983H42.9717C43.4561 6.90983 43.6575 7.52964 43.2656 7.81434L38.9266 10.9668C38.7514 11.0941 38.678 11.3198 38.745 11.5258L40.4023 16.6266C40.552 17.0873 40.0248 17.4704 39.6329 17.1857L35.2939 14.0332C35.1186 13.9059 34.8814 13.9059 34.7061 14.0332L30.3671 17.1857C29.9752 17.4704 29.448 17.0873 29.5977 16.6266L31.255 11.5258C31.322 11.3198 31.2486 11.0941 31.0734 10.9668L26.7344 7.81434C26.3425 7.52964 26.5439 6.90983 27.0283 6.90983H32.3916C32.6082 6.90983 32.8002 6.77035 32.8671 6.56434L34.5245 1.46353Z" fill="#FFB55A"/>
<path d="M84.5245 1.46353C84.6741 1.00287 85.3259 1.00287 85.4755 1.46353L87.1329 6.56434C87.1998 6.77035 87.3918 6.90983 87.6084 6.90983H92.9717C93.4561 6.90983 93.6575 7.52964 93.2656 7.81434L88.9266 10.9668C88.7514 11.0941 88.678 11.3198 88.745 11.5258L90.4023 16.6266C90.552 17.0873 90.0248 17.4704 89.6329 17.1857L85.2939 14.0332C85.1186 13.9059 84.8814 13.9059 84.7061 14.0332L80.3671 17.1857C79.9752 17.4704 79.448 17.0873 79.5977 16.6266L81.255 11.5258C81.322 11.3198 81.2486 11.0941 81.0734 10.9668L76.7344 7.81434C76.3425 7.52964 76.5439 6.90983 77.0283 6.90983H82.3916C82.6082 6.90983 82.8002 6.77035 82.8671 6.56434L84.5245 1.46353Z" fill="#FFB55A"/>
<path d="M59.5245 1.46353C59.6741 1.00287 60.3259 1.00287 60.4755 1.46353L62.1329 6.56434C62.1998 6.77035 62.3918 6.90983 62.6084 6.90983H67.9717C68.4561 6.90983 68.6575 7.52964 68.2656 7.81434L63.9266 10.9668C63.7514 11.0941 63.678 11.3198 63.745 11.5258L65.4023 16.6266C65.552 17.0873 65.0248 17.4704 64.6329 17.1857L60.2939 14.0332C60.1186 13.9059 59.8814 13.9059 59.7061 14.0332L55.3671 17.1857C54.9752 17.4704 54.448 17.0873 54.5977 16.6266L56.255 11.5258C56.322 11.3198 56.2486 11.0941 56.0734 10.9668L51.7344 7.81434C51.3425 7.52964 51.5439 6.90983 52.0283 6.90983H57.3916C57.6082 6.90983 57.8002 6.77035 57.8671 6.56434L59.5245 1.46353Z" fill="#FFB55A"/>
<path d="M109.524 1.46353C109.674 1.00287 110.326 1.00287 110.476 1.46353L112.133 6.56434C112.2 6.77035 112.392 6.90983 112.608 6.90983H117.972C118.456 6.90983 118.657 7.52964 118.266 7.81434L113.927 10.9668C113.751 11.0941 113.678 11.3198 113.745 11.5258L115.402 16.6266C115.552 17.0873 115.025 17.4704 114.633 17.1857L110.294 14.0332C110.119 13.9059 109.881 13.9059 109.706 14.0332L105.367 17.1857C104.975 17.4704 104.448 17.0873 104.598 16.6266L106.255 11.5258C106.322 11.3198 106.249 11.0941 106.073 10.9668L101.734 7.81434C101.343 7.52964 101.544 6.90983 102.028 6.90983H107.392C107.608 6.90983 107.8 6.77035 107.867 6.56434L109.524 1.46353Z" fill="#EBE6E6"/>
</svg>
