<?xml version="1.0" encoding="UTF-8"?>
<!DOCTYPE svg PUBLIC "-//W3C//DTD SVG 1.1//EN" "http://www.w3.org/Graphics/SVG/1.1/DTD/svg11.dtd">
<!-- Creator: CorelDRAW 2017 -->
<svg xmlns="http://www.w3.org/2000/svg" xml:space="preserve" width="50px" height="44px" version="1.1" style="shape-rendering:geometricPrecision; text-rendering:geometricPrecision; image-rendering:optimizeQuality; fill-rule:evenodd; clip-rule:evenodd"
viewBox="0 0 50 43.79"
 xmlns:xlink="http://www.w3.org/1999/xlink">
 <defs>
  <style type="text/css">
   <![CDATA[
    .fil0 {fill:black}
   ]]>
  </style>
 </defs>
 <g id="Layer_x0020_1">
  <metadata id="CorelCorpID_0Corel-Layer"/>
  <g id="_2756445481088">
   <path class="fil0" d="M37.62 8.8l-20.56 12.67c-1.16,0.71 -1.71,2.13 -1.34,3.45l2.22 7.81c0.19,0.66 0.79,1.11 1.47,1.11 0.04,0 0.08,0 0.11,-0.01 0.73,-0.05 1.31,-0.59 1.41,-1.32l0.58 -4.28c0.07,-0.58 0.35,-1.11 0.78,-1.51l16.97 -15.77c0.51,-0.48 0.58,-1.26 0.15,-1.81 -0.42,-0.56 -1.19,-0.71 -1.79,-0.34zm-16.69 16.46c-0.76,0.71 -1.26,1.67 -1.4,2.7l-0.28 2.08 -1.61 -5.67c-0.13,-0.46 0.06,-0.96 0.47,-1.21l15.06 -9.28 -12.24 11.38z"/>
   <path class="fil0" d="M49.19 0.55c-0.65,-0.55 -1.53,-0.7 -2.32,-0.4l-45.4 17.52c-0.9,0.35 -1.47,1.19 -1.47,2.16 0.01,0.96 0.59,1.8 1.5,2.14l10.6 3.96 4.14 13.3c0.22,0.73 0.8,1.3 1.53,1.52 0.73,0.22 1.52,0.06 2.12,-0.42l6.16 -5.03c0.3,-0.24 0.72,-0.25 1.03,-0.03l11.12 8.08c0.4,0.29 0.87,0.44 1.35,0.44 0.28,0 0.56,-0.05 0.83,-0.16 0.73,-0.28 1.27,-0.91 1.42,-1.67l8.15 -39.19c0.17,-0.83 -0.12,-1.68 -0.76,-2.22zm-1.19 1.81l-8.15 39.19c-0.03,0.14 -0.13,0.2 -0.19,0.23 -0.05,0.02 -0.17,0.04 -0.29,-0.04l-11.12 -8.08c-0.5,-0.36 -1.08,-0.54 -1.66,-0.54 -0.64,0 -1.28,0.22 -1.8,0.64l-6.16 5.03c-0.11,0.09 -0.23,0.07 -0.29,0.05 -0.05,-0.01 -0.16,-0.06 -0.2,-0.2l-4.28 -13.77c-0.09,-0.29 -0.32,-0.53 -0.6,-0.64l-11.07 -4.13c-0.16,-0.06 -0.2,-0.19 -0.2,-0.28 0,-0.1 0.04,-0.23 0.2,-0.29l45.4 -17.52c0,0 0,0 0,0 0.15,-0.05 0.26,0.01 0.31,0.06 0.05,0.04 0.13,0.14 0.1,0.29z"/>
   <path class="fil0" d="M41.75 21.52c-0.54,-0.12 -1.07,0.22 -1.19,0.76l-0.15 0.7c-0.12,0.54 0.22,1.07 0.76,1.18 0.07,0.02 0.14,0.03 0.21,0.03 0.46,0 0.88,-0.32 0.98,-0.79l0.15 -0.7c0.11,-0.53 -0.23,-1.06 -0.76,-1.18z"/>
   <path class="fil0" d="M40.75 26.11c-0.54,-0.12 -1.07,0.22 -1.18,0.76l-2.3 10.55c-0.11,0.54 0.23,1.07 0.77,1.18 0.07,0.02 0.14,0.03 0.21,0.03 0.46,0 0.87,-0.32 0.97,-0.79l2.29 -10.55c0.12,-0.54 -0.22,-1.07 -0.76,-1.18z"/>
  </g>
 </g>
</svg>
