<svg width="50" height="50" viewBox="0 0 50 50" fill="none" xmlns="http://www.w3.org/2000/svg">
<path d="M42.6463 7.25586C37.9686 2.57813 31.7479 0 25.1365 0C19.9315 0 14.951 1.5918 10.7322 4.61914C10.2928 4.93164 10.1951 5.54688 10.5076 5.98633C10.8201 6.42578 11.4354 6.52344 11.8748 6.21094C15.7518 3.42773 20.3416 1.95312 25.1365 1.95312C37.7147 1.95312 47.949 12.1875 47.949 24.7656C47.949 37.3438 37.7147 47.5781 25.1365 47.5781C21.3084 47.5781 17.5096 46.6113 14.1795 44.7754C13.9549 44.6582 13.701 44.6191 13.4569 44.6875L2.57795 47.6367L5.5467 37.0605C5.61506 36.8066 5.58576 36.5332 5.44904 36.2988C3.40803 32.8125 2.32404 28.8281 2.32404 24.7656C2.32404 19.9707 3.79865 15.3809 6.57209 11.5039C6.88459 11.0645 6.78693 10.459 6.34748 10.1465C5.90803 9.83398 5.30256 9.93164 4.98029 10.3711C1.96272 14.5801 0.361153 19.5605 0.361153 24.7656C0.361153 29.0332 1.46467 33.2227 3.54475 36.9238L0.224434 48.7598C0.126778 49.1016 0.224434 49.4629 0.468575 49.707C0.654121 49.8926 0.908028 50 1.16193 50C1.24982 50 1.32795 49.9902 1.41584 49.9707L13.5838 46.6797C17.119 48.5449 21.1033 49.5312 25.1365 49.5312C31.7479 49.5312 37.9686 46.9531 42.6463 42.2754C47.324 37.5977 49.9022 31.377 49.9022 24.7656C49.9022 18.1543 47.324 11.9336 42.6463 7.25586Z" fill="#252526"/>
<path d="M41.1424 36.6016C41.5916 36.9043 42.1971 36.7773 42.4998 36.3281C44.785 32.9102 45.9959 28.9062 45.9959 24.7656C45.9959 19.1895 43.8279 13.9551 39.8826 10.0098C35.9373 6.06445 30.7029 3.90625 25.1365 3.90625C19.5701 3.90625 14.326 6.07422 10.3807 10.0195C6.43536 13.9648 4.2674 19.1992 4.2674 24.7754C4.2674 28.4863 5.25372 32.1289 7.11896 35.3125L7.75372 36.3867L5.83966 43.2031C5.742 43.5449 5.83966 43.9062 6.0838 44.1504C6.32794 44.3945 6.68927 44.502 7.03107 44.4043L14.0623 42.5L15.0975 43.0664C18.1443 44.7461 21.6111 45.625 25.117 45.625C29.2576 45.625 33.2518 44.4141 36.6893 42.1289C37.1385 41.8262 37.2557 41.2207 36.9627 40.7715C36.6697 40.3223 36.0545 40.2051 35.6053 40.498C32.4998 42.5684 28.8768 43.6719 25.117 43.6719C21.9432 43.6719 18.7986 42.8711 16.035 41.3574L14.658 40.5957C14.4334 40.4785 14.1795 40.4395 13.9354 40.5078L8.18341 42.0605L9.74591 36.5039C9.81427 36.25 9.78497 35.9766 9.64825 35.7422L8.80841 34.3066C7.11896 31.4258 6.22052 28.1152 6.22052 24.7559C6.22052 14.3457 14.7068 5.85938 25.1365 5.85938C35.5662 5.85938 44.0428 14.3457 44.0428 24.7656C44.0428 28.5156 42.949 32.1387 40.869 35.2539C40.5662 35.7031 40.6932 36.3086 41.1424 36.6016Z" fill="#252526"/>
<path d="M21.5623 21.7673L21.6306 21.6892C22.5095 20.7029 22.2849 19.5505 21.9431 18.7595C21.4451 17.5876 20.1267 14.5896 20.0095 14.3064C19.8142 13.8181 19.1697 13.0368 17.8709 13.0173C16.8552 12.9978 16.5232 13.0271 16.4451 13.0368C16.4353 13.0368 16.4256 13.0368 16.4256 13.0368C16.2791 13.0564 12.7634 13.6325 12.1482 18.8962C11.865 21.3181 12.9881 24.2087 15.4881 27.4802C18.2517 31.1033 20.781 33.2615 24.531 35.1755C26.3963 36.1325 29.1306 37.2458 31.6697 37.2458C31.7478 37.2458 31.8357 37.2458 31.9138 37.2458C34.7654 37.1579 36.2888 35.9763 37.0701 34.9997C37.8904 33.9548 38.0662 32.9392 38.0857 32.7536C38.1052 32.6365 38.1443 32.2849 38.1638 31.3572C38.2029 30.0583 37.451 29.3747 36.9724 29.1599C36.699 29.0232 33.906 27.6365 32.7634 27.0798C31.992 26.7087 30.8494 26.4939 29.824 27.5974C29.8142 27.6072 29.8142 27.6072 29.8045 27.6169C29.6677 27.7341 29.531 27.9197 29.1111 28.4763C28.8572 28.8181 28.3396 29.5017 28.1248 29.7361C27.6658 29.7654 26.1326 29.0915 23.9549 27.4021C22.5779 26.3376 21.1131 24.6872 20.3025 23.281C20.2927 23.2615 20.2927 23.2224 20.2927 23.2029C20.6345 22.8513 21.1814 22.2165 21.5623 21.7673ZM22.7634 28.9353C23.4177 29.4431 24.6873 30.3806 25.9275 31.0056C26.5134 31.2986 28.281 32.2068 29.3845 31.2302C29.6873 30.9665 30.117 30.4001 30.6931 29.6286C30.8592 29.404 31.0642 29.1404 31.1424 29.0427C31.1912 28.9939 31.24 28.9548 31.2791 28.906C31.4549 28.7107 31.533 28.6325 31.9236 28.8181C33.0955 29.3845 36.0349 30.8493 36.1424 30.8982C36.1814 30.9372 36.2302 31.0544 36.2302 31.2888C36.2107 32.0993 36.1814 32.3923 36.1717 32.4411C36.1717 32.4607 36.1717 32.4509 36.1717 32.4704C36.1619 32.5388 36.0349 33.1931 35.4978 33.8376C34.7361 34.7458 33.5252 35.2243 31.8748 35.2732C29.6775 35.3415 27.158 34.3064 25.4392 33.4177C21.9236 31.6306 19.658 29.697 17.0603 26.279C14.9119 23.4665 13.8963 20.9861 14.1111 19.1013C14.5213 15.5661 16.4549 15.0095 16.7185 14.9509C16.8064 14.9411 17.1189 14.9314 17.8513 14.9509C18.0857 14.9607 18.2029 15.0193 18.2322 15.0583C18.281 15.1657 19.658 18.3103 20.1756 19.5115C20.4295 20.1169 20.2732 20.2927 20.1951 20.3708C20.1853 20.3904 20.1658 20.4001 20.156 20.4099L20.0974 20.4782C19.531 21.1423 19.1404 21.5915 18.9158 21.8161C18.1931 22.5583 18.2615 23.5837 18.6326 24.2185C19.5506 25.8689 21.1814 27.7146 22.7634 28.9353Z" fill="#252526"/>
<path d="M8.31074 8.92573C8.54512 8.92573 8.77949 8.83784 8.96504 8.67183C9.36543 8.3105 9.39473 7.69526 9.0334 7.29487C8.67207 6.89448 8.05684 6.86519 7.65645 7.22651C7.25606 7.58784 7.22676 8.20308 7.58809 8.60347C7.7834 8.81831 8.04707 8.92573 8.31074 8.92573Z" fill="#252526"/>
<path d="M38.4668 38.174C38.1055 38.5744 38.1348 39.1897 38.5352 39.551C38.7207 39.717 38.9551 39.8049 39.1895 39.8049C39.4531 39.8049 39.7168 39.6975 39.9121 39.4826C40.2735 39.0822 40.2442 38.467 39.8438 38.1057C39.4434 37.7443 38.8281 37.7736 38.4668 38.174Z" fill="#252526"/>
</svg>
