<svg width="26" height="33" viewBox="0 0 26 33" fill="none" xmlns="http://www.w3.org/2000/svg">
<path d="M22.9039 33H3.09613C1.33663 33 -0.0468246 31.6146 0.10775 30.0083L1.93423 11.0333C2.07185 9.60334 3.35653 8.525 4.9226 8.525H6.77503V5.70625C6.77503 2.55977 9.5675 0 13 0C16.4326 0 19.225 2.55977 19.225 5.70625V8.525H21.0775C21.4088 8.525 21.6775 8.77126 21.6775 9.075C21.6775 9.37874 21.4088 9.625 21.0775 9.625H19.225V12.1C19.225 12.4037 18.9564 12.65 18.625 12.65C18.2937 12.65 18.025 12.4037 18.025 12.1V9.625H10.15C9.81868 9.625 9.55003 9.37874 9.55003 9.075C9.55003 8.77126 9.81868 8.525 10.15 8.525H18.025V5.70625C18.025 3.16635 15.7708 1.1 13 1.1C10.2292 1.1 7.97503 3.16635 7.97503 5.70625V12.1C7.97503 12.4037 7.70638 12.65 7.37503 12.65C7.04368 12.65 6.77503 12.4037 6.77503 12.1V9.625H4.9226C3.983 9.625 3.21215 10.272 3.12958 11.13L1.3031 30.105C1.21003 31.0718 2.03863 31.9 3.09613 31.9H22.9039C23.9627 31.9 24.79 31.0706 24.697 30.105L22.8705 11.13C22.8414 10.8274 23.0854 10.5605 23.4154 10.5338C23.7454 10.5073 24.0367 10.7308 24.0658 11.0333L25.8923 30.0083C26.047 31.615 24.6631 33 22.9039 33ZM9.55003 28.2563H5.20003C4.86868 28.2563 4.60003 28.5025 4.60003 28.8063C4.60003 29.11 4.86868 29.3563 5.20003 29.3563H9.55003C9.88138 29.3563 10.15 29.11 10.15 28.8063C10.15 28.5025 9.88138 28.2563 9.55003 28.2563ZM9.55003 25.5063H5.20003C4.86868 25.5063 4.60003 25.7525 4.60003 26.0562C4.60003 26.36 4.86868 26.6063 5.20003 26.6063H9.55003C9.88138 26.6063 10.15 26.36 10.15 26.0562C10.15 25.7525 9.88138 25.5063 9.55003 25.5063Z" fill="black"/>
</svg>
