<svg width="68" height="69" viewBox="0 0 68 69" fill="none" xmlns="http://www.w3.org/2000/svg">
<g clip-path="url(#clip0)">
<path d="M39.5503 65.6533C39.4978 65.6533 39.4454 65.6572 39.3936 65.6651C38.0981 65.854 36.7904 65.9489 35.4809 65.949C33.9075 65.9468 32.337 65.814 30.786 65.5521C30.7267 65.5427 30.6668 65.5378 30.6067 65.5376C30.3401 65.5373 30.0831 65.6363 29.8868 65.8148C29.6904 65.9934 29.5691 66.2385 29.5469 66.5014C29.5246 66.7644 29.6031 67.026 29.7667 67.2344C29.9303 67.4428 30.1671 67.5826 30.4301 67.6262C32.0987 67.9077 33.7882 68.0501 35.4809 68.0521C36.8944 68.052 38.3061 67.9492 39.7044 67.7445C39.969 67.7049 40.2087 67.568 40.3757 67.3611C40.5427 67.1541 40.6247 66.8925 40.6052 66.6283C40.5857 66.3642 40.4663 66.1171 40.2707 65.9363C40.0752 65.7555 39.8179 65.6545 39.5503 65.6533V65.6533Z" fill="#FFB55A"/>
<path d="M1.94429 43.4644C2.03905 43.727 2.23535 43.9417 2.49003 44.0611C2.61613 44.1203 2.75277 44.1543 2.89214 44.1611C3.03151 44.168 3.17088 44.1476 3.3023 44.1012C3.43372 44.0548 3.55461 43.9832 3.65807 43.8905C3.76153 43.7978 3.84554 43.6859 3.90529 43.5611C3.96504 43.4363 3.99937 43.3011 4.00632 43.1631C4.01327 43.0252 3.99269 42.8873 3.94578 42.7572C3.45879 41.4109 3.07085 40.0316 2.785 38.6299C2.42332 36.8398 2.24048 35.0189 2.23914 33.1934C2.23914 25.1359 5.87687 17.2322 12.22 11.5092C12.3252 11.4168 12.4108 11.3048 12.4719 11.1794C12.533 11.0541 12.5683 10.918 12.5759 10.7791C12.5834 10.6401 12.563 10.5011 12.5159 10.37C12.4687 10.2389 12.3958 10.1183 12.3012 10.0154C12.2066 9.91237 12.0924 9.82899 11.965 9.77004C11.8376 9.71109 11.6997 9.67775 11.5592 9.67194C11.4188 9.66613 11.2785 9.68797 11.1466 9.7362C11.0147 9.78443 10.8938 9.85809 10.7909 9.9529L10.7883 9.95422C9.13715 11.4433 7.63841 13.09 6.31382 14.8702C5.00571 16.629 3.88081 18.5143 2.95632 20.4973C2.03652 22.4736 1.3296 24.5404 0.847262 26.6633C-0.0787684 30.7339 -0.128094 34.9519 0.702496 39.0426C1.00783 40.5443 1.42285 42.0221 1.94429 43.4644V43.4644Z" fill="#FFB55A"/>
<path d="M18.441 6.9539C18.6146 6.95367 18.7855 6.91172 18.9391 6.83166C21.8519 5.30489 24.9739 4.20631 28.2067 3.57055C30.4168 3.1325 32.6651 2.91104 34.9191 2.90939C42.087 2.90808 49.0689 5.21491 54.5806 9.40269C60.2305 13.6983 63.9373 19.5251 65.2986 26.255C65.686 28.201 65.8791 30.18 65.875 32.1634C65.8611 35.8002 65.2787 39.4129 64.1484 42.8734C64.1059 43.0049 64.09 43.1435 64.1016 43.2811C64.1133 43.4187 64.1522 43.5527 64.2162 43.6754C64.2803 43.7981 64.3681 43.9071 64.4748 43.9962C64.5814 44.0852 64.7047 44.1526 64.8377 44.1944C64.9419 44.2279 65.0509 44.2448 65.1605 44.2444C65.386 44.245 65.6058 44.1743 65.7878 44.0426C65.9699 43.9109 66.1046 43.725 66.1725 43.5122C66.7671 41.6691 67.2222 39.7847 67.5338 37.8746C67.8414 35.9861 67.9972 34.0763 68 32.1634C68.0038 30.0414 67.7965 27.9241 67.3811 25.8423C66.6518 22.2173 65.2452 18.7589 63.2334 15.6449C61.2654 12.6035 58.7748 9.92635 55.8742 7.73468C52.9415 5.51234 49.658 3.7847 46.1563 2.62153C42.5355 1.41467 38.7397 0.80151 34.9191 0.806302C29.0021 0.811749 23.1753 2.24227 17.9417 4.97437C17.7326 5.08466 17.5667 5.26097 17.4705 5.47527C17.3742 5.68956 17.3531 5.92955 17.4105 6.15708C17.4679 6.3846 17.6005 6.58661 17.7872 6.73099C17.974 6.87537 18.2041 6.95383 18.441 6.9539V6.9539Z" fill="#FFB55A"/>
<path d="M14.8206 9.15241C15.1024 9.15224 15.3726 9.04128 15.5717 8.84396C15.7708 8.64663 15.8826 8.3791 15.8824 8.10021C15.8823 7.82132 15.7702 7.55393 15.5708 7.35685C15.3714 7.15977 15.1011 7.04915 14.8193 7.04932C14.6053 7.04868 14.3963 7.1129 14.2203 7.23334L14.2097 7.23991C14.0246 7.36832 13.8858 7.55176 13.8133 7.76359C13.7409 7.97542 13.7385 8.20461 13.8066 8.41785C13.8747 8.63109 14.0098 8.81729 14.1921 8.94938C14.3745 9.08148 14.5946 9.1526 14.8206 9.15241V9.15241Z" fill="#FFB55A"/>
<path d="M18.6218 20.4818C19.0323 20.4006 19.4549 20.4002 19.8655 20.4805C20.2762 20.5609 20.6668 20.7206 21.0151 20.9504C21.3634 21.1802 21.6625 21.4756 21.8954 21.8198C22.1283 22.164 22.2905 22.5503 22.3726 22.9565C22.4279 23.23 22.5907 23.4705 22.8252 23.6252C22.9413 23.7018 23.0715 23.755 23.2084 23.7818C23.3452 23.8085 23.4861 23.8084 23.6229 23.7813C23.7598 23.7542 23.8898 23.7007 24.0058 23.6238C24.1217 23.547 24.2212 23.4483 24.2986 23.3333C24.3759 23.2184 24.4297 23.0896 24.4568 22.9541C24.4838 22.8186 24.4837 22.6792 24.4563 22.5438C24.1666 21.1896 23.349 20.003 22.1809 19.2417C21.0128 18.4804 19.5884 18.2056 18.2169 18.4772C16.8454 18.7487 15.6375 19.5445 14.8552 20.692C14.0729 21.8395 13.7793 23.246 14.0383 24.6063C14.0954 24.878 14.2586 25.1164 14.4925 25.2694C14.7264 25.4225 15.012 25.4779 15.2869 25.4235C15.5619 25.3691 15.804 25.2093 15.9604 24.979C16.1168 24.7486 16.1749 24.4665 16.122 24.1939C16.0399 23.7877 16.0395 23.3695 16.1207 22.9631C16.2019 22.5567 16.3632 22.1701 16.5954 21.8254C16.8276 21.4807 17.1261 21.1846 17.4739 20.9541C17.8217 20.7236 18.212 20.5631 18.6225 20.4818H18.6218Z" fill="#FFB55A"/>
<path d="M43.6265 15.5325C44.4554 15.3684 45.3163 15.5369 46.0197 16.001C46.7231 16.4651 47.2114 17.1867 47.3772 18.0071C47.4046 18.1425 47.4586 18.2712 47.5363 18.386C47.6139 18.5007 47.7136 18.5992 47.8297 18.6758C47.9458 18.7524 48.076 18.8057 48.2129 18.8325C48.3498 18.8593 48.4906 18.8591 48.6275 18.8321C48.7643 18.805 48.8944 18.7515 49.0103 18.6747C49.1263 18.5978 49.2258 18.4992 49.3032 18.3843C49.3806 18.2694 49.4344 18.1405 49.4615 18.005C49.4885 17.8696 49.4884 17.7301 49.4611 17.5947C49.1847 16.2274 48.3709 15.0246 47.1986 14.2511C46.0262 13.4776 44.5915 13.1967 43.2098 13.4702C41.8282 13.7436 40.613 14.5491 39.8314 15.7093C39.0499 16.8696 38.766 18.2896 39.0423 19.6569C39.0697 19.7923 39.1237 19.9211 39.2014 20.0358C39.279 20.1506 39.3787 20.2491 39.4948 20.3257C39.6109 20.4023 39.7412 20.4555 39.878 20.4823C40.0149 20.5091 40.1558 20.509 40.2926 20.4819C40.4295 20.4548 40.5595 20.4013 40.6755 20.3245C40.7914 20.2476 40.8909 20.1489 40.9683 20.034C41.0457 19.9191 41.0995 19.7902 41.1266 19.6548C41.1537 19.5193 41.1535 19.3799 41.1262 19.2445C40.9604 18.4241 41.1307 17.5721 41.5996 16.876C42.0685 16.1799 42.7976 15.6966 43.6265 15.5325V15.5325Z" fill="#FFB55A"/>
<path d="M9.3492 33.5772C9.37642 33.7127 9.43037 33.8416 9.50797 33.9564C9.58557 34.0712 9.6853 34.1698 9.80144 34.2464C9.91758 34.323 10.0478 34.3762 10.1848 34.403C10.3217 34.4297 10.4627 34.4294 10.5995 34.4022C11.739 34.1931 12.8048 33.6969 13.694 32.9614C14.9098 36.3636 17.5643 39.1985 21.3266 41.0603C24.2534 42.5087 27.6204 43.2501 31.1236 43.2501C32.8031 43.2481 34.4784 43.0819 36.125 42.7542C41.3649 41.7171 45.9825 39.1612 49.1274 35.5574C51.8766 32.4069 53.2254 28.7796 53.0255 25.1764C53.6596 25.3759 54.3211 25.4766 54.9864 25.4749C55.4752 25.4736 55.9627 25.4245 56.4417 25.3283C56.7181 25.2736 56.9611 25.1125 57.1174 24.8804C57.2738 24.6483 57.3305 24.3643 57.2753 24.0908C57.22 23.8174 57.0572 23.5768 56.8228 23.4221C56.5883 23.2674 56.3013 23.2112 56.025 23.2659C52.7251 23.9187 51.2953 21.3414 51.2392 21.2377C51.1087 20.9925 50.8855 20.8081 50.6184 20.7248C50.3512 20.6416 50.0616 20.6661 49.8126 20.793C49.5636 20.92 49.3753 21.1391 49.2887 21.4028C49.2021 21.6664 49.2242 21.9532 49.3502 22.2008C49.7026 22.8424 50.1708 23.4146 50.7315 23.8892C52.1385 31.2464 45.4275 38.7686 35.7086 40.692C25.9898 42.6154 16.8717 38.2269 15.3116 30.8995C15.6446 30.248 15.8544 29.5416 15.9303 28.8153C15.942 28.6777 15.9262 28.5391 15.8839 28.4075C15.8415 28.276 15.7733 28.1539 15.6832 28.0484C15.5014 27.8353 15.2414 27.7025 14.9606 27.679C14.8215 27.6675 14.6815 27.6831 14.5486 27.725C14.4156 27.767 14.2923 27.8345 14.1857 27.9236C13.9704 28.1036 13.8362 28.3608 13.8125 28.6388C13.8007 28.763 13.4823 31.6867 10.1826 32.3398C9.90629 32.3945 9.66325 32.5557 9.50696 32.7877C9.35067 33.0198 9.29392 33.3038 9.3492 33.5772Z" fill="#FFB55A"/>
<path d="M64.2653 46.6137C63.0826 45.4404 61.6773 44.5098 60.1302 43.8755C58.5831 43.2412 56.9246 42.9156 55.25 42.9175H53.1901C52.6216 42.9182 52.0588 43.0298 51.5339 43.2461C51.024 43.4561 50.5589 43.7599 50.1633 44.1412C49.766 44.5214 49.4475 44.9745 49.2256 45.4754C48.9942 45.9956 48.8748 46.5579 48.875 47.1263C48.875 47.1473 48.875 47.1763 48.8763 47.2117C48.8911 47.9199 49.0862 48.613 49.4434 49.2268H41.4973C40.6761 49.2263 39.8846 49.5307 39.2793 50.0798C38.6649 50.6351 38.2965 51.4078 38.254 52.2302C38.2513 52.2881 38.25 52.3367 38.25 52.3814C38.2494 52.7835 38.3269 53.1821 38.4784 53.5552C37.9858 53.694 37.5325 53.9442 37.1543 54.286C36.5397 54.8412 36.1712 55.6139 36.129 56.4364C36.1263 56.4943 36.125 56.5416 36.125 56.5876C36.125 57.4243 36.4608 58.2266 37.0586 58.8183C37.6564 59.4099 38.4671 59.7422 39.3125 59.7422H40.557C40.4361 60.0799 40.3745 60.4355 40.375 60.7938C40.375 60.8529 40.3763 60.9029 40.379 60.9502C40.4233 61.7706 40.7916 62.541 41.4043 63.0953C41.7825 63.4372 42.2358 63.6874 42.7284 63.8262C42.5769 64.1993 42.4994 64.5978 42.5 65C42.5 65.0539 42.5013 65.1051 42.504 65.1564C42.5481 65.9769 42.9163 66.7474 43.5293 67.3015C44.1344 67.8511 44.926 68.1556 45.7473 68.1546H55.25C57.7725 68.1563 60.2387 67.4173 62.3365 66.031C64.4343 64.6448 66.0694 62.6737 67.0347 60.3672C67.9999 58.0608 68.252 55.5228 67.7591 53.0745C67.2661 50.6262 66.0502 48.3777 64.2653 46.6137V46.6137ZM62.7632 62.9718C61.7785 63.9508 60.6076 64.7271 59.318 65.2557C58.0284 65.7843 56.6458 66.0548 55.25 66.0515H45.7459C45.4568 66.0509 45.1784 65.9436 44.965 65.7505C44.8648 65.6621 44.7832 65.5549 44.7251 65.4351C44.6669 65.3153 44.6334 65.1853 44.6263 65.0525V65.046C44.625 65.0341 44.625 65.0184 44.625 65C44.6263 64.7215 44.7386 64.4547 44.9376 64.2578C45.1366 64.0608 45.4061 63.9497 45.6875 63.9484H52.0625C52.3443 63.9484 52.6145 63.8376 52.8138 63.6404C53.0131 63.4432 53.125 63.1758 53.125 62.8969C53.125 62.618 53.0131 62.3505 52.8138 62.1533C52.6145 61.9561 52.3443 61.8453 52.0625 61.8453H44.625C44.6049 61.8453 44.5852 61.8472 44.5655 61.8483L43.6209 61.8453C43.3322 61.8441 43.0541 61.7374 42.84 61.5456C42.7398 61.4569 42.6584 61.3494 42.6002 61.2294C42.5421 61.1094 42.5085 60.9792 42.5013 60.8464V60.8398C42.5 60.828 42.5 60.8122 42.5 60.7938C42.5013 60.5153 42.6136 60.2485 42.8126 60.0516C43.0116 59.8547 43.2811 59.7435 43.5625 59.7422H52.0625C52.3443 59.7422 52.6145 59.6314 52.8138 59.4342C53.0131 59.237 53.125 58.9696 53.125 58.6907C53.125 58.4118 53.0131 58.1443 52.8138 57.9471C52.6145 57.7499 52.3443 57.6391 52.0625 57.6391H39.3125C39.0311 57.6379 38.7616 57.5267 38.5626 57.3298C38.3636 57.1328 38.2513 56.8661 38.25 56.5876C38.25 56.5679 38.25 56.5521 38.2513 56.535C38.2584 56.4023 38.2919 56.2723 38.3501 56.1525C38.4082 56.0327 38.4898 55.9255 38.59 55.8371C38.8034 55.644 39.0818 55.5367 39.3709 55.536H52.0625C52.3443 55.536 52.6145 55.4253 52.8138 55.2281C53.0131 55.0309 53.125 54.7634 53.125 54.4845C53.125 54.2056 53.0131 53.9381 52.8138 53.7409C52.6145 53.5437 52.3443 53.433 52.0625 53.433H41.4375C41.1561 53.4317 40.8866 53.3205 40.6876 53.1236C40.4886 52.9267 40.3763 52.6599 40.375 52.3814C40.375 52.3696 40.375 52.3512 40.3763 52.3288C40.3835 52.1959 40.4171 52.0658 40.4752 51.9458C40.5334 51.8258 40.6148 51.7183 40.715 51.6295C40.9288 51.4374 41.2071 51.3306 41.4959 51.3299H56.3125C56.5943 51.3299 56.8645 51.2191 57.0638 51.0219C57.2631 50.8247 57.375 50.5572 57.375 50.2783C57.375 49.9994 57.2631 49.732 57.0638 49.5348C56.8645 49.3376 56.5943 49.2268 56.3125 49.2268H53.1237C52.5681 49.2242 52.0354 49.0074 51.6388 48.6223C51.2422 48.2371 51.0131 47.7141 51 47.1644V47.1263C51.0019 46.8498 51.06 46.5764 51.1709 46.3226C51.2818 46.0688 51.4432 45.8396 51.6455 45.6489C52.0587 45.247 52.6147 45.0214 53.1941 45.0206H55.25C57.3515 45.0205 59.4058 45.6372 61.1531 46.7926C62.9005 47.9481 64.2624 49.5904 65.0666 51.5119C65.8708 53.4334 66.0812 55.5478 65.6712 57.5876C65.2612 59.6275 64.2492 61.5012 62.7632 62.9718V62.9718Z" fill="#FFB55A"/>
<path d="M29.7473 60.941C29.7487 60.8858 29.75 60.8384 29.75 60.7938C29.7506 60.4355 29.6891 60.0798 29.568 59.7422H30.8125C31.6579 59.7422 32.4686 59.4098 33.0664 58.8182C33.6642 58.2266 34 57.4242 34 56.5876C34 56.5389 33.9987 56.489 33.996 56.439C33.9544 55.6157 33.5859 54.8419 32.9707 54.286C32.5923 53.9444 32.1391 53.6943 31.6466 53.5552C31.7981 53.182 31.8756 52.7835 31.875 52.3814C31.875 52.3301 31.8737 52.2802 31.871 52.2315C31.8291 51.4086 31.4606 50.6353 30.8457 50.0798C30.2404 49.5307 29.4489 49.2262 28.6277 49.2268H20.6816C21.0399 48.611 21.235 47.9156 21.2487 47.2052L21.25 47.1986V47.1263C21.2502 46.5579 21.1308 45.9956 20.8994 45.4754C20.6775 44.9745 20.359 44.5213 19.9617 44.1412C19.5661 43.7599 19.101 43.4561 18.5911 43.2461C18.0662 43.0298 17.5034 42.9182 16.9349 42.9175H12.75C9.36849 42.9175 6.12548 44.2469 3.73439 46.6134C1.3433 48.9798 0 52.1894 0 55.536C0 58.8827 1.3433 62.0923 3.73439 64.4587C6.12548 66.8251 9.36849 68.1546 12.75 68.1546H24.3777C25.199 68.1556 25.9906 67.8511 26.5957 67.3015C27.2103 66.7464 27.5788 65.9736 27.621 65.1511V65.1472C27.6237 65.0959 27.625 65.0486 27.625 64.9999C27.6256 64.5978 27.5481 64.1993 27.3966 63.8262C27.8892 63.6874 28.3425 63.4372 28.7207 63.0953C29.3353 62.5402 29.7038 61.7674 29.746 60.9449L29.7473 60.941ZM27.625 57.6391H17C16.7182 57.6391 16.448 57.7499 16.2487 57.9471C16.0494 58.1443 15.9375 58.4118 15.9375 58.6907C15.9375 58.9696 16.0494 59.237 16.2487 59.4342C16.448 59.6314 16.7182 59.7422 17 59.7422H26.5625C26.8439 59.7435 27.1134 59.8546 27.3124 60.0516C27.5114 60.2485 27.6237 60.5153 27.625 60.7938C27.625 60.8082 27.625 60.824 27.6237 60.8463C27.6165 60.9792 27.5829 61.1094 27.5248 61.2294C27.4666 61.3494 27.3852 61.4568 27.285 61.5456C27.0709 61.7373 26.7928 61.8441 26.5041 61.8453H17C16.7182 61.8453 16.448 61.9561 16.2487 62.1533C16.0494 62.3505 15.9375 62.618 15.9375 62.8968C15.9375 63.1757 16.0494 63.4432 16.2487 63.6404C16.448 63.8376 16.7182 63.9484 17 63.9484H24.4375C24.7189 63.9496 24.9884 64.0608 25.1874 64.2578C25.3864 64.4547 25.4987 64.7214 25.5 64.9999C25.5 65.0131 25.5 65.0328 25.4987 65.0565C25.4832 65.3231 25.3614 65.5727 25.16 65.7505C24.947 65.9433 24.669 66.0506 24.3804 66.0515H12.75C9.93207 66.0515 7.22956 64.9436 5.23699 62.9716C3.24442 60.9995 2.125 58.3249 2.125 55.536C2.125 52.7472 3.24442 50.0725 5.23699 48.1005C7.22956 46.1284 9.93207 45.0206 12.75 45.0206H16.9309C17.5103 45.0214 18.0663 45.247 18.4795 45.6489C18.6819 45.8396 18.8434 46.0687 18.9543 46.3225C19.0652 46.5764 19.1233 46.8497 19.125 47.1263V47.171C19.1102 47.7193 18.8804 48.2404 18.4843 48.6241C18.0882 49.0077 17.5569 49.2239 17.0027 49.2268H11.6875C11.4057 49.2268 11.1355 49.3375 10.9362 49.5347C10.7369 49.7319 10.625 49.9994 10.625 50.2783C10.625 50.5572 10.7369 50.8247 10.9362 51.0219C11.1355 51.2191 11.4057 51.3298 11.6875 51.3298H19.125C19.1605 51.3298 19.1959 51.328 19.2313 51.3245L28.6291 51.3298C28.9178 51.3308 29.196 51.4376 29.41 51.6295C29.5102 51.7183 29.5916 51.8258 29.6498 51.9458C29.7079 52.0658 29.7415 52.1959 29.7487 52.3288C29.75 52.3472 29.75 52.3656 29.75 52.3814C29.7487 52.6599 29.6364 52.9266 29.4374 53.1236C29.2384 53.3205 28.9689 53.4317 28.6875 53.4329H17C16.7182 53.4329 16.448 53.5437 16.2487 53.7409C16.0494 53.9381 15.9375 54.2056 15.9375 54.4845C15.9375 54.7634 16.0494 55.0308 16.2487 55.228C16.448 55.4252 16.7182 55.536 17 55.536H28.6875C28.7255 55.536 28.7634 55.5339 28.8012 55.5299L30.7535 55.536C31.0426 55.5369 31.321 55.6442 31.5345 55.837C31.6347 55.9255 31.7163 56.0327 31.7744 56.1525C31.8325 56.2723 31.8661 56.4023 31.8731 56.535C31.8745 56.5508 31.8745 56.5679 31.8745 56.5876C31.8732 56.8661 31.7609 57.1328 31.5619 57.3298C31.3629 57.5267 31.0934 57.6379 30.812 57.6391H27.625Z" fill="#FFB55A"/>
</g>
<defs>
<clipPath id="clip0">
<rect width="68" height="67.299" fill="white" transform="translate(0 0.855713)"/>
</clipPath>
</defs>
</svg>
