<svg width="107" height="65" viewBox="0 0 107 65" fill="none" xmlns="http://www.w3.org/2000/svg">
<g clip-path="url(#clip0)">
<path d="M61.1085 28.1268C61.1085 28.4414 61.1361 28.7064 61.1913 28.9217C61.2465 29.1369 61.3431 29.2446 61.4811 29.2446C61.5639 29.2446 61.6522 29.2059 61.746 29.1287C61.8454 29.0459 61.9585 28.9134 62.0855 28.7312C62.2125 28.5491 62.356 28.3145 62.516 28.0275C62.6816 27.7349 62.8693 27.3789 63.0791 26.9594L63.3275 26.446L63.6669 26.7027L63.4185 27.216C63.1867 27.6797 62.9687 28.0965 62.7644 28.4663C62.5657 28.8306 62.3753 29.1397 62.1931 29.3936C62.011 29.6475 61.8316 29.8435 61.655 29.9815C61.4838 30.1139 61.3127 30.1802 61.1416 30.1802C60.9595 30.1802 60.8049 30.1305 60.678 30.0311C60.5565 29.9318 60.4544 29.7966 60.3716 29.6254C60.2888 29.4488 60.2253 29.2473 60.1812 29.021C60.137 28.7892 60.1067 28.5436 60.0901 28.2841C59.9576 28.5491 59.8113 28.7975 59.6513 29.0293C59.4912 29.2556 59.3228 29.4543 59.1462 29.6254C58.9751 29.7966 58.7957 29.9318 58.608 30.0311C58.4204 30.1305 58.2327 30.1802 58.045 30.1802C57.769 30.1802 57.5013 30.1222 57.2419 30.0063C56.9824 29.8904 56.7506 29.7138 56.5464 29.4764C56.3477 29.2391 56.1876 28.941 56.0662 28.5822C55.9447 28.2179 55.884 27.7901 55.884 27.2988C55.884 26.7248 55.9585 26.2004 56.1076 25.7257C56.2566 25.2455 56.4581 24.8343 56.712 24.492C56.9659 24.1443 57.2584 23.8766 57.5896 23.6889C57.9208 23.4957 58.2686 23.3991 58.6329 23.3991C58.8537 23.3991 59.0579 23.4488 59.2456 23.5481C59.4332 23.6475 59.5961 23.7689 59.7341 23.9125C59.8776 24.0504 59.9963 24.1995 60.0901 24.3596C60.1839 24.5141 60.2474 24.6466 60.2805 24.757L60.3799 23.9539C60.3909 23.849 60.4406 23.7607 60.5289 23.6889C60.6228 23.6171 60.7249 23.5619 60.8353 23.5233C60.9457 23.4791 61.0533 23.4488 61.1582 23.4322C61.263 23.4102 61.3376 23.3991 61.3817 23.3991C61.448 23.3991 61.4921 23.4102 61.5142 23.4322C61.5363 23.4543 61.5473 23.4985 61.5473 23.5647C61.5473 23.6475 61.5225 23.8159 61.4728 24.0698C61.4286 24.3182 61.379 24.6383 61.3238 25.0302C61.2741 25.4166 61.2244 25.872 61.1747 26.3964C61.1306 26.9207 61.1085 27.4976 61.1085 28.1268ZM60.1977 25.941C60.1977 25.6871 60.1591 25.4387 60.0818 25.1958C60.0045 24.9474 59.8997 24.7294 59.7672 24.5417C59.6347 24.3485 59.4802 24.194 59.3035 24.078C59.1324 23.9621 58.9503 23.9042 58.7571 23.9042C58.5197 23.9042 58.2962 23.9732 58.0864 24.1112C57.8822 24.2436 57.7028 24.4341 57.5482 24.6825C57.3992 24.9253 57.2805 25.2206 57.1922 25.5684C57.1039 25.9106 57.0597 26.2887 57.0597 26.7027C57.0597 27.5307 57.1894 28.1627 57.4489 28.5988C57.7083 29.0293 58.0533 29.2446 58.4838 29.2446C58.6715 29.2446 58.8647 29.1701 59.0634 29.021C59.2676 28.8665 59.4526 28.6484 59.6182 28.3669C59.7893 28.0799 59.9273 27.7321 60.0321 27.3237C60.1425 26.9152 60.1977 26.4543 60.1977 25.941ZM68.1628 27.2988C68.1628 27.6742 68.1048 28.0357 67.9889 28.3835C67.8785 28.7257 67.7129 29.0321 67.4921 29.3025C67.2769 29.5675 67.0064 29.78 66.6807 29.9401C66.3606 30.1001 65.9935 30.1802 65.5795 30.1802C65.2815 30.1802 65.0137 30.1333 64.7764 30.0394C64.5446 29.9401 64.3459 29.8103 64.1803 29.6503C64.0147 29.4847 63.8877 29.2998 63.7994 29.0955C63.7111 28.8858 63.6669 28.6705 63.6669 28.4497C63.6669 28.2289 63.7083 28.0247 63.7911 27.837C63.8794 27.6438 63.9953 27.481 64.1389 27.3485C64.2879 27.2105 64.4562 27.1029 64.6439 27.0256C64.8316 26.9483 65.0303 26.9097 65.2401 26.9097C65.3725 26.9097 65.5105 26.9263 65.654 26.9594V27.1995C65.4774 27.1995 65.3035 27.2354 65.1324 27.3071C64.9668 27.3789 64.8178 27.4782 64.6853 27.6052C64.5584 27.7266 64.4562 27.8757 64.379 28.0523C64.3017 28.2234 64.2631 28.4083 64.2631 28.607C64.2631 28.9713 64.3873 29.2639 64.6356 29.4847C64.8896 29.7 65.2345 29.8076 65.6706 29.8076C65.8914 29.8076 66.0929 29.7662 66.275 29.6834C66.4572 29.5951 66.6117 29.4764 66.7387 29.3274C66.8712 29.1728 66.9705 28.9907 67.0368 28.7809C67.1085 28.5712 67.1444 28.3421 67.1444 28.0937C67.1444 27.8563 67.0975 27.6356 67.0036 27.4313C66.9098 27.2271 66.7856 27.0339 66.631 26.8517C66.4765 26.6696 66.2999 26.4985 66.1011 26.3384C65.908 26.1783 65.7092 26.0265 65.505 25.883C65.3063 25.734 65.1103 25.5905 64.9172 25.4525C64.724 25.3145 64.5556 25.1765 64.4121 25.0385L63.5841 26.8766L63.2447 26.6199L64.0892 24.7735C63.8849 24.5803 63.7332 24.3982 63.6338 24.2271C63.54 24.0504 63.493 23.8407 63.493 23.5978C63.493 23.4653 63.5151 23.3412 63.5593 23.2252C63.609 23.1038 63.6724 23.0017 63.7497 22.9189C63.8325 22.8306 63.9263 22.7616 64.0312 22.7119C64.1361 22.6622 64.2465 22.6374 64.3624 22.6374C64.5722 22.6374 64.7295 22.6981 64.8344 22.8195C64.9392 22.9354 64.9917 23.0817 64.9917 23.2584C64.9917 23.3412 64.9834 23.4295 64.9668 23.5233C64.9503 23.6116 64.9282 23.7027 64.9006 23.7965C64.8785 23.8849 64.8537 23.9677 64.8261 24.0449C64.804 24.1222 64.7847 24.1884 64.7681 24.2436C64.9337 24.3706 65.1324 24.4948 65.3643 24.6162C65.5961 24.7321 65.8362 24.8536 66.0846 24.9805C66.3385 25.1075 66.5896 25.2455 66.838 25.3945C67.0864 25.5436 67.3072 25.7091 67.5004 25.8913C67.6991 26.0735 67.8592 26.2804 67.9806 26.5123C68.1021 26.7441 68.1628 27.0063 68.1628 27.2988ZM64.379 23.01C64.3017 23.01 64.2382 23.0376 64.1885 23.0928C64.1444 23.1424 64.1223 23.2114 64.1223 23.2998C64.1223 23.3991 64.1471 23.5095 64.1968 23.6309C64.2465 23.7524 64.3348 23.8711 64.4618 23.987C64.517 23.8711 64.5584 23.7579 64.586 23.6475C64.6191 23.5371 64.6356 23.4267 64.6356 23.3163C64.6356 23.228 64.6108 23.1562 64.5611 23.101C64.517 23.0403 64.4562 23.01 64.379 23.01ZM69.264 26.5371L69.1812 26.7027L69.0984 26.8766L68.7589 26.6199L68.8417 26.446C68.9797 26.1645 69.0929 25.883 69.1812 25.6015C69.275 25.3145 69.3495 25.0468 69.4047 24.7984C69.4655 24.55 69.5151 24.332 69.5538 24.1443C69.5924 23.9566 69.6311 23.8214 69.6697 23.7386C69.7028 23.6723 69.7497 23.6199 69.8104 23.5813C69.8767 23.5371 69.9429 23.5012 70.0092 23.4736C70.0809 23.446 70.1472 23.4267 70.2079 23.4157C70.2741 23.4046 70.321 23.3991 70.3486 23.3991C70.4701 23.3991 70.5501 23.424 70.5887 23.4736C70.6329 23.5233 70.655 23.6116 70.655 23.7386C70.655 23.7993 70.6412 23.9511 70.6136 24.194C70.5915 24.4313 70.5639 24.7321 70.5308 25.0964C70.5032 25.4552 70.4756 25.8609 70.448 26.3136C70.4259 26.7607 70.4149 27.2243 70.4149 27.7045C70.4149 28.0523 70.4314 28.3283 70.4645 28.5325C70.4977 28.7312 70.5391 28.8803 70.5887 28.9796C70.6439 29.079 70.7019 29.1425 70.7626 29.1701C70.8288 29.1977 70.8951 29.2115 70.9613 29.2115C71.0496 29.2115 71.149 29.1728 71.2594 29.0955C71.3698 29.0183 71.4995 28.883 71.6485 28.6898C71.7976 28.4911 71.9687 28.2262 72.1619 27.895C72.3551 27.5583 72.5814 27.1333 72.8408 26.6199L72.9319 26.446L73.2714 26.7027L73.1803 26.8766C72.9705 27.285 72.7608 27.688 72.551 28.0854C72.3468 28.4828 72.137 28.8361 71.9218 29.1452C71.712 29.4543 71.4995 29.7055 71.2842 29.8987C71.069 30.0863 70.8537 30.1802 70.6384 30.1802C70.4121 30.1802 70.2162 30.136 70.0506 30.0477C69.8905 29.9539 69.7552 29.8021 69.6449 29.5923C69.54 29.3826 69.4599 29.1066 69.4047 28.7643C69.3551 28.4166 69.3302 27.9888 69.3302 27.481C69.3302 27.3375 69.3302 27.1884 69.3302 27.0339C69.3302 26.8738 69.3357 26.7082 69.3468 26.5371H69.264ZM70.9613 21.7018C70.9613 21.895 70.8951 22.0578 70.7626 22.1903C70.6357 22.3172 70.4756 22.3807 70.2824 22.3807C70.0947 22.3807 69.9346 22.3172 69.8022 22.1903C69.6697 22.0578 69.6035 21.895 69.6035 21.7018C69.6035 21.5141 69.6697 21.354 69.8022 21.2216C69.9346 21.0891 70.0947 21.0228 70.2824 21.0228C70.4756 21.0228 70.6357 21.0891 70.7626 21.2216C70.8951 21.354 70.9613 21.5141 70.9613 21.7018ZM74.712 29.1287C74.8114 29.1287 74.9245 29.0652 75.0515 28.9382C75.184 28.8057 75.3247 28.6264 75.4738 28.4C75.6228 28.1737 75.7801 27.9088 75.9457 27.6052C76.1113 27.3016 76.2824 26.9732 76.459 26.6199L76.5418 26.446L76.8813 26.7027L76.7985 26.8766C76.506 27.4617 76.2438 27.964 76.0119 28.3835C75.7856 28.7975 75.5731 29.1397 75.3744 29.4102C75.1757 29.6751 74.9853 29.8711 74.8031 29.998C74.6265 30.1195 74.4443 30.1802 74.2566 30.1802C74.0082 30.1802 73.793 30.1001 73.6108 29.9401C73.4342 29.7745 73.2852 29.5012 73.1637 29.1204C73.0478 28.734 72.9622 28.2262 72.907 27.5969C72.8463 26.9677 72.816 26.1894 72.816 25.262C72.816 23.9483 72.8712 22.8223 72.9816 21.8839C73.092 20.94 73.241 20.1673 73.4287 19.5656C73.6219 18.9584 73.8427 18.5141 74.091 18.2326C74.345 17.9456 74.6099 17.802 74.8859 17.802C75.0515 17.802 75.1895 17.871 75.2999 18.009C75.4158 18.1415 75.4738 18.3844 75.4738 18.7376C75.4738 19.0136 75.4517 19.3283 75.4075 19.6815C75.3634 20.0348 75.3054 20.4129 75.2336 20.8158C75.1619 21.2188 75.0763 21.6383 74.977 22.0744C74.8776 22.5049 74.7727 22.9354 74.6623 23.366C74.5519 23.791 74.4388 24.2105 74.3229 24.6245C74.207 25.033 74.0938 25.4166 73.9834 25.7754C74.0165 26.4543 74.0524 27.0118 74.091 27.4479C74.1352 27.8784 74.1849 28.2179 74.2401 28.4663C74.3008 28.7147 74.3698 28.8885 74.4471 28.9879C74.5243 29.0817 74.6127 29.1287 74.712 29.1287ZM74.9356 18.9364C74.9356 18.8204 74.9218 18.7294 74.8942 18.6631C74.8666 18.5969 74.8224 18.5638 74.7617 18.5638C74.701 18.5638 74.6403 18.6493 74.5795 18.8204C74.5188 18.9916 74.4581 19.2234 74.3974 19.5159C74.3422 19.8085 74.2898 20.148 74.2401 20.5343C74.1959 20.9207 74.1545 21.3319 74.1159 21.768C74.0772 22.1986 74.0469 22.6401 74.0248 23.0928C74.0027 23.5454 73.9889 23.9814 73.9834 24.401C74.1159 23.9152 74.2373 23.4184 74.3477 22.9106C74.4636 22.3973 74.5657 21.9005 74.6541 21.4203C74.7424 20.94 74.8114 20.4874 74.8611 20.0624C74.9107 19.6319 74.9356 19.2565 74.9356 18.9364ZM77.0635 23.6309C77.0855 23.5757 77.138 23.5316 77.2208 23.4985C77.3036 23.4653 77.3919 23.4433 77.4857 23.4322C77.5796 23.4157 77.6679 23.4074 77.7507 23.4074C77.8335 23.4019 77.8887 23.3991 77.9163 23.3991C77.9991 23.3991 78.0515 23.4212 78.0736 23.4653C78.1012 23.504 78.115 23.5675 78.115 23.6558C78.115 23.6999 78.1012 23.7993 78.0736 23.9539C78.046 24.1029 78.0101 24.2906 77.9659 24.5169C77.9273 24.7432 77.8831 24.9999 77.8335 25.2869C77.7893 25.5739 77.7451 25.8692 77.701 26.1728C77.6623 26.4764 77.6292 26.7855 77.6016 27.1001C77.574 27.4092 77.5602 27.7018 77.5602 27.9778C77.5602 28.458 77.6403 28.8195 77.8003 29.0624C77.9604 29.2998 78.1453 29.4184 78.3551 29.4184C78.7194 29.4184 79.0423 29.1507 79.3238 28.6153C79.6053 28.0799 79.8979 27.2961 80.2015 26.2639V23.8545C80.2015 23.7607 80.2429 23.6861 80.3256 23.6309C80.414 23.5702 80.5133 23.5233 80.6237 23.4902C80.7341 23.4571 80.8417 23.435 80.9466 23.424C81.0515 23.4074 81.126 23.3991 81.1702 23.3991C81.3413 23.3991 81.4268 23.4847 81.4268 23.6558C81.4268 23.7165 81.4213 23.8186 81.4103 23.9621C81.4048 24.1001 81.3965 24.2657 81.3854 24.4589C81.3744 24.6466 81.3634 24.8563 81.3523 25.0882C81.3468 25.3145 81.3441 25.5436 81.3441 25.7754V29.1452C81.4434 29.0183 81.5676 28.8499 81.7166 28.6402C81.8712 28.4304 82.0285 28.2069 82.1886 27.9695C82.3542 27.7321 82.5115 27.4948 82.6605 27.2574C82.8151 27.0201 82.9393 26.8076 83.0331 26.6199L83.1242 26.446L83.4637 26.7027L83.3726 26.8766C83.2567 27.1084 83.1187 27.3485 82.9586 27.5969C82.7985 27.8453 82.6274 28.0965 82.4452 28.3504C82.2686 28.5988 82.0837 28.8471 81.8905 29.0955C81.7028 29.3384 81.5207 29.5702 81.3441 29.791V31.6208C81.3441 32.1287 81.2971 32.5592 81.2033 32.9125C81.115 33.2713 80.9908 33.561 80.8307 33.7818C80.6706 34.0082 80.483 34.171 80.2677 34.2703C80.0524 34.3697 79.8178 34.4194 79.5639 34.4194C79.4038 34.4194 79.2548 34.3945 79.1168 34.3449C78.9843 34.2952 78.8684 34.2207 78.7691 34.1213C78.6697 34.0275 78.5924 33.9116 78.5372 33.7736C78.482 33.6411 78.4544 33.4893 78.4544 33.3182C78.4544 33.0698 78.4986 32.8214 78.5869 32.573C78.6808 32.3246 78.8077 32.0679 78.9678 31.803C79.1334 31.538 79.3238 31.2648 79.5391 30.9833C79.7544 30.7073 79.9862 30.4175 80.2346 30.1139V27.6052C80.0966 27.9805 79.9475 28.3283 79.7875 28.6484C79.6274 28.9631 79.4535 29.2335 79.2658 29.4598C79.0782 29.6862 78.8767 29.8628 78.6614 29.9897C78.4462 30.1167 78.2143 30.1802 77.9659 30.1802C77.7893 30.1802 77.6072 30.1526 77.4195 30.0974C77.2373 30.0367 77.0662 29.929 76.9061 29.7745C76.7516 29.6199 76.6246 29.4129 76.5253 29.1535C76.4259 28.8885 76.3762 28.5518 76.3762 28.1434C76.3762 27.6797 76.4038 27.2078 76.459 26.7275C76.5142 26.2473 76.5777 25.8002 76.6495 25.3862C76.7267 24.9723 76.804 24.6107 76.8813 24.3016C76.9586 23.987 77.0193 23.7634 77.0635 23.6309ZM79.4728 33.9143C79.5612 33.9143 79.6495 33.895 79.7378 33.8564C79.8316 33.8232 79.9144 33.7432 79.9862 33.6162C80.0579 33.4893 80.1159 33.3016 80.1601 33.0532C80.2097 32.8048 80.2346 32.4681 80.2346 32.0431V30.7929C80.0469 31.0247 79.873 31.2483 79.713 31.4635C79.5584 31.6843 79.4232 31.8968 79.3072 32.1011C79.1913 32.3108 79.1003 32.5123 79.034 32.7055C78.9678 32.8987 78.9347 33.0863 78.9347 33.2685C78.9347 33.4396 78.9816 33.5886 79.0754 33.7156C79.1693 33.8481 79.3017 33.9143 79.4728 33.9143ZM86.5271 28.3835C86.4995 28.4276 86.4581 28.5049 86.4029 28.6153C86.3533 28.7202 86.287 28.8389 86.2042 28.9713C86.127 29.1038 86.0331 29.2418 85.9227 29.3853C85.8178 29.5288 85.6964 29.6586 85.5584 29.7745C85.4204 29.8904 85.2659 29.987 85.0947 30.0643C84.9292 30.1415 84.7442 30.1802 84.54 30.1802C84.3799 30.1802 84.2143 30.1471 84.0432 30.0808C83.8721 30.0146 83.712 29.8931 83.563 29.7165C83.4195 29.5399 83.3008 29.2998 83.207 28.9962C83.1131 28.6871 83.0662 28.2896 83.0662 27.8039C83.0662 27.3402 83.0828 26.8766 83.1159 26.4129C83.149 25.9437 83.1877 25.516 83.2318 25.1296C83.2815 24.7432 83.3284 24.4203 83.3726 24.1608C83.4167 23.9014 83.4499 23.7441 83.4719 23.6889C83.494 23.6392 83.5382 23.5951 83.6044 23.5564C83.6706 23.5178 83.7452 23.4874 83.828 23.4653C83.9163 23.4433 84.0046 23.4267 84.0929 23.4157C84.1867 23.4046 84.2668 23.3991 84.333 23.3991C84.4213 23.3991 84.4903 23.4212 84.54 23.4653C84.5952 23.5095 84.6228 23.584 84.6228 23.6889C84.6228 23.7386 84.6118 23.8379 84.5897 23.987C84.5731 24.1305 84.551 24.3071 84.5235 24.5169C84.4959 24.7266 84.4655 24.9585 84.4324 25.2124C84.4048 25.4663 84.3772 25.7257 84.3496 25.9907C84.322 26.2501 84.2971 26.5095 84.2751 26.7689C84.2585 27.0229 84.2502 27.2547 84.2502 27.4644C84.2502 28.0661 84.3137 28.5132 84.4407 28.8057C84.5731 29.0983 84.7884 29.2446 85.0865 29.2446C85.3404 29.2446 85.5971 29.0597 85.8565 28.6898C86.1214 28.32 86.3505 27.7818 86.5437 27.0753C86.5713 26.7772 86.5961 26.4598 86.6182 26.1231C86.6458 25.7809 86.6707 25.458 86.6927 25.1544C86.7148 24.8453 86.7341 24.5693 86.7507 24.3264C86.7728 24.0836 86.7921 23.9097 86.8086 23.8048C86.8252 23.7275 86.8694 23.6641 86.9411 23.6144C87.0129 23.5592 87.0929 23.5178 87.1812 23.4902C87.2751 23.4571 87.3634 23.435 87.4462 23.424C87.5345 23.4074 87.6007 23.3991 87.6449 23.3991C87.7387 23.3991 87.8022 23.4212 87.8353 23.4653C87.874 23.504 87.8933 23.5675 87.8933 23.6558C87.8933 23.7331 87.885 23.8821 87.8684 24.1029C87.8574 24.3182 87.8408 24.5721 87.8188 24.8646C87.8022 25.1516 87.7829 25.4608 87.7608 25.7919C87.7387 26.1231 87.7167 26.4433 87.6946 26.7524C87.678 27.056 87.6615 27.332 87.6449 27.5804C87.6339 27.8287 87.6283 28.0164 87.6283 28.1434C87.6283 28.5187 87.6477 28.814 87.6863 29.0293C87.7305 29.2446 87.8243 29.3522 87.9678 29.3522C88.0727 29.3522 88.1858 29.286 88.3073 29.1535C88.4342 29.0155 88.5695 28.8251 88.713 28.5822C88.862 28.3393 89.0221 28.0523 89.1932 27.7211C89.3643 27.3844 89.5492 27.0173 89.7479 26.6199L89.8307 26.446L90.1702 26.7027L90.0874 26.8766C89.8225 27.401 89.5879 27.8701 89.3836 28.2841C89.1849 28.6926 88.9945 29.0376 88.8123 29.3191C88.6302 29.6006 88.4453 29.8159 88.2576 29.9649C88.0699 30.1084 87.8602 30.1802 87.6283 30.1802C87.4131 30.1802 87.2337 30.1388 87.0902 30.056C86.9522 29.9732 86.8418 29.8545 86.759 29.7C86.6762 29.5454 86.6155 29.3577 86.5768 29.1369C86.5437 28.9161 86.5271 28.665 86.5271 28.3835ZM96.8436 26.7027L96.7608 26.8766C96.529 27.3402 96.3082 27.7735 96.0985 28.1765C95.8887 28.5794 95.679 28.9299 95.4692 29.228C95.2594 29.5261 95.0442 29.7607 94.8234 29.9318C94.6081 30.0974 94.3763 30.1802 94.1279 30.1802C93.8795 30.1802 93.6366 30.1139 93.3993 29.9815C93.1619 29.849 92.9246 29.6641 92.6872 29.4267C92.4554 29.1894 92.2208 28.9134 91.9835 28.5988C91.7516 28.2786 91.5115 27.9309 91.2631 27.5555L90.9733 27.6052C90.9623 28.0909 90.9457 28.5298 90.9237 28.9217C90.9016 29.308 90.874 29.6254 90.8409 29.8738C90.8243 29.9842 90.7774 30.0643 90.7001 30.1139C90.6283 30.1581 90.529 30.1802 90.402 30.1802C90.253 30.1802 90.1288 30.1609 90.0294 30.1222C89.9301 30.0836 89.8528 30.0367 89.7976 29.9815C89.7369 29.9207 89.6955 29.8573 89.6734 29.791C89.6458 29.7193 89.632 29.6503 89.632 29.584C89.632 29.2308 89.69 28.7919 89.8059 28.2676V23.987C89.8059 22.9272 89.8611 22.0109 89.9715 21.2381C90.0819 20.4598 90.2309 19.8168 90.4186 19.3089C90.6063 18.7956 90.8243 18.4175 91.0727 18.1746C91.3266 17.9262 91.5943 17.802 91.8758 17.802C92.1794 17.802 92.3947 17.9014 92.5216 18.1001C92.6541 18.2933 92.7203 18.561 92.7203 18.9032C92.7203 19.2013 92.6762 19.5849 92.5879 20.0541C92.4996 20.5178 92.3754 21.0284 92.2153 21.5859C92.0607 22.1434 91.8786 22.7257 91.6688 23.3329C91.4591 23.9345 91.2328 24.5224 90.9899 25.0964V25.2786C91.1444 25.0302 91.3238 24.7929 91.5281 24.5665C91.7378 24.3402 91.9614 24.1415 92.1987 23.9704C92.4361 23.7938 92.6789 23.6558 92.9273 23.5564C93.1812 23.4515 93.4296 23.3991 93.6725 23.3991C93.8878 23.3991 94.0837 23.4295 94.2604 23.4902C94.4425 23.5509 94.5998 23.6392 94.7323 23.7551C94.8648 23.8711 94.9669 24.0173 95.0387 24.194C95.1104 24.3651 95.1463 24.5638 95.1463 24.7901C95.1463 25.0219 95.0939 25.2538 94.989 25.4856C94.8896 25.7174 94.7295 25.941 94.5088 26.1562C94.2935 26.3715 94.0147 26.5758 93.6725 26.7689C93.3303 26.9566 92.9163 27.1222 92.4306 27.2657C92.4637 27.3154 92.5189 27.3982 92.5961 27.5141C92.6734 27.63 92.7645 27.7625 92.8694 27.9115C92.9798 28.0551 93.0984 28.2069 93.2254 28.3669C93.3524 28.5215 93.4821 28.665 93.6145 28.7975C93.7525 28.9244 93.8878 29.0321 94.0203 29.1204C94.1527 29.2032 94.2742 29.2446 94.3846 29.2446C94.5336 29.2446 94.6854 29.1839 94.8399 29.0624C94.9945 28.9355 95.1546 28.7588 95.3202 28.5325C95.4913 28.3007 95.6679 28.0247 95.8501 27.7045C96.0322 27.3789 96.2227 27.0173 96.4214 26.6199L96.5042 26.446L96.8436 26.7027ZM90.9899 25.9907C90.9899 26.1176 90.9871 26.2308 90.9816 26.3301C90.9816 26.424 90.9816 26.5178 90.9816 26.6116C90.9816 26.6999 90.9788 26.791 90.9733 26.8849C90.9733 26.9787 90.9733 27.0836 90.9733 27.1995C91.5363 27.1167 92.0111 27.0063 92.3974 26.8683C92.7893 26.7303 93.1067 26.5702 93.3496 26.3881C93.5925 26.2059 93.7691 26.0072 93.8795 25.7919C93.9899 25.5711 94.0451 25.3393 94.0451 25.0964C94.0451 24.9695 94.023 24.8481 93.9789 24.7321C93.9402 24.6107 93.8823 24.5058 93.805 24.4175C93.7277 24.3237 93.6311 24.2492 93.5152 24.194C93.4048 24.1388 93.2806 24.1112 93.1426 24.1112C92.9494 24.1112 92.7535 24.1636 92.5547 24.2685C92.3616 24.3678 92.1684 24.5031 91.9752 24.6742C91.7875 24.8453 91.6081 25.0468 91.437 25.2786C91.2714 25.5049 91.1224 25.7423 90.9899 25.9907ZM91.7185 18.2243C91.6026 18.2243 91.5005 18.3375 91.4122 18.5638C91.3294 18.7901 91.2576 19.1434 91.1969 19.6236C91.1362 20.0983 91.0865 20.7055 91.0478 21.4451C91.0092 22.1792 90.9788 23.0569 90.9568 24.078C91.1886 23.4653 91.3763 22.8913 91.5198 22.3559C91.6633 21.8149 91.7737 21.3292 91.851 20.8986C91.9338 20.4626 91.989 20.0845 92.0166 19.7643C92.0442 19.4387 92.058 19.1792 92.058 18.986C92.058 18.6935 92.0304 18.4948 91.9752 18.3899C91.9255 18.2795 91.8399 18.2243 91.7185 18.2243Z" fill="black"/>
<path d="M73.6136 40.5678C73.6449 40.4997 73.6826 40.4344 73.7268 40.3719C73.7709 40.3093 73.8215 40.2541 73.8786 40.2063C73.9356 40.1584 73.9991 40.1207 74.069 40.0931C74.1389 40.0637 74.2153 40.049 74.2981 40.049C74.4085 40.049 74.506 40.0756 74.5906 40.129C74.6753 40.1805 74.7461 40.2504 74.8031 40.3387C74.8602 40.4252 74.9034 40.5264 74.9329 40.6423C74.9623 40.7564 74.977 40.8751 74.977 40.9984C74.977 41.1879 74.9577 41.359 74.9191 41.5117C74.8823 41.6626 74.8317 41.7951 74.7673 41.9091C74.8666 41.8337 74.9669 41.7334 75.0681 41.6083C75.1711 41.4832 75.2723 41.3213 75.3717 41.1226L75.3993 41.0646L75.5124 41.1502L75.4848 41.2081C75.4002 41.3774 75.3073 41.5301 75.2061 41.6663C75.1049 41.8024 74.9973 41.9183 74.8832 42.014C74.7709 42.1079 74.6532 42.1805 74.5299 42.232C74.4066 42.2836 74.2806 42.3093 74.1518 42.3093C74.0377 42.3093 73.9319 42.2845 73.8344 42.2348C73.7387 42.1851 73.6651 42.1235 73.6136 42.0499V43.3553C73.6136 43.4253 73.6081 43.4832 73.5971 43.5292C73.5879 43.577 73.5713 43.6148 73.5474 43.6424C73.5253 43.6718 73.4949 43.692 73.4563 43.7031C73.4177 43.716 73.3708 43.7224 73.3156 43.7224C73.2732 43.7224 73.2438 43.715 73.2272 43.7003C73.2107 43.6874 73.2024 43.6663 73.2024 43.6368C73.2024 43.624 73.2042 43.601 73.2079 43.5678C73.2116 43.5347 73.2153 43.4841 73.219 43.4161C73.2226 43.3498 73.2263 43.2615 73.23 43.1511C73.2337 43.0425 73.2355 42.9036 73.2355 42.7344V41.2081C73.2355 41.0039 73.2346 40.8411 73.2328 40.7196C73.2309 40.5963 73.2291 40.5007 73.2272 40.4326C73.2254 40.3627 73.2236 40.313 73.2217 40.2836C73.2199 40.2541 73.219 40.2284 73.219 40.2063C73.219 40.1879 73.2282 40.1695 73.2466 40.1511C73.265 40.1327 73.2889 40.1161 73.3183 40.1014C73.3478 40.0867 73.379 40.0747 73.4122 40.0655C73.4471 40.0545 73.4802 40.049 73.5115 40.049C73.5428 40.049 73.5676 40.0572 73.586 40.0738C73.6044 40.0904 73.6136 40.1198 73.6136 40.1621V40.5678ZM74.1518 40.2918C74.0745 40.2918 74.0028 40.3185 73.9365 40.3719C73.8721 40.4252 73.816 40.4942 73.7682 40.5789C73.7222 40.6617 73.6854 40.7537 73.6578 40.8549C73.632 40.956 73.6191 41.0545 73.6191 41.1502V41.4676C73.6191 41.5669 73.632 41.6571 73.6578 41.738C73.6854 41.819 73.7213 41.888 73.7654 41.945C73.8096 42.0021 73.8611 42.0462 73.92 42.0775C73.9807 42.1069 74.0442 42.1217 74.1104 42.1217C74.2668 42.1217 74.3846 42.0407 74.4637 41.8788C74.5446 41.7169 74.5851 41.463 74.5851 41.117C74.5851 40.9993 74.5768 40.8898 74.5603 40.7886C74.5437 40.6874 74.518 40.6 74.483 40.5264C74.448 40.4528 74.403 40.3958 74.3478 40.3553C74.2926 40.313 74.2272 40.2918 74.1518 40.2918ZM75.7664 41.3489C75.7664 41.439 75.7636 41.5347 75.7581 41.6359C75.7526 41.7353 75.7406 41.8355 75.7222 41.9367C75.7056 42.0361 75.6808 42.1336 75.6477 42.2293C75.6146 42.3231 75.5695 42.4105 75.5124 42.4915L75.3027 42.428C75.3487 42.2734 75.3763 42.1115 75.3855 41.9423C75.3947 41.773 75.3993 41.6037 75.3993 41.4344C75.3993 41.2504 75.3938 41.0664 75.3827 40.8825C75.3698 40.6985 75.356 40.5145 75.3413 40.3305C75.3248 40.1446 75.311 39.9579 75.2999 39.7702C75.2871 39.5825 75.2806 39.393 75.2806 39.2017C75.2806 39.0857 75.2935 38.9846 75.3192 38.8981C75.3432 38.8116 75.3754 38.7398 75.4158 38.6828C75.4563 38.6258 75.5014 38.5834 75.5511 38.5558C75.6008 38.5264 75.6504 38.5117 75.7001 38.5117C75.77 38.5117 75.8252 38.5365 75.8657 38.5862C75.908 38.6359 75.9393 38.703 75.9595 38.7877C75.9798 38.8723 75.9899 38.9708 75.9899 39.083C75.9917 39.1952 75.9871 39.3139 75.9761 39.439C75.9651 39.5641 75.9494 39.692 75.9292 39.8226C75.909 39.9533 75.8869 40.0802 75.863 40.2035C75.839 40.3268 75.8151 40.4418 75.7912 40.5485C75.7691 40.6552 75.7498 40.7463 75.7332 40.8217C75.7332 40.8365 75.7342 40.8521 75.736 40.8687C75.7378 40.8834 75.7388 40.8981 75.7388 40.9128C75.7774 40.8263 75.8243 40.7334 75.8795 40.6341C75.9365 40.5329 76 40.439 76.0699 40.3525C76.1417 40.2661 76.219 40.1943 76.3018 40.1373C76.3864 40.0784 76.4757 40.049 76.5695 40.049C76.7075 40.049 76.8114 40.095 76.8814 40.187C76.9513 40.279 76.9862 40.4114 76.9862 40.5844C76.9862 40.704 76.9798 40.819 76.9669 40.9294C76.954 41.0398 76.9393 41.1465 76.9228 41.2495C76.908 41.3507 76.8942 41.4492 76.8814 41.5448C76.8685 41.6405 76.862 41.7353 76.862 41.8291C76.862 41.9413 76.8906 41.9975 76.9476 41.9975C76.9752 41.9975 77.0102 41.9735 77.0525 41.9257C77.0966 41.876 77.1454 41.8107 77.1987 41.7297C77.2521 41.6488 77.3082 41.5559 77.3671 41.451C77.426 41.3461 77.4839 41.2366 77.541 41.1226L77.5686 41.0646L77.6817 41.1502L77.6541 41.2081C77.5897 41.3351 77.5226 41.4639 77.4527 41.5945C77.3827 41.7251 77.311 41.8438 77.2374 41.9505C77.1638 42.0554 77.0884 42.1419 77.0111 42.21C76.9356 42.2762 76.8602 42.3093 76.7848 42.3093C76.7516 42.3093 76.7176 42.3038 76.6826 42.2928C76.6495 42.2817 76.6192 42.2624 76.5916 42.2348C76.564 42.2072 76.541 42.1704 76.5226 42.1244C76.5042 42.0766 76.495 42.0159 76.495 41.9423C76.495 41.8687 76.4987 41.7886 76.506 41.7021C76.5134 41.6157 76.5217 41.5274 76.5309 41.4372C76.5419 41.3452 76.5538 41.2541 76.5667 41.164C76.5796 41.0738 76.5906 40.9892 76.5998 40.9101C76.6109 40.8309 76.6201 40.7601 76.6274 40.6975C76.6348 40.6331 76.6385 40.5807 76.6385 40.5402C76.6385 40.4353 76.6238 40.359 76.5943 40.3111C76.5649 40.2633 76.5207 40.2394 76.4619 40.2394C76.3883 40.2394 76.3174 40.2716 76.2493 40.336C76.1813 40.4004 76.1169 40.4813 76.0561 40.5789C75.9973 40.6745 75.943 40.7785 75.8933 40.8907C75.8436 41.0011 75.7995 41.1032 75.7608 41.1971C75.7608 41.2247 75.7618 41.2523 75.7636 41.2799C75.7654 41.3056 75.7664 41.3286 75.7664 41.3489ZM75.587 38.9864C75.587 39.0618 75.5897 39.1538 75.5952 39.2624C75.6026 39.3691 75.6109 39.485 75.6201 39.6101C75.6311 39.7352 75.6422 39.8659 75.6532 40.002C75.6661 40.1382 75.679 40.2725 75.6918 40.405C75.7121 40.302 75.7323 40.1888 75.7526 40.0655C75.7728 39.9404 75.7903 39.8153 75.805 39.6902C75.8216 39.5632 75.8335 39.4399 75.8409 39.3203C75.8501 39.2007 75.8519 39.0949 75.8464 39.003C75.8427 38.911 75.8308 38.8374 75.8105 38.7822C75.7903 38.7251 75.7608 38.6966 75.7222 38.6966C75.6872 38.6966 75.656 38.7178 75.6284 38.7601C75.6008 38.8024 75.587 38.8778 75.587 38.9864ZM79.8814 41.1502L79.851 41.2081C79.7885 41.3332 79.7047 41.4335 79.5999 41.509C79.4968 41.5825 79.3846 41.6304 79.2632 41.6525C79.23 41.7463 79.1868 41.8337 79.1334 41.9147C79.0819 41.9938 79.0221 42.0628 78.9541 42.1217C78.8878 42.1805 78.8124 42.2265 78.7277 42.2596C78.6449 42.2928 78.5548 42.3093 78.4573 42.3093C78.3156 42.3093 78.1877 42.2799 78.0736 42.221C77.9614 42.1603 77.8657 42.0793 77.7866 41.9781C77.7075 41.8751 77.6468 41.7555 77.6045 41.6193C77.5621 41.4814 77.541 41.3342 77.541 41.1778C77.541 41.0416 77.5566 40.9183 77.5879 40.8079C77.6192 40.6957 77.6587 40.5963 77.7066 40.5099C77.7544 40.4215 77.8078 40.3452 77.8666 40.2808C77.9255 40.2146 77.9835 40.1603 78.0405 40.118C78.0976 40.0756 78.1491 40.0444 78.1951 40.0241C78.2429 40.002 78.2788 39.991 78.3027 39.991L78.3386 40.0876C78.2632 40.1428 78.196 40.2201 78.1371 40.3194C78.0856 40.4041 78.0387 40.5163 77.9964 40.6561C77.9559 40.796 77.9356 40.9698 77.9356 41.1778C77.9356 41.3047 77.9476 41.428 77.9715 41.5476C77.9954 41.6672 78.0304 41.773 78.0764 41.865C78.1224 41.957 78.1785 42.0306 78.2448 42.0858C78.3128 42.141 78.3892 42.1686 78.4738 42.1686C78.5897 42.1686 78.6854 42.1226 78.7609 42.0306C78.8381 41.9367 78.8952 41.8089 78.932 41.6469C78.8363 41.6267 78.7452 41.589 78.6587 41.5338C78.5723 41.4786 78.4959 41.4105 78.4297 41.3296C78.3634 41.2468 78.3101 41.152 78.2696 41.0453C78.231 40.9386 78.2116 40.8227 78.2116 40.6975C78.2116 40.5945 78.2245 40.5043 78.2503 40.4271C78.2779 40.3479 78.3138 40.2826 78.3579 40.2311C78.4021 40.1778 78.4527 40.1382 78.5097 40.1124C78.5686 40.0848 78.6302 40.071 78.6946 40.071C78.7701 40.071 78.8473 40.0931 78.9265 40.1373C79.0056 40.1796 79.0773 40.244 79.1417 40.3305C79.2061 40.4151 79.2586 40.5218 79.299 40.6506C79.3395 40.7794 79.3598 40.9294 79.3598 41.1005C79.3598 41.1649 79.3561 41.2284 79.3487 41.2909C79.3414 41.3535 79.3303 41.4142 79.3156 41.4731C79.4039 41.4473 79.484 41.4059 79.5557 41.3489C79.6293 41.2918 79.69 41.2164 79.7379 41.1226L79.7682 41.0646L79.8814 41.1502ZM78.3938 40.6755C78.3938 40.784 78.4085 40.8843 78.438 40.9763C78.4692 41.0664 78.5106 41.1465 78.5621 41.2164C78.6137 41.2845 78.6735 41.3415 78.7415 41.3875C78.8096 41.4335 78.8823 41.4657 78.9596 41.4841C78.9688 41.4326 78.9743 41.3792 78.9761 41.324C78.9798 41.267 78.9817 41.209 78.9817 41.1502C78.9817 41.0195 78.9715 40.9018 78.9513 40.7969C78.9311 40.6902 78.9044 40.6 78.8713 40.5264C78.8381 40.451 78.7995 40.393 78.7553 40.3525C78.7112 40.3121 78.6661 40.2918 78.6201 40.2918C78.5575 40.2918 78.5042 40.3259 78.46 40.3939C78.4159 40.4602 78.3938 40.554 78.3938 40.6755ZM79.7599 41.4041C79.7599 41.209 79.7673 41.0131 79.782 40.8162C79.7967 40.6193 79.8161 40.4197 79.84 40.2173H79.5888L79.6192 40.049H79.8621C79.8878 39.8613 79.9136 39.6736 79.9393 39.4859C79.9669 39.2964 79.9918 39.1069 80.0139 38.9174H80.2954C80.2917 38.9579 80.2862 39.0168 80.2788 39.094C80.2733 39.1695 80.2659 39.2578 80.2567 39.359C80.2494 39.4583 80.242 39.5678 80.2347 39.6874C80.2273 39.8052 80.2199 39.9257 80.2126 40.049H80.748L80.7204 40.2173H80.2015C80.1942 40.3222 80.1877 40.4252 80.1822 40.5264C80.1767 40.6276 80.1712 40.7242 80.1657 40.8162C80.162 40.9064 80.1592 40.9901 80.1574 41.0674C80.1555 41.1428 80.1546 41.2081 80.1546 41.2633C80.1546 41.4032 80.1583 41.52 80.1657 41.6138C80.1749 41.7077 80.1877 41.7831 80.2043 41.8401C80.2227 41.8972 80.2448 41.9377 80.2705 41.9616C80.2981 41.9855 80.3294 41.9975 80.3644 41.9975C80.4104 41.9975 80.461 41.9745 80.5162 41.9285C80.5732 41.8806 80.6321 41.8171 80.6928 41.738C80.7535 41.6589 80.8152 41.5669 80.8777 41.462C80.9403 41.3553 81.001 41.2422 81.0599 41.1226L81.0875 41.0646L81.2006 41.1502L81.173 41.2081C81.0884 41.3792 81.0037 41.5329 80.9191 41.669C80.8363 41.8052 80.7544 41.9211 80.6735 42.0168C80.5925 42.1106 80.5134 42.1833 80.4361 42.2348C80.3588 42.2845 80.2843 42.3093 80.2126 42.3093C80.1408 42.3093 80.0764 42.2928 80.0194 42.2596C79.9642 42.2265 79.9173 42.1741 79.8786 42.1023C79.84 42.0287 79.8105 41.9349 79.7903 41.8208C79.7701 41.7067 79.7599 41.5678 79.7599 41.4041ZM83.403 41.1502L83.3727 41.2081C83.3101 41.3332 83.2264 41.4335 83.1215 41.509C83.0185 41.5825 82.9062 41.6304 82.7848 41.6525C82.7517 41.7463 82.7085 41.8337 82.6551 41.9147C82.6036 41.9938 82.5438 42.0628 82.4757 42.1217C82.4095 42.1805 82.334 42.2265 82.2494 42.2596C82.1666 42.2928 82.0764 42.3093 81.9789 42.3093C81.8372 42.3093 81.7094 42.2799 81.5953 42.221C81.4831 42.1603 81.3874 42.0793 81.3083 41.9781C81.2291 41.8751 81.1684 41.7555 81.1261 41.6193C81.0838 41.4814 81.0626 41.3342 81.0626 41.1778C81.0626 41.0416 81.0783 40.9183 81.1095 40.8079C81.1408 40.6957 81.1804 40.5963 81.2282 40.5099C81.2761 40.4215 81.3294 40.3452 81.3883 40.2808C81.4472 40.2146 81.5051 40.1603 81.5622 40.118C81.6192 40.0756 81.6707 40.0444 81.7167 40.0241C81.7646 40.002 81.8004 39.991 81.8244 39.991L81.8602 40.0876C81.7848 40.1428 81.7176 40.2201 81.6588 40.3194C81.6072 40.4041 81.5603 40.5163 81.518 40.6561C81.4775 40.796 81.4573 40.9698 81.4573 41.1778C81.4573 41.3047 81.4693 41.428 81.4932 41.5476C81.5171 41.6672 81.5521 41.773 81.598 41.865C81.644 41.957 81.7002 42.0306 81.7664 42.0858C81.8345 42.141 81.9108 42.1686 81.9955 42.1686C82.1114 42.1686 82.2071 42.1226 82.2825 42.0306C82.3598 41.9367 82.4168 41.8089 82.4536 41.6469C82.3579 41.6267 82.2669 41.589 82.1804 41.5338C82.0939 41.4786 82.0176 41.4105 81.9513 41.3296C81.8851 41.2468 81.8317 41.152 81.7912 41.0453C81.7526 40.9386 81.7333 40.8227 81.7333 40.6975C81.7333 40.5945 81.7462 40.5043 81.7719 40.4271C81.7995 40.3479 81.8354 40.2826 81.8796 40.2311C81.9237 40.1778 81.9743 40.1382 82.0314 40.1124C82.0902 40.0848 82.1519 40.071 82.2163 40.071C82.2917 40.071 82.369 40.0931 82.4481 40.1373C82.5272 40.1796 82.599 40.244 82.6634 40.3305C82.7278 40.4151 82.7802 40.5218 82.8207 40.6506C82.8612 40.7794 82.8814 40.9294 82.8814 41.1005C82.8814 41.1649 82.8777 41.2284 82.8704 41.2909C82.863 41.3535 82.852 41.4142 82.8372 41.4731C82.9256 41.4473 83.0056 41.4059 83.0774 41.3489C83.151 41.2918 83.2117 41.2164 83.2595 41.1226L83.2899 41.0646L83.403 41.1502ZM81.9154 40.6755C81.9154 40.784 81.9302 40.8843 81.9596 40.9763C81.9909 41.0664 82.0323 41.1465 82.0838 41.2164C82.1353 41.2845 82.1951 41.3415 82.2632 41.3875C82.3313 41.4335 82.4039 41.4657 82.4812 41.4841C82.4904 41.4326 82.4959 41.3792 82.4978 41.324C82.5015 41.267 82.5033 41.209 82.5033 41.1502C82.5033 41.0195 82.4932 40.9018 82.4729 40.7969C82.4527 40.6902 82.426 40.6 82.3929 40.5264C82.3598 40.451 82.3211 40.393 82.277 40.3525C82.2328 40.3121 82.1878 40.2918 82.1418 40.2918C82.0792 40.2918 82.0258 40.3259 81.9817 40.3939C81.9375 40.4602 81.9154 40.554 81.9154 40.6755ZM84.0627 43.3553C84.0627 43.2744 84.0774 43.1925 84.1068 43.1097C84.1381 43.0269 84.1804 42.9423 84.2338 42.8558C84.2871 42.7693 84.3488 42.6792 84.4187 42.5853C84.4904 42.4933 84.5677 42.3976 84.6505 42.2983V41.7767C84.6064 41.8631 84.5567 41.9395 84.5015 42.0057C84.4463 42.072 84.3874 42.1281 84.3248 42.1741C84.2641 42.2182 84.2006 42.2523 84.1344 42.2762C84.07 42.2983 84.0065 42.3093 83.944 42.3093C83.8575 42.3093 83.7738 42.2882 83.6928 42.2458C83.6137 42.2035 83.5429 42.1401 83.4803 42.0554C83.4178 41.9689 83.3681 41.8604 83.3313 41.7297C83.2945 41.5991 83.2761 41.4455 83.2761 41.2688C83.2761 41.1198 83.2936 40.9726 83.3285 40.8273C83.3635 40.6819 83.4159 40.5522 83.4858 40.4381C83.5557 40.3222 83.6422 40.2284 83.7453 40.1566C83.8483 40.0848 83.9688 40.049 84.1068 40.049C84.2154 40.049 84.3166 40.071 84.4104 40.1152C84.5061 40.1594 84.5861 40.2238 84.6505 40.3084V40.2753C84.6505 40.2403 84.6606 40.209 84.6809 40.1814C84.703 40.152 84.7296 40.1281 84.7609 40.1097C84.794 40.0894 84.8281 40.0747 84.863 40.0655C84.8998 40.0545 84.932 40.049 84.9596 40.049C84.9909 40.049 85.013 40.0536 85.0259 40.0628C85.0387 40.0701 85.0452 40.0839 85.0452 40.1042C85.0452 40.1336 85.0415 40.1998 85.0341 40.3029C85.0268 40.4059 85.0231 40.5568 85.0231 40.7555V41.9533C85.0691 41.8963 85.1179 41.8328 85.1694 41.7629C85.2209 41.6929 85.2724 41.6203 85.3239 41.5448C85.3754 41.4676 85.4251 41.3884 85.473 41.3075C85.5226 41.2265 85.5686 41.1456 85.611 41.0646L85.6386 41.0094L85.7517 41.095L85.7241 41.1502C85.68 41.2385 85.6284 41.3305 85.5696 41.4262C85.5125 41.52 85.4518 41.6129 85.3874 41.7049C85.3249 41.7951 85.2614 41.8825 85.197 41.9671C85.1344 42.0499 85.0765 42.1244 85.0231 42.1906V42.7896C85.0231 42.9588 85.0075 43.1023 84.9762 43.2201C84.9467 43.3397 84.9053 43.4363 84.852 43.5099C84.8005 43.5853 84.7379 43.6396 84.6643 43.6727C84.5926 43.7058 84.5144 43.7224 84.4297 43.7224C84.3248 43.7224 84.2374 43.6893 84.1675 43.623C84.0976 43.5586 84.0627 43.4694 84.0627 43.3553ZM84.1123 42.0278C84.1694 42.0278 84.2255 42.0113 84.2807 41.9781C84.3377 41.945 84.3902 41.9027 84.438 41.8512C84.4858 41.7997 84.5282 41.7435 84.565 41.6828C84.6036 41.6203 84.6321 41.5596 84.6505 41.5007V40.7224C84.6505 40.6396 84.6376 40.5651 84.6119 40.4988C84.5861 40.4307 84.5521 40.3737 84.5098 40.3277C84.4674 40.2799 84.4187 40.2431 84.3635 40.2173C84.3101 40.1916 84.2549 40.1787 84.1979 40.1787C84.1096 40.1787 84.0323 40.2054 83.9661 40.2587C83.8998 40.3102 83.8446 40.3792 83.8005 40.4657C83.7563 40.5503 83.7232 40.6479 83.7011 40.7583C83.6809 40.8687 83.6707 40.9809 83.6707 41.095C83.6707 41.2366 83.679 41.3645 83.6956 41.4786C83.714 41.5927 83.7416 41.6911 83.7784 41.7739C83.8152 41.8549 83.8612 41.9174 83.9164 41.9616C83.9716 42.0057 84.0369 42.0278 84.1123 42.0278ZM84.3994 43.554C84.4288 43.554 84.4582 43.5476 84.4877 43.5347C84.519 43.5237 84.5466 43.497 84.5705 43.4547C84.5944 43.4124 84.6137 43.3498 84.6284 43.267C84.6432 43.1842 84.6505 43.072 84.6505 42.9303V42.5191C84.5236 42.6718 84.4196 42.8162 84.3386 42.9524C84.2595 43.0904 84.22 43.2192 84.22 43.3388C84.22 43.3958 84.2356 43.4455 84.2669 43.4878C84.2982 43.532 84.3423 43.554 84.3994 43.554ZM85.611 41.1226L85.6386 41.0646C85.6662 41.0094 85.691 40.9524 85.7131 40.8935C85.737 40.8346 85.7572 40.7794 85.7738 40.7279C85.7904 40.6745 85.8032 40.6276 85.8124 40.5871C85.8216 40.5448 85.8281 40.5126 85.8318 40.4905C85.7839 40.485 85.7379 40.4731 85.6938 40.4547C85.6496 40.4363 85.611 40.4114 85.5778 40.3801C85.5447 40.3489 85.519 40.3121 85.5006 40.2698C85.4803 40.2274 85.4702 40.1796 85.4702 40.1262C85.4702 40.0839 85.4776 40.0462 85.4923 40.0131C85.507 39.98 85.5272 39.9524 85.553 39.9303C85.5769 39.9082 85.6045 39.8916 85.6358 39.8806C85.6652 39.8677 85.6965 39.8613 85.7296 39.8613C85.7738 39.8613 85.8124 39.8705 85.8456 39.8889C85.8787 39.9073 85.9063 39.9321 85.9284 39.9634C85.9504 39.9928 85.967 40.0278 85.978 40.0683C85.9891 40.1069 85.9946 40.1474 85.9946 40.1897C86.0461 40.1897 86.1013 40.1824 86.1602 40.1676C86.2209 40.1529 86.2816 40.1373 86.3423 40.1207C86.4031 40.1023 86.4629 40.0858 86.5217 40.071C86.5806 40.0563 86.6349 40.049 86.6846 40.049C86.7269 40.049 86.7609 40.0582 86.7867 40.0766C86.8124 40.0931 86.8253 40.1216 86.8253 40.1621C86.8253 40.1916 86.8161 40.2403 86.7977 40.3084C86.7812 40.3765 86.76 40.4556 86.7342 40.5457C86.7085 40.6359 86.68 40.7343 86.6487 40.8411C86.6192 40.9459 86.5916 41.0526 86.5659 41.1612C86.5401 41.2679 86.5181 41.3719 86.4997 41.4731C86.4831 41.5743 86.4748 41.6644 86.4748 41.7435C86.4748 41.8429 86.4859 41.9101 86.5079 41.945C86.53 41.98 86.5696 41.9975 86.6266 41.9975C86.6505 41.9975 86.68 41.9873 86.7149 41.9671C86.7517 41.945 86.7959 41.9036 86.8474 41.8429C86.8989 41.7803 86.9596 41.692 87.0296 41.5779C87.1013 41.462 87.1841 41.3102 87.2779 41.1226L87.3055 41.0646L87.4187 41.1502L87.3911 41.2081C87.2807 41.4289 87.1823 41.6101 87.0958 41.7518C87.0093 41.8935 86.9293 42.0057 86.8557 42.0885C86.7839 42.1713 86.7158 42.2293 86.6514 42.2624C86.5871 42.2937 86.5227 42.3093 86.4583 42.3093C86.3497 42.3093 86.2614 42.2679 86.1933 42.1851C86.1252 42.1023 86.0912 41.9745 86.0912 41.8015C86.0912 41.7077 86.1041 41.6101 86.1298 41.509C86.1556 41.4078 86.1878 41.3075 86.2264 41.2081C86.2651 41.1069 86.3083 41.0076 86.3561 40.9101C86.404 40.8125 86.4491 40.7205 86.4914 40.6341C86.5355 40.5457 86.5751 40.4639 86.61 40.3884C86.645 40.313 86.6698 40.2468 86.6846 40.1897L86.668 40.1732C86.6386 40.1732 86.599 40.1888 86.5493 40.2201C86.4997 40.2514 86.4435 40.2872 86.381 40.3277C86.3203 40.3663 86.2549 40.4031 86.185 40.4381C86.1151 40.4731 86.0443 40.4942 85.9725 40.5016C85.9688 40.5273 85.9606 40.5651 85.9477 40.6147C85.9366 40.6644 85.921 40.7196 85.9008 40.7803C85.8805 40.8411 85.8575 40.9036 85.8318 40.968C85.806 41.0324 85.7793 41.0931 85.7517 41.1502L85.7241 41.2081L85.611 41.1226ZM85.7462 40.0158C85.7296 40.0158 85.7158 40.0214 85.7048 40.0324C85.6938 40.0434 85.6882 40.0563 85.6882 40.071C85.6882 40.0931 85.6938 40.1124 85.7048 40.129C85.7158 40.1437 85.7296 40.1566 85.7462 40.1676C85.7628 40.1768 85.7793 40.1842 85.7959 40.1897C85.8143 40.1934 85.8299 40.1952 85.8428 40.1952C85.8428 40.1437 85.8345 40.1014 85.818 40.0683C85.8014 40.0333 85.7775 40.0158 85.7462 40.0158ZM88.9781 41.6249C88.9781 41.7297 88.9873 41.8181 89.0057 41.8898C89.0241 41.9616 89.0563 41.9975 89.1022 41.9975C89.1298 41.9975 89.1593 41.9846 89.1906 41.9588C89.2237 41.9312 89.2614 41.8871 89.3037 41.8263C89.346 41.7656 89.3939 41.6874 89.4472 41.5917C89.5024 41.4942 89.565 41.3756 89.6349 41.2357L89.7177 41.0646L89.8309 41.1502L89.7481 41.3213C89.6708 41.4758 89.5981 41.6147 89.53 41.738C89.4638 41.8595 89.4003 41.9625 89.3396 42.0471C89.2789 42.1318 89.2191 42.1971 89.1602 42.2431C89.1032 42.2872 89.0461 42.3093 88.9891 42.3093C88.9284 42.3093 88.8769 42.2928 88.8345 42.2596C88.7941 42.2265 88.76 42.1815 88.7324 42.1244C88.7048 42.0655 88.6837 41.9984 88.6689 41.9229C88.6542 41.8457 88.6441 41.7638 88.6386 41.6773C88.5944 41.7656 88.5457 41.8484 88.4923 41.9257C88.439 42.0011 88.3828 42.0674 88.324 42.1244C88.2669 42.1815 88.2071 42.2265 88.1446 42.2596C88.082 42.2928 88.0194 42.3093 87.9569 42.3093C87.8649 42.3093 87.7757 42.29 87.6892 42.2514C87.6027 42.2127 87.5254 42.1539 87.4573 42.0747C87.3911 41.9956 87.3377 41.8963 87.2973 41.7767C87.2568 41.6552 87.2365 41.5126 87.2365 41.3489C87.2365 41.1575 87.2614 40.9827 87.3111 40.8245C87.3607 40.6644 87.4279 40.5273 87.5125 40.4133C87.5972 40.2974 87.6947 40.2081 87.8051 40.1456C87.9155 40.0812 88.0314 40.049 88.1528 40.049C88.2264 40.049 88.2945 40.0655 88.3571 40.0986C88.4196 40.1318 88.4739 40.1722 88.5199 40.2201C88.5677 40.2661 88.6073 40.3157 88.6386 40.3691C88.6699 40.4206 88.691 40.4648 88.7021 40.5016L88.7352 40.2339C88.7389 40.1989 88.7554 40.1695 88.7849 40.1456C88.8161 40.1216 88.8502 40.1032 88.887 40.0904C88.9238 40.0756 88.9597 40.0655 88.9946 40.06C89.0296 40.0526 89.0544 40.049 89.0691 40.049C89.0912 40.049 89.1059 40.0526 89.1133 40.06C89.1206 40.0674 89.1243 40.0821 89.1243 40.1042C89.1243 40.1318 89.116 40.1879 89.0995 40.2725C89.0848 40.3553 89.0682 40.462 89.0498 40.5927C89.0333 40.7215 89.0167 40.8733 89.0001 41.048C88.9854 41.2228 88.9781 41.4151 88.9781 41.6249ZM88.6745 40.8963C88.6745 40.8116 88.6616 40.7288 88.6358 40.6479C88.6101 40.5651 88.5751 40.4924 88.5309 40.4298C88.4868 40.3654 88.4353 40.3139 88.3764 40.2753C88.3194 40.2366 88.2586 40.2173 88.1942 40.2173C88.1151 40.2173 88.0406 40.2403 87.9707 40.2863C87.9026 40.3305 87.8428 40.3939 87.7913 40.4767C87.7416 40.5577 87.7021 40.6561 87.6726 40.7721C87.6432 40.8861 87.6285 41.0122 87.6285 41.1502C87.6285 41.4262 87.6717 41.6368 87.7582 41.7822C87.8446 41.9257 87.9596 41.9975 88.1032 41.9975C88.1657 41.9975 88.2301 41.9726 88.2964 41.9229C88.3644 41.8714 88.4261 41.7987 88.4813 41.7049C88.5383 41.6092 88.5843 41.4933 88.6193 41.3572C88.6561 41.221 88.6745 41.0674 88.6745 40.8963ZM90.0793 40.5678C90.1105 40.4997 90.1483 40.4344 90.1924 40.3719C90.2366 40.3093 90.2872 40.2541 90.3442 40.2063C90.4012 40.1584 90.4647 40.1207 90.5346 40.0931C90.6046 40.0637 90.6809 40.049 90.7637 40.049C90.8741 40.049 90.9716 40.0756 91.0563 40.129C91.1409 40.1805 91.2117 40.2504 91.2688 40.3387C91.3258 40.4252 91.3691 40.5264 91.3985 40.6423C91.4279 40.7564 91.4427 40.8751 91.4427 40.9984C91.4427 41.1879 91.4233 41.359 91.3847 41.5117C91.3479 41.6626 91.2973 41.7951 91.2329 41.9091C91.3323 41.8337 91.4325 41.7334 91.5337 41.6083C91.6368 41.4832 91.738 41.3213 91.8373 41.1226L91.8649 41.0646L91.9781 41.1502L91.9505 41.2081C91.8658 41.3774 91.7729 41.5301 91.6717 41.6663C91.5705 41.8024 91.4629 41.9183 91.3488 42.014C91.2366 42.1079 91.1188 42.1805 90.9955 42.232C90.8723 42.2836 90.7462 42.3093 90.6174 42.3093C90.5034 42.3093 90.3976 42.2845 90.3001 42.2348C90.2044 42.1851 90.1308 42.1235 90.0793 42.0499V43.3553C90.0793 43.4253 90.0737 43.4832 90.0627 43.5292C90.0535 43.577 90.0369 43.6148 90.013 43.6424C89.9909 43.6718 89.9606 43.692 89.9219 43.7031C89.8833 43.716 89.8364 43.7224 89.7812 43.7224C89.7389 43.7224 89.7094 43.715 89.6929 43.7003C89.6763 43.6874 89.668 43.6663 89.668 43.6368C89.668 43.624 89.6699 43.601 89.6736 43.5678C89.6772 43.5347 89.6809 43.4841 89.6846 43.4161C89.6883 43.3498 89.692 43.2615 89.6956 43.1511C89.6993 43.0425 89.7012 42.9036 89.7012 42.7344V41.2081C89.7012 41.0039 89.7002 40.8411 89.6984 40.7196C89.6966 40.5963 89.6947 40.5007 89.6929 40.4326C89.691 40.3627 89.6892 40.313 89.6874 40.2836C89.6855 40.2541 89.6846 40.2284 89.6846 40.2063C89.6846 40.1879 89.6938 40.1695 89.7122 40.1511C89.7306 40.1327 89.7545 40.1161 89.7839 40.1014C89.8134 40.0867 89.8447 40.0747 89.8778 40.0655C89.9127 40.0545 89.9459 40.049 89.9771 40.049C90.0084 40.049 90.0333 40.0572 90.0517 40.0738C90.0701 40.0904 90.0793 40.1198 90.0793 40.1621V40.5678ZM90.6174 40.2918C90.5402 40.2918 90.4684 40.3185 90.4022 40.3719C90.3378 40.4252 90.2817 40.4942 90.2338 40.5789C90.1878 40.6617 90.151 40.7537 90.1234 40.8549C90.0977 40.956 90.0848 41.0545 90.0848 41.1502V41.4676C90.0848 41.5669 90.0977 41.6571 90.1234 41.738C90.151 41.819 90.1869 41.888 90.2311 41.945C90.2752 42.0021 90.3267 42.0462 90.3856 42.0775C90.4463 42.1069 90.5098 42.1217 90.576 42.1217C90.7324 42.1217 90.8502 42.0407 90.9293 41.8788C91.0103 41.7169 91.0507 41.463 91.0507 41.117C91.0507 40.9993 91.0425 40.8898 91.0259 40.7886C91.0093 40.6874 90.9836 40.6 90.9486 40.5264C90.9137 40.4528 90.8686 40.3958 90.8134 40.3553C90.7582 40.313 90.6929 40.2918 90.6174 40.2918ZM92.232 41.3489C92.232 41.439 92.2292 41.5347 92.2237 41.6359C92.2182 41.7353 92.2062 41.8355 92.1878 41.9367C92.1713 42.0361 92.1464 42.1336 92.1133 42.2293C92.0802 42.3231 92.0351 42.4105 91.9781 42.4915L91.7683 42.428C91.8143 42.2734 91.8419 42.1115 91.8511 41.9423C91.8603 41.773 91.8649 41.6037 91.8649 41.4344C91.8649 41.2504 91.8594 41.0664 91.8484 40.8825C91.8355 40.6985 91.8217 40.5145 91.807 40.3305C91.7904 40.1446 91.7766 39.9579 91.7656 39.7702C91.7527 39.5825 91.7462 39.393 91.7462 39.2017C91.7462 39.0857 91.7591 38.9846 91.7849 38.8981C91.8088 38.8116 91.841 38.7398 91.8815 38.6828C91.922 38.6258 91.967 38.5834 92.0167 38.5558C92.0664 38.5264 92.1161 38.5117 92.1658 38.5117C92.2357 38.5117 92.2909 38.5365 92.3313 38.5862C92.3737 38.6359 92.4049 38.703 92.4252 38.7877C92.4454 38.8723 92.4555 38.9708 92.4555 39.083C92.4574 39.1952 92.4528 39.3139 92.4417 39.439C92.4307 39.5641 92.4151 39.692 92.3948 39.8226C92.3746 39.9533 92.3525 40.0802 92.3286 40.2035C92.3047 40.3268 92.2807 40.4418 92.2568 40.5485C92.2347 40.6552 92.2154 40.7463 92.1989 40.8217C92.1989 40.8365 92.1998 40.8521 92.2016 40.8687C92.2035 40.8834 92.2044 40.8981 92.2044 40.9128C92.243 40.8263 92.2899 40.7334 92.3451 40.6341C92.4022 40.5329 92.4657 40.439 92.5356 40.3525C92.6073 40.2661 92.6846 40.1943 92.7674 40.1373C92.8521 40.0784 92.9413 40.049 93.0351 40.049C93.1731 40.049 93.2771 40.095 93.347 40.187C93.4169 40.279 93.4519 40.4114 93.4519 40.5844C93.4519 40.704 93.4454 40.819 93.4326 40.9294C93.4197 41.0398 93.405 41.1465 93.3884 41.2495C93.3737 41.3507 93.3599 41.4492 93.347 41.5448C93.3341 41.6405 93.3277 41.7353 93.3277 41.8291C93.3277 41.9413 93.3562 41.9975 93.4132 41.9975C93.4408 41.9975 93.4758 41.9735 93.5181 41.9257C93.5623 41.876 93.611 41.8107 93.6644 41.7297C93.7177 41.6488 93.7739 41.5559 93.8327 41.451C93.8916 41.3461 93.9496 41.2366 94.0066 41.1226L94.0342 41.0646L94.1474 41.1502L94.1198 41.2081C94.0554 41.3351 93.9882 41.4639 93.9183 41.5945C93.8484 41.7251 93.7766 41.8438 93.703 41.9505C93.6294 42.0554 93.554 42.1419 93.4767 42.21C93.4013 42.2762 93.3258 42.3093 93.2504 42.3093C93.2173 42.3093 93.1832 42.3038 93.1483 42.2928C93.1152 42.2817 93.0848 42.2624 93.0572 42.2348C93.0296 42.2072 93.0066 42.1704 92.9882 42.1244C92.9698 42.0766 92.9606 42.0159 92.9606 41.9423C92.9606 41.8687 92.9643 41.7886 92.9716 41.7021C92.979 41.6157 92.9873 41.5274 92.9965 41.4372C93.0075 41.3452 93.0195 41.2541 93.0324 41.164C93.0452 41.0738 93.0563 40.9892 93.0655 40.9101C93.0765 40.8309 93.0857 40.7601 93.0931 40.6975C93.1004 40.6331 93.1041 40.5807 93.1041 40.5402C93.1041 40.4353 93.0894 40.359 93.06 40.3111C93.0305 40.2633 92.9864 40.2394 92.9275 40.2394C92.8539 40.2394 92.7831 40.2716 92.715 40.336C92.6469 40.4004 92.5825 40.4813 92.5218 40.5789C92.4629 40.6745 92.4086 40.7785 92.3589 40.8907C92.3093 41.0011 92.2651 41.1032 92.2265 41.1971C92.2265 41.2247 92.2274 41.2523 92.2292 41.2799C92.2311 41.3056 92.232 41.3286 92.232 41.3489ZM92.0526 38.9864C92.0526 39.0618 92.0554 39.1538 92.0609 39.2624C92.0682 39.3691 92.0765 39.485 92.0857 39.6101C92.0968 39.7352 92.1078 39.8659 92.1188 40.002C92.1317 40.1382 92.1446 40.2725 92.1575 40.405C92.1777 40.302 92.198 40.1888 92.2182 40.0655C92.2384 39.9404 92.2559 39.8153 92.2706 39.6902C92.2872 39.5632 92.2991 39.4399 92.3065 39.3203C92.3157 39.2007 92.3175 39.0949 92.312 39.003C92.3083 38.911 92.2964 38.8374 92.2761 38.7822C92.2559 38.7251 92.2265 38.6966 92.1878 38.6966C92.1529 38.6966 92.1216 38.7178 92.094 38.7601C92.0664 38.8024 92.0526 38.8778 92.0526 38.9864ZM94.8484 41.9975C94.9128 41.9975 94.9781 41.9809 95.0443 41.9478C95.1124 41.9147 95.1805 41.8631 95.2486 41.7932C95.3185 41.7233 95.3902 41.6331 95.4638 41.5228C95.5374 41.4105 95.6129 41.2771 95.6902 41.1226L95.7178 41.0646L95.8309 41.1502L95.8033 41.2081C95.704 41.405 95.6046 41.5733 95.5052 41.7132C95.4077 41.853 95.3111 41.9671 95.2155 42.0554C95.1216 42.1437 95.0287 42.2081 94.9367 42.2486C94.8447 42.2891 94.7564 42.3093 94.6718 42.3093C94.5522 42.3093 94.4454 42.2845 94.3516 42.2348C94.2578 42.1851 94.1786 42.118 94.1142 42.0333C94.0499 41.9469 94.0011 41.8475 93.968 41.7353C93.933 41.6212 93.9155 41.5016 93.9155 41.3765C93.9155 41.1778 93.9431 40.9974 93.9983 40.8355C94.0517 40.6718 94.1234 40.5319 94.2136 40.416C94.3056 40.3001 94.4096 40.21 94.5255 40.1456C94.6414 40.0812 94.7619 40.049 94.887 40.049C95.014 40.049 95.1106 40.0812 95.1768 40.1456C95.2449 40.21 95.2789 40.2909 95.2789 40.3884C95.2789 40.4823 95.2523 40.5706 95.1989 40.6534C95.1455 40.7343 95.0729 40.8144 94.9809 40.8935C94.8907 40.9708 94.7858 41.048 94.6662 41.1253C94.5466 41.2008 94.4206 41.279 94.2881 41.3599C94.301 41.4556 94.3231 41.543 94.3544 41.6221C94.3856 41.6994 94.4252 41.7665 94.473 41.8236C94.5209 41.8788 94.5761 41.922 94.6386 41.9533C94.7012 41.9827 94.7711 41.9975 94.8484 41.9975ZM94.9339 40.4712C94.9339 40.3976 94.9137 40.3397 94.8732 40.2974C94.8346 40.255 94.7867 40.2339 94.7297 40.2339C94.6819 40.2339 94.6313 40.2514 94.5779 40.2863C94.5246 40.3194 94.4758 40.3737 94.4316 40.4491C94.3875 40.5227 94.3507 40.6175 94.3212 40.7334C94.2918 40.8493 94.2771 40.9901 94.2771 41.1557V41.2192C94.3396 41.186 94.4086 41.1428 94.4841 41.0894C94.5614 41.0342 94.6331 40.9735 94.6994 40.9073C94.7656 40.8411 94.8208 40.7711 94.8649 40.6975C94.9109 40.6221 94.9339 40.5467 94.9339 40.4712ZM95.6902 41.1226L95.7178 41.0646C95.7454 41.0094 95.7702 40.9524 95.7923 40.8935C95.8162 40.8346 95.8364 40.7794 95.853 40.7279C95.8696 40.6745 95.8824 40.6276 95.8916 40.5871C95.9008 40.5448 95.9073 40.5126 95.911 40.4905C95.8631 40.485 95.8171 40.4731 95.773 40.4547C95.7288 40.4363 95.6902 40.4114 95.657 40.3801C95.6239 40.3489 95.5982 40.3121 95.5798 40.2698C95.5595 40.2274 95.5494 40.1796 95.5494 40.1262C95.5494 40.0839 95.5568 40.0462 95.5715 40.0131C95.5862 39.98 95.6064 39.9524 95.6322 39.9303C95.6561 39.9082 95.6837 39.8916 95.715 39.8806C95.7444 39.8677 95.7757 39.8613 95.8088 39.8613C95.853 39.8613 95.8916 39.8705 95.9248 39.8889C95.9579 39.9073 95.9855 39.9321 96.0075 39.9634C96.0296 39.9928 96.0462 40.0278 96.0572 40.0683C96.0683 40.1069 96.0738 40.1474 96.0738 40.1897C96.1253 40.1897 96.1805 40.1824 96.2394 40.1676C96.3001 40.1529 96.3608 40.1373 96.4215 40.1207C96.4823 40.1023 96.5421 40.0858 96.6009 40.071C96.6598 40.0563 96.7141 40.049 96.7638 40.049C96.8061 40.049 96.8401 40.0582 96.8659 40.0766C96.8916 40.0931 96.9045 40.1216 96.9045 40.1621C96.9045 40.1916 96.8953 40.2403 96.8769 40.3084C96.8604 40.3765 96.8392 40.4556 96.8134 40.5457C96.7877 40.6359 96.7592 40.7343 96.7279 40.8411C96.6984 40.9459 96.6708 41.0526 96.6451 41.1612C96.6193 41.2679 96.5973 41.3719 96.5789 41.4731C96.5623 41.5743 96.554 41.6644 96.554 41.7435C96.554 41.8429 96.5651 41.9101 96.5871 41.945C96.6092 41.98 96.6488 41.9975 96.7058 41.9975C96.7297 41.9975 96.7592 41.9873 96.7941 41.9671C96.8309 41.945 96.8751 41.9036 96.9266 41.8429C96.9781 41.7803 97.0388 41.692 97.1088 41.5779C97.1805 41.462 97.2633 41.3102 97.3571 41.1226L97.3847 41.0646L97.4979 41.1502L97.4703 41.2081C97.3599 41.4289 97.2615 41.6101 97.175 41.7518C97.0885 41.8935 97.0085 42.0057 96.9349 42.0885C96.8631 42.1713 96.795 42.2293 96.7306 42.2624C96.6662 42.2937 96.6019 42.3093 96.5375 42.3093C96.4289 42.3093 96.3406 42.2679 96.2725 42.1851C96.2044 42.1023 96.1704 41.9745 96.1704 41.8015C96.1704 41.7077 96.1833 41.6101 96.209 41.509C96.2348 41.4078 96.267 41.3075 96.3056 41.2081C96.3443 41.1069 96.3875 41.0076 96.4353 40.9101C96.4832 40.8125 96.5283 40.7205 96.5706 40.6341C96.6147 40.5457 96.6543 40.4639 96.6892 40.3884C96.7242 40.313 96.749 40.2468 96.7638 40.1897L96.7472 40.1732C96.7178 40.1732 96.6782 40.1888 96.6285 40.2201C96.5789 40.2514 96.5227 40.2872 96.4602 40.3277C96.3995 40.3663 96.3341 40.4031 96.2642 40.4381C96.1943 40.4731 96.1235 40.4942 96.0517 40.5016C96.048 40.5273 96.0397 40.5651 96.0269 40.6147C96.0158 40.6644 96.0002 40.7196 95.9799 40.7803C95.9597 40.8411 95.9367 40.9036 95.911 40.968C95.8852 41.0324 95.8585 41.0931 95.8309 41.1502L95.8033 41.2081L95.6902 41.1226ZM95.8254 40.0158C95.8088 40.0158 95.795 40.0214 95.784 40.0324C95.773 40.0434 95.7674 40.0563 95.7674 40.071C95.7674 40.0931 95.773 40.1124 95.784 40.129C95.795 40.1437 95.8088 40.1566 95.8254 40.1676C95.842 40.1768 95.8585 40.1842 95.8751 40.1897C95.8935 40.1934 95.9091 40.1952 95.922 40.1952C95.922 40.1437 95.9137 40.1014 95.8972 40.0683C95.8806 40.0333 95.8567 40.0158 95.8254 40.0158Z" fill="#FFB55A"/>
<path d="M45.7411 14.917C45.8405 14.917 45.9536 14.8535 46.0806 14.7266C46.2131 14.5941 46.3538 14.4147 46.5029 14.1884C46.6519 13.9621 46.8092 13.6971 46.9748 13.3935C47.1404 13.0899 47.3115 12.7615 47.4881 12.4082L47.5709 12.2344L47.9104 12.491L47.8276 12.6649C47.5351 13.25 47.2729 13.7523 47.041 14.1718C46.8147 14.5858 46.6022 14.928 46.4035 15.1985C46.2048 15.4634 46.0144 15.6594 45.8322 15.7864C45.6556 15.9078 45.4734 15.9685 45.2857 15.9685C45.0374 15.9685 44.8221 15.8885 44.6399 15.7284C44.4633 15.5628 44.3143 15.2896 44.1928 14.9087C44.0769 14.5223 43.9914 14.0145 43.9362 13.3852C43.8754 12.756 43.8451 11.9777 43.8451 11.0504C43.8451 9.73666 43.9003 8.61062 44.0107 7.67226C44.1211 6.72837 44.2701 5.9556 44.4578 5.35395C44.651 4.74677 44.8718 4.30243 45.1202 4.02092C45.3741 3.73389 45.639 3.59037 45.915 3.59037C46.0806 3.59037 46.2186 3.65937 46.329 3.79736C46.4449 3.92984 46.5029 4.17271 46.5029 4.52598C46.5029 4.80197 46.4808 5.1166 46.4366 5.46986C46.3925 5.82313 46.3345 6.20123 46.2628 6.60418C46.191 7.00712 46.1054 7.42663 46.0061 7.86269C45.9067 8.29324 45.8018 8.72378 45.6915 9.15432C45.5811 9.57935 45.4679 9.99885 45.352 10.4128C45.2361 10.8213 45.1229 11.2049 45.0125 11.5637C45.0456 12.2426 45.0815 12.8001 45.1202 13.2362C45.1643 13.6668 45.214 14.0062 45.2692 14.2546C45.3299 14.503 45.3989 14.6769 45.4762 14.7762C45.5535 14.8701 45.6418 14.917 45.7411 14.917ZM45.9647 4.72469C45.9647 4.60877 45.9509 4.5177 45.9233 4.45146C45.8957 4.38522 45.8515 4.3521 45.7908 4.3521C45.7301 4.3521 45.6694 4.43766 45.6087 4.60877C45.5479 4.77989 45.4872 5.01172 45.4265 5.30427C45.3713 5.59682 45.3189 5.93628 45.2692 6.32267C45.225 6.70906 45.1836 7.12028 45.145 7.55634C45.1064 7.98689 45.076 8.42847 45.0539 8.88109C45.0318 9.33372 45.018 9.76978 45.0125 10.1893C45.145 9.70354 45.2664 9.20676 45.3768 8.69894C45.4927 8.1856 45.5949 7.68882 45.6832 7.2086C45.7715 6.72837 45.8405 6.27575 45.8902 5.85073C45.9398 5.42018 45.9647 5.04484 45.9647 4.72469ZM50.0135 15.0329C50.2066 15.0329 50.4026 14.9832 50.6013 14.8839C50.8055 14.7845 51.0098 14.63 51.214 14.4202C51.4238 14.2105 51.639 13.94 51.8598 13.6088C52.0806 13.2721 52.3069 12.8719 52.5388 12.4082L52.6216 12.2344L52.961 12.491L52.8782 12.6649C52.5802 13.2555 52.2821 13.7606 51.984 14.1801C51.6915 14.5996 51.4017 14.9418 51.1146 15.2068C50.8331 15.4717 50.5544 15.6649 50.2784 15.7864C50.0024 15.9078 49.7375 15.9685 49.4836 15.9685C49.1248 15.9685 48.8046 15.894 48.5231 15.745C48.2416 15.5959 48.0042 15.3944 47.8111 15.1405C47.6179 14.8811 47.4716 14.583 47.3722 14.2463C47.2674 13.9041 47.2149 13.5453 47.2149 13.17C47.2149 12.5738 47.2977 12.0329 47.4633 11.5472C47.6234 11.0559 47.8387 10.6364 48.1091 10.2886C48.3851 9.94089 48.697 9.67042 49.0447 9.47723C49.3925 9.28404 49.754 9.18744 50.1294 9.18744C50.5102 9.18744 50.8 9.28404 50.9987 9.47723C51.203 9.67042 51.3051 9.91329 51.3051 10.2058C51.3051 10.4874 51.225 10.7523 51.065 11.0007C50.9049 11.2436 50.6869 11.4837 50.4109 11.721C50.1404 11.9529 49.8258 12.1847 49.467 12.4165C49.1082 12.6428 48.7301 12.8774 48.3327 13.1203C48.3713 13.4073 48.4375 13.6695 48.5314 13.9069C48.6252 14.1387 48.7439 14.3402 48.8874 14.5113C49.0309 14.6769 49.1965 14.8066 49.3842 14.9004C49.5719 14.9887 49.7816 15.0329 50.0135 15.0329ZM50.2701 10.4542C50.2701 10.2334 50.2094 10.0596 50.088 9.93261C49.9721 9.80566 49.8285 9.74218 49.6574 9.74218C49.5139 9.74218 49.3621 9.79462 49.202 9.89949C49.042 9.99885 48.8957 10.1617 48.7632 10.388C48.6307 10.6088 48.5203 10.8931 48.432 11.2408C48.3437 11.5886 48.2996 12.0108 48.2996 12.5076V12.698C48.4872 12.5987 48.6942 12.469 48.9205 12.3089C49.1524 12.1433 49.3676 11.9611 49.5663 11.7624C49.7651 11.5637 49.9307 11.354 50.0631 11.1332C50.2011 10.9069 50.2701 10.6805 50.2701 10.4542ZM52.7871 16.308C52.7871 16.1976 52.8037 16.0844 52.8368 15.9685C52.8699 15.8581 52.9417 15.7118 53.0521 15.5297C53.168 15.3475 53.3364 15.1129 53.5572 14.8259C53.7835 14.5389 54.0871 14.1635 54.4679 13.6999L54.8902 13.1865C54.7136 12.5407 54.5783 12.0301 54.4845 11.6548C54.3962 11.2794 54.3272 10.9979 54.2775 10.8103C54.2278 10.6171 54.1892 10.4956 54.1616 10.446C54.1395 10.3963 54.1064 10.3714 54.0622 10.3714C54.0181 10.3714 53.9684 10.4184 53.9132 10.5122C53.8635 10.6005 53.7945 10.733 53.7062 10.9096C53.6234 11.0862 53.5213 11.307 53.3998 11.572C53.2784 11.8369 53.1321 12.1433 52.961 12.491L52.8782 12.6649L52.5388 12.4082L52.6216 12.2344C52.8258 11.8204 52.9969 11.4588 53.1349 11.1497C53.2729 10.8406 53.3916 10.5729 53.4909 10.3466C53.5903 10.1203 53.6758 9.93261 53.7476 9.78358C53.8193 9.63454 53.8939 9.51587 53.9711 9.42755C54.0484 9.33924 54.134 9.27852 54.2278 9.2454C54.3272 9.20676 54.4486 9.18744 54.5921 9.18744C54.7136 9.18744 54.8184 9.22056 54.9067 9.2868C54.9951 9.35304 55.0834 9.49379 55.1717 9.70906C55.26 9.91881 55.3594 10.2252 55.4698 10.6281C55.5802 11.0255 55.7209 11.561 55.892 12.2344C56.03 12.0577 56.168 11.8701 56.306 11.6713C56.4495 11.4726 56.5765 11.2739 56.6869 11.0752C56.8028 10.8765 56.8939 10.6861 56.9601 10.5039C57.0319 10.3162 57.0677 10.1479 57.0677 9.99885C57.0677 9.90501 57.0567 9.82498 57.0346 9.75874C57.0125 9.68698 56.9877 9.62902 56.9601 9.58487C56.9325 9.52967 56.8994 9.48275 56.8608 9.44411L57.0263 9.18744C57.1699 9.19296 57.2968 9.2178 57.4072 9.26196C57.501 9.3006 57.5894 9.36132 57.6722 9.44411C57.755 9.52139 57.7964 9.63178 57.7964 9.7753C57.7964 9.94089 57.7522 10.1286 57.6639 10.3383C57.5811 10.5481 57.4624 10.7771 57.3079 11.0255C57.1533 11.2739 56.9684 11.5444 56.7531 11.8369C56.5378 12.124 56.2977 12.4276 56.0328 12.7477C56.1653 13.2445 56.2867 13.6392 56.3971 13.9317C56.5075 14.2187 56.6068 14.4395 56.6952 14.5941C56.789 14.7431 56.8746 14.8397 56.9518 14.8839C57.0346 14.928 57.1174 14.9501 57.2002 14.9501C57.3051 14.9501 57.4155 14.8894 57.5314 14.768C57.6528 14.6465 57.7826 14.4754 57.9206 14.2546C58.0585 14.0283 58.2076 13.7606 58.3677 13.4515C58.5277 13.1369 58.7044 12.7891 58.8976 12.4082L58.9804 12.2344L59.3198 12.491L59.237 12.6649C58.939 13.2555 58.6795 13.7606 58.4587 14.1801C58.2435 14.5941 58.042 14.9335 57.8543 15.1985C57.6666 15.4634 57.4817 15.6594 57.2996 15.7864C57.1174 15.9078 56.9159 15.9685 56.6952 15.9685C56.524 15.9685 56.3695 15.9464 56.2315 15.9023C56.0935 15.8581 55.9583 15.756 55.8258 15.5959C55.6988 15.4358 55.5719 15.2013 55.4449 14.8921C55.318 14.583 55.18 14.1663 55.0309 13.6419L54.6749 14.0725C54.283 14.5361 54.0015 14.9225 53.8304 15.2316C53.6593 15.5352 53.5737 15.7919 53.5737 16.0016C53.5737 16.1451 53.5903 16.2721 53.6234 16.3825C53.662 16.4929 53.7062 16.5812 53.7559 16.6474L53.64 16.9041C53.5627 16.9041 53.4744 16.8958 53.375 16.8793C53.2756 16.8682 53.1818 16.8406 53.0935 16.7965C53.0107 16.7523 52.9389 16.6916 52.8782 16.6143C52.8175 16.537 52.7871 16.4349 52.7871 16.308ZM59.4026 12.3254L59.3198 12.491L59.237 12.6649L58.8976 12.4082L58.9804 12.2344C59.1183 11.9529 59.2315 11.6713 59.3198 11.3898C59.4137 11.1028 59.4882 10.8351 59.5434 10.5867C59.6041 10.3383 59.6538 10.1203 59.6924 9.93261C59.731 9.74494 59.7697 9.60971 59.8083 9.52691C59.8414 9.46067 59.8884 9.40823 59.9491 9.36959C60.0153 9.32544 60.0816 9.28956 60.1478 9.26196C60.2195 9.23436 60.2858 9.21504 60.3465 9.204C60.4127 9.19296 60.4597 9.18744 60.4873 9.18744C60.6087 9.18744 60.6887 9.21228 60.7274 9.26196C60.7715 9.31164 60.7936 9.39995 60.7936 9.52691C60.7936 9.58763 60.7798 9.73942 60.7522 9.98229C60.7301 10.2196 60.7025 10.5205 60.6694 10.8848C60.6418 11.2436 60.6142 11.6493 60.5866 12.1019C60.5645 12.549 60.5535 13.0127 60.5535 13.4929C60.5535 13.8406 60.5701 14.1166 60.6032 14.3208C60.6363 14.5196 60.6777 14.6686 60.7274 14.768C60.7826 14.8673 60.8405 14.9308 60.9012 14.9584C60.9675 14.986 61.0337 14.9998 61.1 14.9998C61.1883 14.9998 61.2876 14.9611 61.398 14.8839C61.5084 14.8066 61.6381 14.6714 61.7872 14.4782C61.9362 14.2794 62.1073 14.0145 62.3005 13.6833C62.4937 13.3466 62.72 12.9216 62.9794 12.4082L63.0705 12.2344L63.41 12.491L63.3189 12.6649C63.1092 13.0734 62.8994 13.4763 62.6897 13.8737C62.4854 14.2712 62.2757 14.6244 62.0604 14.9335C61.8506 15.2427 61.6381 15.4938 61.4229 15.687C61.2076 15.8747 60.9923 15.9685 60.777 15.9685C60.5507 15.9685 60.3548 15.9243 60.1892 15.836C60.0291 15.7422 59.8939 15.5904 59.7835 15.3806C59.6786 15.1709 59.5986 14.8949 59.5434 14.5527C59.4937 14.2049 59.4689 13.7771 59.4689 13.2693C59.4689 13.1258 59.4689 12.9768 59.4689 12.8222C59.4689 12.6622 59.4744 12.4966 59.4854 12.3254H59.4026ZM61.1 7.49011C61.1 7.6833 61.0337 7.84613 60.9012 7.97861C60.7743 8.10556 60.6142 8.16904 60.421 8.16904C60.2333 8.16904 60.0733 8.10556 59.9408 7.97861C59.8083 7.84613 59.7421 7.6833 59.7421 7.49011C59.7421 7.30243 59.8083 7.14236 59.9408 7.00988C60.0733 6.87741 60.2333 6.81117 60.421 6.81117C60.6142 6.81117 60.7743 6.87741 60.9012 7.00988C61.0337 7.14236 61.1 7.30243 61.1 7.49011ZM63.5921 9.41927C63.6142 9.36407 63.6667 9.31992 63.7495 9.2868C63.8322 9.25368 63.9206 9.2316 64.0144 9.22056C64.1082 9.204 64.1966 9.19572 64.2794 9.19572C64.3621 9.1902 64.4173 9.18744 64.4449 9.18744C64.5277 9.18744 64.5802 9.20952 64.6023 9.25368C64.6299 9.29232 64.6437 9.3558 64.6437 9.44411C64.6437 9.48827 64.6299 9.58763 64.6023 9.74218C64.5747 9.89122 64.5388 10.0789 64.4946 10.3052C64.456 10.5315 64.4118 10.7882 64.3621 11.0752C64.318 11.3622 64.2738 11.6575 64.2297 11.9611C64.191 12.2647 64.1579 12.5738 64.1303 12.8885C64.1027 13.1976 64.0889 13.4901 64.0889 13.7661C64.0889 14.2463 64.169 14.6079 64.329 14.8507C64.4891 15.0881 64.674 15.2068 64.8838 15.2068C65.2481 15.2068 65.571 14.9391 65.8525 14.4036C66.134 13.8682 66.4266 13.0844 66.7301 12.0522V9.64282C66.7301 9.54899 66.7715 9.47447 66.8543 9.41927C66.9427 9.35856 67.042 9.31164 67.1524 9.27852C67.2628 9.2454 67.3704 9.22332 67.4753 9.21228C67.5802 9.19572 67.6547 9.18744 67.6989 9.18744C67.87 9.18744 67.9555 9.273 67.9555 9.44411C67.9555 9.50483 67.95 9.60695 67.939 9.75046C67.9335 9.88846 67.9252 10.054 67.9141 10.2472C67.9031 10.4349 67.8921 10.6447 67.881 10.8765C67.8755 11.1028 67.8727 11.3319 67.8727 11.5637V14.9335C67.9721 14.8066 68.0963 14.6382 68.2453 14.4285C68.3999 14.2187 68.5572 13.9952 68.7173 13.7578C68.8829 13.5205 69.0402 13.2831 69.1892 13.0458C69.3438 12.8084 69.468 12.5959 69.5618 12.4082L69.6529 12.2344L69.9923 12.491L69.9013 12.6649C69.7853 12.8967 69.6474 13.1369 69.4873 13.3852C69.3272 13.6336 69.1561 13.8848 68.9739 14.1387C68.7973 14.3871 68.6124 14.6355 68.4192 14.8839C68.2315 15.1267 68.0494 15.3586 67.8727 15.5794V17.4092C67.8727 17.917 67.8258 18.3475 67.732 18.7008C67.6437 19.0596 67.5195 19.3494 67.3594 19.5702C67.1993 19.7965 67.0116 19.9593 66.7964 20.0587C66.5811 20.158 66.3465 20.2077 66.0926 20.2077C65.9325 20.2077 65.7835 20.1829 65.6455 20.1332C65.513 20.0835 65.3971 20.009 65.2978 19.9096C65.1984 19.8158 65.1211 19.6999 65.0659 19.5619C65.0107 19.4294 64.9831 19.2776 64.9831 19.1065C64.9831 18.8581 65.0273 18.6097 65.1156 18.3613C65.2094 18.1129 65.3364 17.8563 65.4965 17.5913C65.6621 17.3264 65.8525 17.0531 66.0678 16.7716C66.283 16.4956 66.5149 16.2059 66.7633 15.9023V13.3935C66.6253 13.7689 66.4762 14.1166 66.3162 14.4368C66.1561 14.7514 65.9822 15.0219 65.7945 15.2482C65.6069 15.4745 65.4054 15.6511 65.1901 15.7781C64.9748 15.905 64.743 15.9685 64.4946 15.9685C64.318 15.9685 64.1358 15.9409 63.9482 15.8857C63.766 15.825 63.5949 15.7174 63.4348 15.5628C63.2803 15.4082 63.1533 15.2013 63.054 14.9418C62.9546 14.6769 62.9049 14.3402 62.9049 13.9317C62.9049 13.468 62.9325 12.9961 62.9877 12.5159C63.0429 12.0357 63.1064 11.5886 63.1782 11.1746C63.2554 10.7606 63.3327 10.399 63.41 10.0899C63.4873 9.7753 63.548 9.55175 63.5921 9.41927ZM66.0015 19.7026C66.0898 19.7026 66.1782 19.6833 66.2665 19.6447C66.3603 19.6116 66.4431 19.5315 66.5149 19.4046C66.5866 19.2776 66.6446 19.0899 66.6887 18.8416C66.7384 18.5932 66.7633 18.2565 66.7633 17.8314V16.5812C66.5756 16.813 66.4017 17.0366 66.2416 17.2519C66.0871 17.4726 65.9518 17.6852 65.8359 17.8894C65.72 18.0991 65.6289 18.3006 65.5627 18.4938C65.4965 18.687 65.4633 18.8747 65.4633 19.0568C65.4633 19.2279 65.5103 19.377 65.6041 19.5039C65.6979 19.6364 65.8304 19.7026 66.0015 19.7026Z" fill="#FFB55A"/>
<path d="M8.96467 22.5893C8.96467 21.1119 9.09622 19.5536 9.35932 17.9143C9.62242 16.2547 10.0272 14.6256 10.5736 13.0267C11.1403 11.4279 11.8385 9.89993 12.6683 8.44278C13.5183 6.98563 14.5201 5.71062 15.6736 4.61776C16.8272 3.50465 18.1326 2.62429 19.5897 1.97667C21.0671 1.30881 22.7064 0.974878 24.5076 0.974878C26.3493 0.974878 28.0291 1.28857 29.5469 1.91595C31.0648 2.5231 32.4208 3.38323 33.6148 4.49633C34.8089 5.58919 35.8511 6.89456 36.7416 8.41242C37.6523 9.93029 38.4012 11.5898 38.9881 13.391C39.575 15.1922 40.0101 17.1047 40.2934 19.1286C40.597 21.1321 40.7488 23.1762 40.7488 25.2607C40.7488 27.5679 40.5565 29.8649 40.172 32.1518C39.8077 34.4388 39.2512 36.6346 38.5023 38.7394C37.7738 40.8239 36.8529 42.7668 35.7398 44.568C34.6267 46.3692 33.3315 47.9275 31.8541 49.243C30.3767 50.5585 28.7071 51.5907 26.8451 52.3395C25.0035 53.1085 22.9796 53.493 20.7737 53.493C18.7094 53.493 16.7766 53.1692 14.9754 52.5216C13.1742 51.8942 11.5248 51.0037 10.0272 49.8502C8.52955 48.6764 7.19383 47.29 6.02001 45.6912C4.8462 44.0722 3.85452 42.3013 3.045 40.3787C2.25571 38.4358 1.64856 36.3715 1.22356 34.1858C0.798554 31.9798 0.586052 29.7131 0.586052 27.3857C0.586052 25.0988 0.788435 22.9738 1.1932 21.0107C1.6182 19.0476 2.17475 17.2363 2.86285 15.5768C3.55095 13.9172 4.33012 12.4095 5.20037 11.0535C6.09085 9.69755 7.01169 8.48326 7.96288 7.41063C8.91408 6.33801 9.85516 5.40705 10.7861 4.61776C11.7171 3.82847 12.5772 3.17072 13.3665 2.64453L14.6719 3.52489C13.2754 4.65823 12.0105 6.05467 10.8772 7.7142C9.76408 9.37374 8.80277 11.2357 7.99324 13.3C7.20395 15.3642 6.5968 17.5905 6.1718 19.9786C5.7468 22.3464 5.5343 24.8155 5.5343 27.3857C5.5343 31.737 5.9593 35.4608 6.8093 38.5572C7.67955 41.6537 8.82301 44.1936 10.2397 46.1769C11.6564 48.1603 13.2754 49.6174 15.0969 50.5484C16.9385 51.4793 18.8308 51.9448 20.7737 51.9448C22.8784 51.9448 24.8314 51.4793 26.6326 50.5484C28.4338 49.6174 29.9922 48.1603 31.3077 46.1769C32.6434 44.1936 33.6857 41.6537 34.4345 38.5572C35.2035 35.4608 35.588 31.737 35.588 27.3857C35.588 23.2167 35.2642 19.594 34.6166 16.5178C33.9892 13.4416 33.119 10.9017 32.0059 8.89814C30.913 6.87432 29.6279 5.36657 28.1505 4.3749C26.6731 3.38323 25.1047 2.88739 23.4451 2.88739C22.1499 2.88739 20.9862 3.18084 19.954 3.76775C18.9219 4.35466 18.0112 5.16419 17.2219 6.19634C16.4528 7.20825 15.785 8.4023 15.2183 9.7785C14.6516 11.1345 14.1861 12.5916 13.8218 14.15C13.4778 15.7083 13.2248 17.3172 13.0629 18.9768C12.901 20.6161 12.8201 22.2351 12.8201 23.8339C12.8201 25.7363 12.8808 27.3453 13.0022 28.6608C13.1236 29.956 13.2653 31.0084 13.4272 31.8179C13.6093 32.7691 13.8218 33.528 14.0647 34.0947L12.2736 34.5501C11.9903 34.2263 11.6564 33.7709 11.2718 33.184C10.9075 32.5971 10.5534 31.828 10.2093 30.8768C9.86527 29.9256 9.57182 28.7721 9.32896 27.4161C9.0861 26.0601 8.96467 24.4512 8.96467 22.5893Z" fill="#FFB55A"/>
<path d="M46.6101 23.2693C47.5533 23.2693 48.3573 23.5167 49.0221 24.0115C49.687 24.4908 50.2359 25.1866 50.6688 26.0988C51.1017 26.9956 51.4187 28.0934 51.6197 29.3922C51.8207 30.6755 51.9212 32.1134 51.9212 33.706C51.9212 35.1903 51.8362 36.7442 51.6661 38.3677C51.496 39.9912 51.2409 41.6379 50.9007 43.3077C50.576 44.9621 50.1663 46.6011 49.6715 48.2246C49.1922 49.848 48.6433 51.3942 48.0248 52.8631C47.4064 54.332 46.7183 55.7003 45.9607 56.9682C45.2031 58.2206 44.3836 59.3106 43.5023 60.2383C42.621 61.1506 41.6778 61.8618 40.6728 62.3721C39.6832 62.8978 38.6396 63.1606 37.5418 63.1606C36.3821 63.1606 35.3771 62.9519 34.5267 62.5344C33.6918 62.1324 32.9806 61.5835 32.393 60.8877C31.8209 60.1765 31.3571 59.3647 31.0015 58.4525C30.6458 57.5248 30.3675 56.5507 30.1665 55.5302C29.981 54.5098 29.8573 53.4738 29.7954 52.4224C29.7336 51.3556 29.7027 50.3428 29.7027 49.3842C29.7027 47.5443 29.78 45.7584 29.9346 44.0267C30.0892 42.2795 30.2593 40.5942 30.4448 38.9707C30.6458 37.3472 30.8237 35.7933 30.9783 34.309C31.1329 32.8247 31.2102 31.4099 31.2102 30.0648C31.2102 28.936 31.1483 28.0006 31.0247 27.2585C30.901 26.5008 30.7077 25.8978 30.4448 25.4494C30.1975 25.001 29.8805 24.6841 29.4939 24.4985C29.1074 24.313 28.6513 24.2202 28.1256 24.2202C27.4453 24.2202 26.7727 24.3748 26.1078 24.6841C25.443 24.9933 24.8013 25.4262 24.1828 25.9829C23.5798 26.524 23.0232 27.1734 22.513 27.931C22.0027 28.6732 21.5621 29.4849 21.191 30.3663C20.8044 31.2476 20.5029 32.1753 20.2865 33.1494C20.07 34.108 19.9618 35.0744 19.9618 36.0484C19.9618 37.0535 20.0314 37.8961 20.1705 38.5764C20.3097 39.2568 20.5029 39.8057 20.7503 40.2231C20.9823 40.6406 21.2683 40.9421 21.6085 41.1276C21.9641 41.3132 22.3506 41.4059 22.7681 41.4059C23.4948 41.4059 24.1519 41.2127 24.7395 40.8261C25.327 40.4241 25.8372 39.8675 26.2702 39.1563C26.7031 38.4296 27.0587 37.5637 27.337 36.5587C27.6153 35.5382 27.8163 34.4172 27.94 33.1958L29.0301 33.2421C28.9837 33.7678 28.8987 34.3709 28.775 35.0512C28.6667 35.716 28.5044 36.3963 28.2879 37.0921C28.0715 37.7724 27.8009 38.445 27.4762 39.1099C27.1515 39.7747 26.7495 40.3623 26.2702 40.8725C25.7909 41.3827 25.2342 41.8002 24.6003 42.1249C23.9664 42.4341 23.2319 42.5888 22.397 42.5888C21.794 42.5888 21.1678 42.4728 20.5184 42.2409C19.869 42.0089 19.2737 41.6456 18.7326 41.1508C18.1914 40.656 17.7508 40.0144 17.4106 39.2258C17.055 38.4218 16.8772 37.4555 16.8772 36.3268C16.8772 35.2135 17.0395 34.1157 17.3642 33.0334C17.6734 31.9511 18.1064 30.9152 18.663 29.9256C19.2042 28.936 19.8535 28.0238 20.6112 27.1889C21.3533 26.3539 22.1651 25.6272 23.0464 25.0088C23.9277 24.3903 24.8554 23.911 25.8295 23.5708C26.8036 23.2152 27.7777 23.0374 28.7518 23.0374C32.8955 23.0374 34.9674 26.0447 34.9674 32.0593C34.9674 33.5282 34.8978 35.0898 34.7587 36.7442C34.635 38.3986 34.4958 40.0917 34.3412 41.8234C34.202 43.5397 34.0629 45.2636 33.9237 46.9954C33.8 48.7116 33.7382 50.366 33.7382 51.9586C33.7382 54.0304 33.831 55.708 34.0165 56.9914C34.202 58.2747 34.4726 59.272 34.8282 59.9832C35.1839 60.679 35.6168 61.1506 36.127 61.398C36.6373 61.6299 37.2171 61.7459 37.8665 61.7459C38.8406 61.7459 39.7992 61.3902 40.7424 60.679C41.6855 59.9523 42.5823 58.9782 43.4327 57.7567C44.2831 56.5198 45.0639 55.0818 45.7752 53.4429C46.5019 51.7885 47.1281 50.0336 47.6538 48.1782C48.1795 46.3073 48.5892 44.3823 48.883 42.4032C49.1767 40.4087 49.3236 38.4605 49.3236 36.5587C49.3236 34.4095 49.2077 32.6237 48.9757 31.2012C48.7438 29.7633 48.4268 28.6191 48.0248 27.7687C47.6228 26.9028 47.159 26.2921 46.6333 25.9365C46.1076 25.5809 45.5432 25.403 44.9402 25.403C44.5228 25.403 44.1207 25.4804 43.7342 25.635C43.3631 25.7741 43.0152 25.9519 42.6905 26.1684C42.3658 26.3849 42.0721 26.6168 41.8092 26.8642C41.5464 27.1116 41.3299 27.3358 41.1598 27.5368L40.2089 26.8178C40.4254 26.5395 40.7424 26.1993 41.1598 25.7973C41.5928 25.3953 42.0875 25.0088 42.6442 24.6377C43.2162 24.2666 43.8347 23.9496 44.4996 23.6868C45.1799 23.4085 45.8834 23.2693 46.6101 23.2693Z" fill="black"/>
</g>
<defs>
<clipPath id="clip0">
<rect width="107" height="65" fill="white"/>
</clipPath>
</defs>
</svg>
