<svg width="68" height="69" viewBox="0 0 68 69" fill="none" xmlns="http://www.w3.org/2000/svg">
<path d="M35.4609 28.1997C28.1743 28.1997 22.2461 34.0668 22.2461 41.2783C22.2461 48.4898 28.1743 54.3569 35.4609 54.3569C42.7476 54.3569 48.6758 48.4898 48.6758 41.2783C48.6758 34.0668 42.7476 28.1997 35.4609 28.1997ZM35.4609 51.7281C29.6388 51.7281 24.9023 47.0403 24.9023 41.2783C24.9023 35.5164 29.6388 30.8286 35.4609 30.8286C41.283 30.8286 46.0195 35.5164 46.0195 41.2783C46.0195 47.0403 41.283 51.7281 35.4609 51.7281Z" fill="#FFB55A"/>
<path d="M35.4609 45.4516C33.1358 45.4516 31.2441 43.5795 31.2441 41.2783C31.2441 40.5523 30.6495 39.9639 29.916 39.9639C29.1825 39.9639 28.5879 40.5523 28.5879 41.2783C28.5879 45.029 31.6711 48.0805 35.4609 48.0805C36.1943 48.0805 36.7891 47.492 36.7891 46.7661C36.7891 46.0401 36.1943 45.4516 35.4609 45.4516Z" fill="#FFB55A"/>
<path d="M35.4609 34.4761C34.7275 34.4761 34.1328 35.0645 34.1328 35.7905C34.1328 36.5165 34.7275 37.1049 35.4609 37.1049C37.7861 37.1049 39.6777 38.9771 39.6777 41.2783C39.6777 42.0042 40.2725 42.5927 41.0059 42.5927C41.7392 42.5927 42.334 42.0042 42.334 41.2783C42.334 37.5275 39.2507 34.4761 35.4609 34.4761Z" fill="#FFB55A"/>
<path d="M61.3594 16.3041H49.8638L47.6017 8.82905C47.4333 8.27278 46.9161 7.89172 46.3294 7.89172H24.5925C24.0057 7.89172 23.4886 8.27278 23.3201 8.82905L21.0581 16.3041H16.2031V11.835C16.2031 11.1091 15.6084 10.5206 14.875 10.5206H8.5C7.76661 10.5206 7.17188 11.1091 7.17188 11.835V16.3041H6.64062C2.97898 16.3041 0 19.2524 0 22.8763V54.4226C0 58.0465 2.97898 60.9948 6.64062 60.9948H61.3594C65.021 60.9948 68 58.0465 68 54.4226V22.8763C68 19.2524 65.021 16.3041 61.3594 16.3041ZM52.1523 52.0567C53.0644 50.6714 53.8107 49.1565 54.3588 47.534C54.5914 46.8455 54.2159 46.1007 53.5204 45.8706C52.824 45.6401 52.0722 46.0121 51.8396 46.7004C49.4825 53.678 42.9006 58.3659 35.4609 58.3659C25.9405 58.3659 18.1953 50.7004 18.1953 41.2783C18.1953 31.8562 25.9405 24.1907 35.4609 24.1907C42.9004 24.1907 49.4824 28.8786 51.8395 35.8562C52.0722 36.5445 52.8246 36.9162 53.5203 36.686C54.2159 36.4558 54.5913 35.711 54.3587 35.0225C53.8106 33.4001 53.0642 31.8851 52.152 30.5H65.3438V52.0567H52.1523ZM2.65625 30.5H18.7878C17.9499 31.7652 17.2545 33.1307 16.7253 34.5747H12.1745C10.417 34.5747 8.98702 35.9898 8.98702 37.7294V44.8273C8.98702 46.5668 10.417 47.9819 12.1745 47.9819H16.7255C17.2546 49.426 17.95 50.7914 18.7879 52.0567H2.65625V30.5ZM15.9679 45.3531H12.1745C11.8815 45.3531 11.6433 45.1173 11.6433 44.8273V37.7294C11.6433 37.4394 11.8815 37.2036 12.1745 37.2036H15.9679C15.6875 38.5189 15.5391 39.8817 15.5391 41.2783C15.5391 42.6749 15.6875 44.0377 15.9679 45.3531ZM25.5811 10.5206H45.3406L47.0907 16.3041H23.8311L25.5811 10.5206ZM9.82812 13.1495H13.5469V16.3041H9.82812V13.1495ZM6.64062 18.933H61.3594C63.5564 18.933 65.3438 20.7019 65.3438 22.8763V27.8711H50.0792C46.391 23.9329 41.1429 21.5618 35.4609 21.5618C29.7031 21.5618 24.509 23.9929 20.8684 27.8711H2.65625V22.8763C2.65625 20.7019 4.44364 18.933 6.64062 18.933V18.933ZM6.64062 58.3659C4.53302 58.3659 2.80341 56.7376 2.66608 54.6855H20.8684C22.2242 56.1298 23.7947 57.3741 25.5305 58.3659H6.64062ZM61.3594 58.3659H45.4131C47.1434 57.3797 48.7176 56.1394 50.0792 54.6855H65.3338C65.1966 56.7376 63.467 58.3659 61.3594 58.3659V58.3659Z" fill="#FFB55A"/>
<path d="M54.9935 40.349C54.7466 40.1045 54.404 39.9639 54.0547 39.9639C53.7054 39.9639 53.3627 40.1045 53.1157 40.349C52.8687 40.5935 52.7266 40.9326 52.7266 41.2783C52.7266 41.624 52.8685 41.9631 53.1157 42.2076C53.3627 42.4521 53.7054 42.5927 54.0547 42.5927C54.404 42.5927 54.7466 42.4521 54.9935 42.2076C55.2406 41.9631 55.3828 41.624 55.3828 41.2783C55.3828 40.9326 55.2407 40.5935 54.9935 40.349Z" fill="#FFB55A"/>
</svg>
