<svg width="50" height="50" viewBox="0 0 50 50" fill="none" xmlns="http://www.w3.org/2000/svg">
<path d="M13.9355 15.9475L13.9843 15.967C14.121 16.0256 14.2578 16.0549 14.3945 16.0549C14.7656 16.0549 15.1171 15.8401 15.2831 15.4885C15.5078 15.0002 15.2929 14.4143 14.8046 14.1897L14.7656 14.1701C14.2773 13.9455 13.6914 14.1604 13.4667 14.6487C13.2324 15.1369 13.4472 15.7229 13.9355 15.9475Z" fill="#252526"/>
<path d="M49.7657 9.47266C49.4825 9.14062 49.0235 9.0332 48.6231 9.20898C48.0274 9.47266 47.4219 9.70703 46.8067 9.90234C47.5977 8.89648 48.2227 7.74414 48.6231 6.50391C48.75 6.11328 48.6231 5.69336 48.3008 5.43945C47.9786 5.18555 47.5391 5.15625 47.1973 5.36133C45.4883 6.36719 43.6622 7.09961 41.7383 7.5293C39.7364 5.60547 37.0313 4.51172 34.2383 4.51172C28.2715 4.51172 23.4082 9.36523 23.4082 15.3418C23.4082 15.7324 23.4278 16.1328 23.4766 16.5234C21.9434 16.377 20.42 16.1035 18.9454 15.7031C18.4278 15.5664 17.8907 15.8691 17.7442 16.3867C17.5977 16.9043 17.9102 17.4414 18.4278 17.5879C20.4297 18.1348 22.5 18.457 24.5899 18.5645C24.8926 18.584 25.1856 18.4473 25.3809 18.2227C25.5762 17.9883 25.6543 17.6758 25.586 17.3828C25.4395 16.709 25.3614 16.0254 25.3614 15.3516C25.3614 10.459 29.3457 6.47461 34.2383 6.47461C36.6797 6.47461 39.043 7.49023 40.7129 9.27734C40.9473 9.52148 41.2793 9.62891 41.6114 9.57031C42.9493 9.30664 44.2579 8.91602 45.5176 8.39844C44.8145 9.375 43.9161 10.2148 42.8614 10.8398C42.4707 11.0742 42.2852 11.5527 42.4415 11.9922C42.5879 12.4316 43.0274 12.7051 43.4766 12.6465C44.375 12.5391 45.2735 12.373 46.1524 12.1484C45.3516 12.9883 44.4727 13.75 43.5254 14.4336C43.2618 14.6191 43.1153 14.9316 43.1153 15.2539L43.1446 16.5234C43.1446 29.7852 33.0274 43.5352 16.0938 43.5352C12.2266 43.5352 8.43754 42.7148 4.95121 41.1328C9.05277 40.8203 12.9102 39.3359 16.1719 36.7773C16.4942 36.5234 16.6309 36.0937 16.4942 35.7031C16.3672 35.3125 15.9961 35.0391 15.586 35.0391C12.3145 34.9707 9.39457 33.125 7.90043 30.3125C8.00785 30.3125 8.11527 30.3125 8.2227 30.3125C9.18949 30.3125 10.1465 30.1855 11.0645 29.9414C11.5039 29.8242 11.8067 29.4238 11.7871 28.9648C11.7676 28.5059 11.4454 28.125 11.0059 28.0371C7.36332 27.2949 4.59965 24.3555 4.00395 20.7715C5.07816 21.1621 6.20121 21.377 7.33402 21.4062C7.77348 21.416 8.15434 21.1426 8.29106 20.7227C8.41801 20.3125 8.26176 19.8535 7.90043 19.6191C5.42973 17.9687 3.95512 15.2148 3.95512 12.2363C3.95512 11.1328 4.1602 10.0488 4.54105 9.04297C6.13285 10.8008 7.92973 12.3535 9.90238 13.6816C10.3516 13.9844 10.9571 13.8672 11.2598 13.418C11.5625 12.9687 11.4454 12.3633 10.9961 12.0605C8.76957 10.5762 6.77738 8.75977 5.07816 6.66992C4.87309 6.42578 4.56059 6.28906 4.24809 6.30859C3.92582 6.33789 3.64262 6.51367 3.4766 6.78711C2.5098 8.42773 2.00199 10.3125 2.00199 12.2363C2.00199 14.6191 2.77348 16.8848 4.1602 18.7305C3.89652 18.6133 3.63285 18.4863 3.37895 18.3398C3.07621 18.1738 2.70512 18.1738 2.41215 18.3496C2.11918 18.5254 1.93363 18.8477 1.93363 19.1895V19.3066C1.93363 22.9199 3.74027 26.2012 6.55277 28.1836C6.54301 28.1836 6.54301 28.1836 6.53324 28.1836C6.19145 28.1152 5.84965 28.2422 5.61527 28.4961C5.39066 28.75 5.31254 29.1113 5.41996 29.4434C6.56254 32.998 9.4434 35.6543 12.9395 36.6016C10.0586 38.3398 6.76762 39.248 3.32035 39.248C2.5684 39.248 1.83598 39.209 1.08402 39.1211C0.634805 39.0723 0.205117 39.3359 0.0586328 39.7656C-0.0976172 40.1953 0.0683984 40.6738 0.449258 40.918C5.12699 43.916 10.5371 45.498 16.0938 45.498C20.5664 45.498 24.7461 44.6094 28.5254 42.8613C31.9922 41.25 35.0586 38.9551 37.6368 36.0352C42.3829 30.6543 45.0977 23.5352 45.0977 16.4941C45.0977 16.4844 45.0977 16.4746 45.0977 16.4746L45.0782 15.7031C46.9336 14.2969 48.5352 12.5977 49.834 10.6543C50.0782 10.2832 50.0489 9.80469 49.7657 9.47266Z" fill="#252526"/>
<path d="M36.7871 28.2229C36.3281 27.9495 35.7226 28.096 35.4492 28.555C35.1758 29.014 35.3223 29.6194 35.7812 29.8929C35.9375 29.9905 36.1133 30.0296 36.2793 30.0296C36.6113 30.0296 36.9336 29.8636 37.1191 29.5511C37.4023 29.1019 37.2461 28.5062 36.7871 28.2229Z" fill="#252526"/>
<path d="M34.8828 31.1619C34.4629 30.8201 33.8476 30.8787 33.5058 31.2986C31.7968 33.3689 29.7754 35.0877 27.5 36.3865C27.0312 36.6502 26.8652 37.2459 27.1386 37.7146C27.3144 38.0271 27.6465 38.2029 27.9883 38.2029C28.1543 38.2029 28.3203 38.1639 28.4765 38.076C30.957 36.66 33.164 34.7947 35.0195 32.5389C35.3613 32.1189 35.2929 31.5037 34.8828 31.1619Z" fill="#252526"/>
</svg>
