<svg width="50" height="50" viewBox="0 0 50 50" fill="none" xmlns="http://www.w3.org/2000/svg">
<path d="M25 36.6506C24.4629 36.6506 24.0234 37.0901 24.0234 37.6272V37.637C24.0234 38.1741 24.4629 38.6135 25 38.6135C25.5371 38.6135 25.9766 38.1741 25.9766 37.637C25.9766 37.0901 25.5371 36.6506 25 36.6506Z" fill="#262625"/>
<path d="M40.4297 0H9.57031C4.29688 0 0 4.29688 0 9.57031V40.4297C0 45.7031 4.29688 50 9.57031 50H25C25.5371 50 25.9766 49.5605 25.9766 49.0234V41.4551C25.9766 40.918 25.5371 40.4785 25 40.4785C24.4629 40.4785 24.0234 40.918 24.0234 41.4551V48.0469H9.57031C5.37109 48.0469 1.95312 44.6289 1.95312 40.4297V9.57031C1.95312 5.37109 5.37109 1.95312 9.57031 1.95312H40.4297C44.6289 1.95312 48.0469 5.37109 48.0469 9.57031V40.4297C48.0469 44.6289 44.6289 48.0469 40.4297 48.0469H34.1797V30.8105H39.8438C40.3418 30.8105 40.7617 30.4297 40.8203 29.9316L41.5234 22.9492C41.5527 22.6758 41.4648 22.4023 41.2793 22.1973C41.0938 21.9922 40.8301 21.875 40.5566 21.875H34.1797V18.2129C34.1797 17.5488 34.3945 17.3047 34.9609 17.3047H40.498C41.0352 17.3047 41.4746 16.8652 41.4746 16.3281V9.52148C41.4746 8.98438 41.0352 8.54492 40.498 8.54492H33.2227C29.1016 8.54492 26.9141 10.3516 25.8008 11.875C24.248 14.0039 24.0234 16.5137 24.0234 17.8125V21.9141H19.2383C18.7012 21.9141 18.2617 22.3535 18.2617 22.8906V29.8242C18.2617 30.3613 18.7012 30.8008 19.2383 30.8008H24.0234V33.5938C24.0234 34.1309 24.4629 34.5703 25 34.5703C25.5371 34.5703 25.9766 34.1309 25.9766 33.5938V29.834C25.9766 29.2969 25.5371 28.8574 25 28.8574H20.2148V23.877H25C25.5371 23.877 25.9766 23.4375 25.9766 22.9004V17.8223C25.9766 15.625 26.6797 10.5078 33.2227 10.5078H39.5215V15.3613H34.9609C33.7012 15.3613 32.2266 16.1133 32.2266 18.2227V22.8516C32.2266 23.3887 32.666 23.8281 33.2031 23.8281H39.4629L38.9551 28.8574H33.2031C32.666 28.8574 32.2266 29.2969 32.2266 29.834V49.0234C32.2266 49.5605 32.666 50 33.2031 50H40.4297C45.7031 50 50 45.7031 50 40.4297V9.57031C50 4.29688 45.7031 0 40.4297 0Z" fill="#262625"/>
<path d="M5.66406 10.0098C5.12695 10.0098 4.6875 10.4492 4.6875 10.9863V19.1406C4.6875 19.6777 5.12695 20.1172 5.66406 20.1172C6.20117 20.1172 6.64062 19.6777 6.64062 19.1406V10.9863C6.64062 10.4492 6.20117 10.0098 5.66406 10.0098Z" fill="#262625"/>
<path d="M5.66406 22.4023C5.12695 22.4023 4.6875 22.8418 4.6875 23.3789V23.3887C4.6875 23.9258 5.12695 24.3652 5.66406 24.3652C6.20117 24.3652 6.64062 23.9258 6.64062 23.3887V23.3789C6.64062 22.8418 6.20117 22.4023 5.66406 22.4023Z" fill="#262625"/>
</svg>
